<?xml version="1.0" standalone="no"?>
<!DOCTYPE svg PUBLIC "-//W3C//DTD SVG 1.1//EN" "http://www.w3.org/Graphics/SVG/1.1/DTD/svg11.dtd" >
<svg xmlns="http://www.w3.org/2000/svg" xmlns:xlink="http://www.w3.org/1999/xlink" version="1.1">
<metadata></metadata>
<defs>
<font id="clarika_geometricregular" horiz-adv-x="1233" >
<font-face units-per-em="2048" ascent="1638" descent="-410" />
<missing-glyph horiz-adv-x="550" />
<glyph unicode="&#x31;&#x2f;&#x34;" horiz-adv-x="1527" d="M115 1203l258 162h137l-2 -810h-145v652l-186 -115zM239 2l872 1365h148l-873 -1365h-147zM755 275l318 536h160l-311 -523h249v211h145v-211h96v-124h-96v-164h-145v164h-373z" />
<glyph unicode="&#x31;&#x2f;&#x32;" horiz-adv-x="1627" d="M115 1203l258 162h137l-2 -810h-145v652l-186 -115zM239 2l872 1365h148l-873 -1365h-147zM924 659q42 65 120 119t176 54q123 0 203.5 -69.5t80.5 -184.5q0 -124 -102 -226l-227 -226h340v-126h-581v83l329 333q42 40 64.5 76t22.5 80q0 58 -34 96t-98 38 q-34 0 -62.5 -11t-55 -37t-37 -38.5t-33.5 -43.5z" />
<glyph unicode="&#x33;&#x2f;&#x34;" horiz-adv-x="1696" d="M115 651l83 104q26 -27 49 -45t67 -34.5t96 -16.5q77 0 121 33t47 89q8 87 -75 132q-77 36 -196 -8l-55 91l232 243h-320v126h536v-66l-261 -271q77 3 143.5 -23t109 -83t40.5 -135q-2 -114 -87 -184t-233 -70q-91 0 -157.5 28.5t-139.5 89.5zM407 2l873 1365h147 l-872 -1365h-148zM926 275l318 536h158l-312 -523h252v211h143v-211h96v-124h-96v-164h-145v164h-374z" />
<glyph unicode="&#xfb01;" horiz-adv-x="1094" d="M73 819v141h121v205q0 154 73 236t196 82q87 0 158 -41l-66 -126q-38 22 -79 22q-63 0 -88 -44.5t-25 -124.5v-209h561v-960h-162v819h-399v-819h-169v819h-121zM725 1282q0 48 35.5 84t84.5 36q48 0 82.5 -36t34.5 -84t-34.5 -82.5t-82.5 -34.5q-49 0 -84.5 34.5 t-35.5 82.5z" />
<glyph unicode="&#xfb02;" horiz-adv-x="1128" d="M73 819v141h128v205q0 154 72.5 236t195.5 82q87 0 158 -41l-51 -136q-46 32 -94 32q-63 0 -88 -44.5t-25 -124.5v-209h205v-141h-205v-819h-168v819h-128zM813 0v1451h166v-1451h-166z" />
<glyph horiz-adv-x="0" />
<glyph horiz-adv-x="682" />
<glyph unicode="&#xd;" horiz-adv-x="1275" />
<glyph unicode=" "  horiz-adv-x="550" />
<glyph unicode="&#x09;" horiz-adv-x="550" />
<glyph unicode="&#xa0;" horiz-adv-x="550" />
<glyph unicode="!" horiz-adv-x="505" d="M134 102q0 48 35.5 83t84.5 35q48 0 82.5 -35t34.5 -83q0 -49 -34.5 -84t-82.5 -35q-50 0 -85 35t-35 84zM156 1365h196l-30 -998h-139z" />
<glyph unicode="&#x22;" horiz-adv-x="661" d="M64 1286q0 46 31.5 78.5t75.5 32.5q46 0 77 -32t31 -79q0 -38 -27.5 -168t-40.5 -273h-79q-13 143 -40.5 273t-27.5 168zM382 1286q0 46 32 78.5t77 32.5t75.5 -32t30.5 -79q0 -38 -27.5 -168t-40.5 -273h-79q-13 143 -40.5 273t-27.5 168z" />
<glyph unicode="#" horiz-adv-x="1045" d="M-11 410v121h250l83 307h-217v122h249l111 412h124l-111 -412h235l110 412h124l-111 -412h220v-122h-252l-83 -307h220v-121h-252l-111 -412h-124l111 412h-234l-111 -412h-124l111 412h-218zM363 531h234l84 307h-235z" />
<glyph unicode="$" horiz-adv-x="1105" d="M73 186l115 111q61 -85 135.5 -125.5t169.5 -49.5v527q-63 28 -104 49.5t-87.5 56t-73 71.5t-44.5 91t-18 120q0 134 93 231t234 123v196h109v-190q118 -4 204.5 -46.5t164.5 -115.5l-103 -106q-68 64 -129 92t-137 31v-475q6 -2 16.5 -7.5t15.5 -7.5q82 -38 140.5 -74.5 t110.5 -86t78.5 -113t26.5 -140.5q0 -91 -33.5 -162t-90.5 -113.5t-123 -66t-141 -29.5v-186h-109v186q-263 18 -420 209zM339 1039q0 -67 36 -114t118 -93v407q-70 -21 -112 -75t-42 -125zM602 124q88 14 149.5 70t61.5 143q0 94 -55 154t-156 111v-478z" />
<glyph unicode="%" horiz-adv-x="1536" d="M73 1092q0 128 84 216.5t218 88.5q136 0 221 -88.5t85 -216.5q0 -130 -85.5 -218.5t-220.5 -88.5q-134 0 -218 88t-84 219zM218 1092q0 -75 44 -126t113 -51q73 0 116.5 50.5t43.5 126.5q0 74 -43.5 124.5t-116.5 50.5q-72 0 -114.5 -49.5t-42.5 -125.5zM256 0l873 1365 h147l-873 -1365h-147zM858 279q0 130 84.5 219t218.5 89q135 0 220 -89t85 -219t-85.5 -217.5t-219.5 -87.5t-218.5 87.5t-84.5 217.5zM1001 279q0 -73 44.5 -123.5t115.5 -50.5q73 0 116.5 50t43.5 124q0 75 -43.5 126.5t-116.5 51.5t-116.5 -51t-43.5 -127z" />
<glyph unicode="&#x26;" horiz-adv-x="1301" d="M79 346q0 134 75.5 252t220.5 198q-60 68 -91.5 139.5t-25.5 165.5q8 141 98 219.5t237 78.5q97 0 179.5 -49t132.5 -136l-137 -79q-28 55 -76 86t-103 31q-68 0 -110.5 -41t-49.5 -110q-2 -20 1 -41t8 -38t17 -38t19.5 -34t23.5 -33.5t22 -27.5t23 -26t18 -20l376 -421 q62 97 125 224l148 -61q-112 -203 -167 -282l199 -222l-135 -111l-173 196q-185 -192 -418 -192q-204 0 -320.5 107.5t-116.5 264.5zM256 365q0 -99 70 -166t190 -67q168 0 314 154l-350 397q-105 -52 -164.5 -137t-59.5 -181z" />
<glyph unicode="'" horiz-adv-x="343" d="M64 1286q0 46 31.5 78.5t75.5 32.5q46 0 77 -32t31 -79q0 -38 -27.5 -168t-40.5 -273h-79q-13 143 -40.5 273t-27.5 168z" />
<glyph unicode="(" horiz-adv-x="625" d="M94 640q0 137 25.5 270.5t66.5 241t95.5 202.5t109.5 162.5t110 113.5l94 -100q-59 -55 -116.5 -140t-109.5 -197.5t-84.5 -258t-32.5 -294.5q0 -155 32.5 -302.5t84.5 -259.5t109.5 -194.5t116.5 -133.5l-94 -100q-70 54 -139 145.5t-130.5 215.5t-99.5 289t-38 340z " />
<glyph unicode=")" horiz-adv-x="625" d="M30 -250q59 51 117 133.5t110.5 194.5t85 259.5t32.5 302.5q0 149 -32.5 294.5t-85 258t-110.5 197.5t-117 140l96 100q70 -59 138 -152.5t129.5 -218t99.5 -287.5t38 -332q0 -175 -38 -340t-99.5 -289t-129.5 -215.5t-138 -145.5z" />
<glyph unicode="*" horiz-adv-x="780" d="M64 1158l43 131l217 -75l-2 220h137l-2 -222l219 74l43 -130l-226 -70l141 -190l-111 -81l-137 192l-139 -190l-108 79l143 194z" />
<glyph unicode="+" horiz-adv-x="1092" d="M113 467v147h361v361h145v-361h362v-147h-362v-358h-145v358h-361z" />
<glyph unicode="," horiz-adv-x="546" d="M113 -220q83 39 127 95t44 119q-51 -18 -98 11t-47 91q0 53 34 87.5t92 34.5q67 0 107 -53.5t40 -130.5q0 -62 -24 -123.5t-86.5 -122t-154.5 -93.5z" />
<glyph unicode="-" horiz-adv-x="744" d="M113 467v147h521v-147h-521z" />
<glyph unicode="." horiz-adv-x="505" d="M134 102q0 48 35.5 83t84.5 35q48 0 82.5 -35t34.5 -83q0 -49 -34.5 -84t-82.5 -35q-50 0 -85 35t-35 84z" />
<glyph unicode="/" horiz-adv-x="889" d="M-11 -256l768 1743h143l-768 -1743h-143z" />
<glyph unicode="0" horiz-adv-x="1256" d="M115 687q0 319 139.5 514.5t374.5 195.5q155 0 271.5 -89.5t178.5 -250t62 -370.5q0 -321 -139 -517t-373 -196q-235 0 -374.5 196t-139.5 517zM292 685q0 -162 34.5 -286.5t112.5 -202t190 -77.5t190 77.5t112.5 202t34.5 286.5q0 163 -34.5 288t-112 202t-190.5 77 t-190.5 -77t-112 -202t-34.5 -288z" />
<glyph unicode="1" horiz-adv-x="800" d="M43 1094l431 271h149v-1365h-169v1173l-335 -215z" />
<glyph unicode="2" horiz-adv-x="1120" d="M102 0v119l557 579q72 74 112 144.5t40 158.5q0 103 -72.5 177t-185.5 74q-179 0 -295 -183l-128 89q27 43 61.5 81t86 76.5t123 60.5t152.5 21q202 -3 318.5 -114t116.5 -276q0 -123 -51 -218.5t-148 -193.5l-441 -450h670v-145h-916z" />
<glyph unicode="3" horiz-adv-x="1175" d="M94 149l100 135q35 -36 64.5 -60t73.5 -51t100.5 -40.5t122.5 -13.5q148 0 237 78t91 193q1 84 -40.5 150.5t-112.5 99.5q-69 33 -143.5 34.5t-164.5 -13.5l-55 90l422 469h-620v145h836v-115l-403 -448q90 3 172.5 -22.5t147 -76.5t102 -132t36.5 -181 q-2 -185 -136.5 -300.5t-364.5 -115.5q-152 0 -261.5 45t-203.5 130z" />
<glyph unicode="4" horiz-adv-x="1164" d="M73 425l561 940h183l-548 -917h527v393h166v-393h141v-147h-141v-301h-166v301h-685z" />
<glyph unicode="5" horiz-adv-x="1139" d="M85 149l94 137q152 -167 350 -167q77 0 138.5 26t99 69t57 95t19.5 107q0 124 -81.5 200.5t-213.5 78.5q-81 0 -140.5 -27.5t-83.5 -63.5l-141 64l118 697h648v-145h-507l-75 -426q83 44 203 47q196 2 323 -115.5t127 -309.5q0 -86 -31.5 -164.5t-90.5 -141t-152 -99.5 t-208 -37q-145 0 -260.5 51t-192.5 124z" />
<glyph unicode="6" horiz-adv-x="1124" d="M81 425q0 61 6 108.5t30.5 111t51.5 116.5t92 153.5t128.5 192t182.5 258.5h185l-384 -554q38 33 87 50.5t137 17.5q189 0 317.5 -126t128.5 -328q0 -189 -132 -320t-341 -131q-111 0 -204 35.5t-155 96.5t-96 143t-34 176zM258 427q0 -130 88 -219t217 -89 q128 0 215.5 89t87.5 219t-87.5 218.5t-215.5 88.5q-126 0 -215.5 -89t-89.5 -218z" />
<glyph unicode="7" horiz-adv-x="1004" d="M68 1220v145h920v-117l-583 -1248h-183l587 1220h-741z" />
<glyph unicode="8" horiz-adv-x="1201" d="M115 380q0 122 69.5 217t195.5 141q-209 88 -209 305q0 146 119.5 250t308.5 104q191 0 311 -104t120 -250q0 -217 -211 -305q126 -46 196.5 -141t70.5 -217q0 -76 -30 -146.5t-87.5 -129.5t-153.5 -94.5t-216 -35.5t-215.5 35.5t-152.5 94.5t-86.5 129.5t-29.5 146.5z M292 388q0 -117 88.5 -193t218.5 -76t220 76t90 193t-91.5 193t-218.5 76q-126 0 -216.5 -76t-90.5 -193zM339 1033q0 -99 75.5 -164t184.5 -65q110 0 186.5 65t76.5 164q0 97 -76 158t-187 61q-110 0 -185 -61t-75 -158z" />
<glyph unicode="9" horiz-adv-x="1124" d="M81 941q0 189 132.5 319.5t341.5 130.5q111 0 203.5 -35t154.5 -96t96 -143t34 -176q0 -62 -6 -109t-30 -110.5t-52 -117.5t-91.5 -153t-128.5 -192t-182 -259h-186l384 555q-38 -34 -87 -51.5t-137 -17.5q-189 0 -317.5 126.5t-128.5 328.5zM258 939q0 -130 87.5 -219 t215.5 -89q125 0 215 89.5t90 218.5q0 130 -87.5 218.5t-217.5 88.5q-128 0 -215.5 -88.5t-87.5 -218.5z" />
<glyph unicode=":" horiz-adv-x="505" d="M132 870q0 48 35 83t83 35q49 0 84 -35t35 -83q0 -50 -34.5 -84.5t-84.5 -34.5q-48 0 -83 35t-35 84zM134 102q0 48 35.5 83t84.5 35q48 0 82.5 -35t34.5 -83q0 -49 -34.5 -84t-82.5 -35q-50 0 -85 35t-35 84z" />
<glyph unicode=";" horiz-adv-x="565" d="M132 -220q83 39 127 95t44 119q-49 -18 -97 11.5t-48 90.5q0 53 34.5 87.5t93.5 34.5q65 0 105 -54t40 -130q0 -62 -24 -123.5t-86.5 -122t-154.5 -93.5zM156 870q0 48 34.5 83t82.5 35q49 0 84.5 -35t35.5 -83q0 -49 -35 -84t-85 -35q-48 0 -82.5 35t-34.5 84z" />
<glyph unicode="&#x3c;" horiz-adv-x="1115" d="M113 544v139l894 358v-164l-710 -265l710 -264v-165z" />
<glyph unicode="=" horiz-adv-x="1092" d="M113 307v145h868v-145h-868zM113 631v146h868v-146h-868z" />
<glyph unicode="&#x3e;" horiz-adv-x="1115" d="M113 183v165l708 264l-708 265v164l894 -358v-139z" />
<glyph unicode="?" horiz-adv-x="942" d="M45 1205q156 192 401 192q119 0 217.5 -45.5t158.5 -133.5t61 -203q1 -80 -23 -146.5t-63 -110t-91 -76t-102 -48.5t-101 -22v-245h-162v367q74 -1 138.5 14.5t116.5 46.5t81.5 84t28.5 122q-1 110 -75.5 180.5t-188.5 70.5q-55 0 -103 -14.5t-82 -38.5t-55.5 -45.5 t-37.5 -44.5zM303 102q0 48 35 83t84 35q48 0 83 -35t35 -83q0 -49 -35 -84t-83 -35q-50 0 -84.5 34.5t-34.5 84.5z" />
<glyph unicode="@" horiz-adv-x="1610" d="M94 572q6 155 65 293.5t157.5 240t238.5 160.5t300 59q309 0 492 -188t170 -488q-8 -203 -111.5 -329t-249.5 -126q-64 0 -118 34.5t-74 87.5q-118 -128 -283 -128q-137 0 -221.5 99.5t-77.5 267.5q7 181 123 307t286 126q89 0 156 -43.5t105 -118.5l49 134h124 l-107 -478q-17 -64 -11 -100.5t24.5 -50t54.5 -13.5q29 0 62.5 23t64.5 62.5t52.5 103.5t23.5 137q11 262 -134.5 408.5t-403.5 146.5q-177 0 -320 -89t-221.5 -233.5t-85.5 -313.5q-8 -232 135 -381.5t379 -149.5q107 0 184 19t153 60l60 -105q-177 -100 -401 -100 q-298 0 -474.5 185t-165.5 481zM555 570q-3 -120 45 -186t136 -66q74 0 136.5 38.5t100.5 102.5l2 2q34 59 43 124q16 118 -40.5 196.5t-164.5 78.5t-180.5 -87t-77.5 -203z" />
<glyph unicode="A" d="M-11 0l540 1365h175l540 -1365h-188l-147 386l-587 -2l-145 -384h-188zM378 529h477l-238 632z" />
<glyph unicode="B" horiz-adv-x="1130" d="M179 0v1365h320q204 0 321 -86t117 -238q0 -111 -62 -183t-182 -99q175 -24 269 -119.5t94 -246.5q0 -181 -133.5 -287t-361.5 -106h-382zM354 139h199q150 0 235 71t85 193q0 123 -87.5 191.5t-239.5 68.5h-192v-524zM354 823h154q116 0 182.5 56.5t66.5 153.5 q0 94 -63 144t-180 50h-160v-404z" />
<glyph unicode="C" horiz-adv-x="1297" d="M94 687q0 198 88 359.5t251 256t371 94.5q241 0 421 -128l-94 -140q-137 110 -327 110q-158 0 -279.5 -75.5t-184.5 -200.5t-63 -276t63 -276.5t185 -202t279 -76.5q189 0 327 111l94 -141q-180 -128 -421 -128q-208 0 -371 95t-251 257t-88 361z" />
<glyph unicode="D" horiz-adv-x="1380" d="M179 0v1365h371q177 0 318.5 -53t232 -145.5t138 -215.5t47.5 -266q0 -144 -47.5 -267.5t-138 -217t-232 -147t-318.5 -53.5h-371zM354 141h162q149 0 262 39.5t183.5 112t106 171t35.5 221.5q0 122 -35.5 220t-106 170t-183.5 111t-262 39h-162v-1084z" />
<glyph unicode="E" horiz-adv-x="1090" d="M179 0v1365h796v-151h-621v-459h514v-145h-514v-459h621v-151h-796z" />
<glyph unicode="F" horiz-adv-x="994" d="M179 0v1365h796v-151h-621v-459h514v-145h-514v-610h-175z" />
<glyph unicode="G" horiz-adv-x="1521" d="M94 689q0 197 87.5 358t252 255.5t375.5 94.5q139 0 254 -38t170 -85l-96 -137q-45 38 -128.5 70t-199.5 32q-162 0 -285 -75.5t-185 -199.5t-62 -275q0 -152 62 -277.5t182.5 -202.5t276.5 -77q201 0 332.5 124t130.5 329h-395v147h574v-120q0 -123 -42 -236.5 t-120 -203.5t-202.5 -144t-277.5 -54q-208 0 -370 96t-248 258t-86 361z" />
<glyph unicode="H" horiz-adv-x="1388" d="M179 0v1365h175v-584h681v584h175v-1365h-175v636h-681v-636h-175z" />
<glyph unicode="I" horiz-adv-x="531" d="M179 0v1365h175v-1365h-175z" />
<glyph unicode="J" horiz-adv-x="872" d="M28 105l98 138q95 -111 217 -111q100 0 156 68.5t56 200.5v964h175v-955q0 -93 -21 -168t-56.5 -124t-84.5 -82t-103 -47.5t-115 -14.5q-181 0 -322 131z" />
<glyph unicode="K" horiz-adv-x="1213" d="M179 0v1365h175v-574l583 574h228l-651 -640l693 -725h-236l-617 653v-653h-175z" />
<glyph unicode="L" horiz-adv-x="962" d="M179 0v1365h175v-1211h580v-154h-755z" />
<glyph unicode="M" horiz-adv-x="1713" d="M179 0v1365h154l525 -734l522 734h154v-1365h-175v1058l-501 -689l-504 689v-1058h-175z" />
<glyph unicode="N" horiz-adv-x="1465" d="M179 0v1365h164l773 -1073v1073h170v-1365h-166l-770 1077v-1077h-171z" />
<glyph unicode="O" horiz-adv-x="1614" d="M94 687q0 198 88 359.5t251.5 256t372.5 94.5q158 0 292.5 -55.5t226.5 -150.5t144 -225.5t52 -278.5t-52 -279t-144 -227t-226.5 -151.5t-292.5 -55.5q-209 0 -372.5 95.5t-251.5 257.5t-88 360zM277 687q0 -113 37.5 -214t105 -176.5t168 -120t218.5 -44.5 q158 0 280.5 76t187 202t64.5 277q0 152 -64.5 277t-187 200t-280.5 75q-119 0 -219 -43.5t-167.5 -118.5t-105 -176t-37.5 -214z" />
<glyph unicode="P" horiz-adv-x="1105" d="M179 0v1365h433q77 0 151.5 -26t136 -74t99.5 -126.5t38 -174.5q0 -95 -38 -172.5t-99.5 -125t-135.5 -73t-152 -26.5l-258 -2v-565h-175zM354 708l181 -4h5q152 0 232 66q82 68 82 194t-82 195q-80 68 -233 68h-4l-181 -5v-514z" />
<glyph unicode="Q" horiz-adv-x="1614" d="M94 687q0 198 88 359.5t251.5 256t372.5 94.5q158 0 292.5 -55.5t226.5 -150.5t144 -225.5t52 -278.5q0 -238 -127 -421t-344 -255l407 -128l-64 -167l-666 263q-187 18 -332 116t-223 252.5t-78 339.5zM277 687q0 -113 37.5 -214t105 -176.5t168 -120t218.5 -44.5 q158 0 280.5 76t187 202t64.5 277q0 152 -64.5 277t-187 200t-280.5 75q-119 0 -219 -43.5t-167.5 -118.5t-105 -176t-37.5 -214z" />
<glyph unicode="R" horiz-adv-x="1124" d="M179 0v1365h388q195 0 321.5 -108t126.5 -276q0 -150 -100 -245.5t-245 -121.5l456 -614h-213l-435 608h-124v-608h-175zM354 751h181q143 0 220 58.5t77 169.5q0 117 -80.5 180t-237.5 63h-160v-471z" />
<glyph unicode="S" horiz-adv-x="1111" d="M73 186l134 121q72 -93 153 -135t188 -42q65 0 124.5 23.5t101 74.5t41.5 120q0 53 -20 96t-59 75.5t-81 55t-100 44.5q-41 16 -62 25t-58 25t-57 28t-50.5 30t-47.5 35t-39 39.5t-34 46.5t-23.5 53.5t-16.5 63.5t-5 72q0 155 122 257.5t294 102.5q133 0 224.5 -42.5 t170.5 -119.5l-124 -117q-71 66 -133.5 95t-141.5 29q-100 0 -166.5 -58t-66.5 -147q0 -90 65.5 -148.5t227.5 -118.5q364 -136 364 -409q0 -82 -27 -149t-71.5 -110.5t-103 -73t-119 -42t-122.5 -12.5q-308 0 -482 212z" />
<glyph unicode="T" horiz-adv-x="1028" d="M45 1212v153h938v-153h-379v-1212h-175v1212h-384z" />
<glyph unicode="U" horiz-adv-x="1299" d="M145 527v838h175v-817q0 -218 88.5 -317t242.5 -99q152 0 241 99.5t89 316.5v817h175v-838q0 -145 -37.5 -252.5t-106 -172.5t-159 -96.5t-202.5 -31.5q-113 0 -203.5 31.5t-159.5 96.5t-106 172.5t-37 252.5z" />
<glyph unicode="V" d="M-11 1365h192l436 -1147l435 1147h192l-553 -1365h-149z" />
<glyph unicode="W" horiz-adv-x="1875" d="M15 1365h183l340 -1118l326 1118h149l325 -1113l339 1113h183l-450 -1365h-141l-332 1129l-331 -1129h-141z" />
<glyph unicode="X" horiz-adv-x="1216" d="M28 0l475 691l-452 674h207l350 -537l352 537h205l-455 -674l478 -691h-215l-365 557l-367 -557h-213z" />
<glyph unicode="Y" horiz-adv-x="1058" d="M-41 1365h205l365 -559l365 559h205l-482 -725v-640h-175v640z" />
<glyph unicode="Z" horiz-adv-x="1162" d="M94 0v130l712 1082h-674v153h896v-130l-721 -1081h762v-154h-975z" />
<glyph unicode="[" horiz-adv-x="593" d="M179 -343v1964h327v-128h-175v-1706h175v-130h-327z" />
<glyph unicode="\" horiz-adv-x="889" d="M-11 1487h143l768 -1743h-143z" />
<glyph unicode="]" horiz-adv-x="593" d="M90 -213h172v1706h-172v128h326v-1964h-326v130z" />
<glyph unicode="^" horiz-adv-x="1064" d="M94 695l365 677h145l367 -677h-169l-269 527l-271 -527h-168z" />
<glyph unicode="_" horiz-adv-x="1009" d="M0 -145h1009v-92h-1009v92z" />
<glyph unicode="`" horiz-adv-x="567" d="M64 1380l173 30l266 -322h-72q-48 0 -91 22.5t-118 101.5z" />
<glyph unicode="a" horiz-adv-x="1186" d="M90 480q0 228 129 367t321 139q219 0 341 -167l26 141h138v-960h-138l-28 143q-121 -164 -339 -164q-192 0 -321 137.5t-129 363.5zM260 480q0 -154 87 -256t227 -102q146 0 234 102t88 256q0 157 -88 260t-234 103q-140 0 -227 -103.5t-87 -259.5z" />
<glyph unicode="b" horiz-adv-x="1171" d="M141 0v1451h166v-610q118 145 324 145q192 0 321.5 -139t129.5 -367q0 -226 -129 -363.5t-322 -137.5q-213 0 -332 155l-22 -134h-136zM275 480q0 -154 88 -256t232 -102q141 0 227.5 102t86.5 256q0 157 -86.5 260t-227.5 103q-144 0 -232 -103t-88 -260z" />
<glyph unicode="c" horiz-adv-x="955" d="M90 480q0 139 61.5 254t176 183.5t259.5 68.5q185 0 324 -109l-100 -118q-96 84 -224 84q-150 0 -238.5 -102.5t-88.5 -260.5q0 -157 88.5 -260t238.5 -103q128 0 224 84l100 -118q-139 -109 -324 -109q-145 0 -259.5 68.5t-176 183.5t-61.5 254z" />
<glyph unicode="d" horiz-adv-x="1171" d="M90 480q0 228 129 367t321 139q203 0 322 -143v608h168v-1451h-136l-21 132q-123 -153 -333 -153q-192 0 -321 137.5t-129 363.5zM260 480q0 -154 87 -256t227 -102q146 0 234 102t88 256q0 157 -88 260t-234 103q-140 0 -227 -103.5t-87 -259.5z" />
<glyph unicode="e" horiz-adv-x="1122" d="M90 480q0 139 61 254.5t172 183.5t249 68q204 0 332.5 -134.5t128.5 -339.5v-62h-768q8 -145 95.5 -236.5t232.5 -91.5q172 0 271 115l119 -98q-64 -75 -166.5 -117.5t-223.5 -42.5q-149 0 -264.5 67.5t-177 181t-61.5 252.5zM275 574h589q-16 126 -93 196.5t-199 70.5 q-114 0 -193.5 -73t-103.5 -194z" />
<glyph unicode="f" horiz-adv-x="631" d="M73 819v141h128v205q0 154 72.5 236t195.5 82q98 0 184 -56l-75 -124q-49 35 -96 35q-63 0 -88 -44.5t-25 -124.5v-209h205v-141h-205v-819h-168v819h-128z" />
<glyph unicode="g" horiz-adv-x="1184" d="M90 480q0 228 129 367t321 139q220 0 343 -171l24 145h136v-881q0 -258 -113.5 -392.5t-342.5 -134.5q-109 0 -207 32l40 147q75 -34 162 -34q151 0 222 95.5t71 292.5v52q-124 -158 -335 -158q-192 0 -321 137.5t-129 363.5zM260 480q0 -153 87 -254.5t227 -101.5 q146 0 234 101t88 255q0 157 -88 260t-234 103q-140 0 -227 -103.5t-87 -259.5z" />
<glyph unicode="h" horiz-adv-x="1102" d="M141 0v1451h166v-613q45 68 123 108t180 40q53 0 102.5 -12t98 -41t83.5 -73t57 -113.5t22 -157.5v-589h-169v561q0 127 -57.5 203.5t-172.5 76.5q-51 0 -96 -14.5t-84 -46t-62 -88.5t-23 -133l-2 13v-572h-166z" />
<glyph unicode="i" horiz-adv-x="499" d="M130 1282q0 48 35.5 84t84.5 36q48 0 82.5 -36t34.5 -84t-34.5 -82.5t-82.5 -34.5q-49 0 -84.5 34.5t-35.5 82.5zM166 0v960h167v-960h-167z" />
<glyph unicode="j" horiz-adv-x="488" d="M-19 -439l13 142q27 -6 51 -6q44 0 77.5 35t33.5 131v1097h168v-1082q0 -85 -19.5 -148t-47 -96t-68 -52.5t-71 -24.5t-67.5 -5q-41 0 -70 9zM122 1282q0 48 35 84t84 36q48 0 82.5 -36t34.5 -84t-34.5 -82.5t-82.5 -34.5q-49 0 -84 34.5t-35 82.5z" />
<glyph unicode="k" horiz-adv-x="1006" d="M141 0v1451h166v-864l408 373h228l-476 -435l536 -525h-231l-465 459v-459h-166z" />
<glyph unicode="l" horiz-adv-x="465" d="M149 0v1451h167v-1451h-167z" />
<glyph unicode="m" horiz-adv-x="1649" d="M141 0v960h145l19 -124q39 72 110.5 111t158.5 39q84 0 159.5 -38t121.5 -120q50 78 123.5 118t194.5 40q51 0 98 -12t93.5 -43t80 -78t54 -122t20.5 -170v-561h-169v555q0 132 -50 209t-154 77q-109 0 -170 -82.5t-61 -233.5v-525h-168v553q0 133 -50 210.5t-153 77.5 q-111 0 -174 -83t-63 -235v-523h-166z" />
<glyph unicode="n" horiz-adv-x="1100" d="M141 0v960h145l21 -119q45 67 122.5 106t178.5 39q53 0 102.5 -12t98 -41t83.5 -73t57 -113.5t22 -157.5v-589h-169v561q0 127 -57.5 203.5t-172.5 76.5q-51 0 -96 -14.5t-84 -46t-62 -88.5t-23 -133v-559h-166z" />
<glyph unicode="o" horiz-adv-x="1190" d="M90 480q0 139 62.5 254t179 183.5t263.5 68.5t263.5 -68.5t179.5 -183.5t63 -254t-63 -254t-179.5 -183.5t-263.5 -68.5t-263.5 68.5t-179 183.5t-62.5 254zM265 480q0 -153 93 -257t237 -104t236.5 104t92.5 257q0 154 -92.5 257.5t-236.5 103.5t-237 -103.5t-93 -257.5 z" />
<glyph unicode="p" horiz-adv-x="1184" d="M141 -448v1408h145l17 -143q121 169 341 169q192 0 321 -139t129 -367q0 -226 -129 -363.5t-321 -137.5q-217 0 -337 160v-587h-166zM286 480q0 -154 89 -256t233 -102q141 0 227.5 102t86.5 256q0 157 -86.5 260t-227.5 103q-145 0 -233.5 -103t-88.5 -260z" />
<glyph unicode="q" horiz-adv-x="1184" d="M90 480q0 228 129 367t321 139q219 0 341 -167l15 141h147v-1408h-168v585q-124 -158 -335 -158q-192 0 -321 137.5t-129 363.5zM260 480q0 -154 87 -256t227 -102q146 0 234 102t88 256q0 157 -88 260t-234 103q-140 0 -227 -103.5t-87 -259.5z" />
<glyph unicode="r" horiz-adv-x="712" d="M141 0v960h143l21 -130q44 80 103.5 118t144.5 38t138 -30l-53 -150q-43 17 -92 17q-112 0 -175.5 -88t-63.5 -212v-523h-166z" />
<glyph unicode="s" horiz-adv-x="893" d="M60 145l123 98q91 -124 248 -124q96 0 147 35.5t51 95.5q0 36 -22 63.5t-58 43.5t-82 32t-94 29t-94 36.5t-82 52t-58 77t-22 111.5q0 132 95.5 211.5t254.5 79.5q96 0 180.5 -36t135.5 -92l-105 -107q-87 90 -203 90h-8q-87 -1 -132 -37.5t-45 -97.5q0 -46 28.5 -78.5 t74 -51.5t100.5 -35t110 -36.5t100.5 -49t74 -79t28.5 -120.5q0 -128 -102 -205t-269 -77q-126 0 -227 47t-148 124z" />
<glyph unicode="t" horiz-adv-x="646" d="M73 819v141h128v275h166v-275h207v-141h-207l2 -819h-168v819h-128z" />
<glyph unicode="u" horiz-adv-x="1088" d="M132 401v559h167v-559q0 -132 64.5 -207t180.5 -75t180.5 75t64.5 207v559h169v-559q0 -96 -24.5 -171t-64 -122.5t-94.5 -78t-111.5 -43t-119.5 -12.5t-119.5 12.5t-111 43t-94 78t-63.5 122.5t-24 171z" />
<glyph unicode="v" horiz-adv-x="1004" d="M21 960h182l300 -762l301 762h182l-414 -960h-139z" />
<glyph unicode="w" horiz-adv-x="1544" d="M34 960h179l258 -740l229 740h145l230 -740l258 740h180l-367 -960h-141l-233 764l-232 -764h-139z" />
<glyph unicode="x" horiz-adv-x="983" d="M30 0l369 499l-333 461h194l231 -335l230 335h196l-332 -461l369 -499h-201l-260 375l-263 -375h-200z" />
<glyph unicode="y" horiz-adv-x="1006" d="M21 960h182l300 -738l301 738h182l-596 -1408h-177l207 471z" />
<glyph unicode="z" horiz-adv-x="977" d="M77 0v124l578 689h-546v147h755v-132l-570 -681h608v-147h-825z" />
<glyph unicode="{" horiz-adv-x="616" d="M94 582v113q62 5 112 48.5t50 122.5v531q0 98 58 161t149 63h124v-128h-56q-68 0 -96 -19.5t-28 -86.5v-534q0 -87 -49.5 -142.5t-110.5 -70.5q61 -15 110.5 -70.5t49.5 -144.5v-532q0 -67 28 -86.5t96 -19.5h56v-130h-124q-91 0 -149 63.5t-58 160.5v531q0 79 -50 122 t-112 48z" />
<glyph unicode="|" horiz-adv-x="492" d="M179 -341v1856h135v-1856h-135z" />
<glyph unicode="}" horiz-adv-x="616" d="M30 -213h53q68 0 96 19.5t28 86.5v532q0 89 50 144.5t112 70.5q-62 15 -112 70t-50 143v534q0 67 -28 86.5t-96 19.5h-53v128h124q89 0 148 -63.5t59 -160.5v-531q0 -79 50 -122.5t112 -48.5v-113q-62 -5 -112 -48t-50 -122v-531q0 -96 -59 -160t-148 -64h-124v130z" />
<glyph unicode="~" horiz-adv-x="987" d="M113 578q1 1 15 23t18.5 28t20 26.5t25.5 28.5t29 22.5t36.5 21t41 12t49.5 5.5q47 0 89 -17t68 -37.5t61 -37.5t70 -17q41 0 65.5 25.5t45.5 72.5l132 -71q-85 -174 -235 -174q-47 0 -87.5 17t-64 37t-56.5 37t-67 17q-48 0 -78 -25.5t-56 -70.5z" />
<glyph unicode="&#xa1;" horiz-adv-x="505" d="M134 868q0 48 35.5 83t84.5 35q48 0 82.5 -35t34.5 -83q0 -49 -34.5 -84t-82.5 -35q-50 0 -85 35t-35 84zM154 -397l29 1001h139l28 -1001h-196z" />
<glyph unicode="&#xa2;" horiz-adv-x="955" d="M90 683q0 139 61.5 254t176 183t259.5 68h21l36 177h109l-38 -192q106 -24 196 -94l-100 -117q-51 48 -126 71l-143 -711q15 -2 45 -2q130 0 224 83l100 -117q-139 -109 -324 -109q-23 0 -75 4l-36 -181h-109l43 207q-147 52 -233.5 181.5t-86.5 294.5zM260 683 q0 -112 47 -200t132 -129l141 691q-147 -3 -233.5 -105t-86.5 -257z" />
<glyph unicode="&#xa3;" horiz-adv-x="1147" d="M94 0v122l185 19v484h-185v134h185v160q0 227 124 352.5t324 125.5q186 0 327 -121l-96 -124q-95 98 -231 98q-129 0 -204 -84t-75 -247v-160h489v-134h-489v-480h574v-145h-928z" />
<glyph unicode="&#xa4;" horiz-adv-x="1241" d="M141 318l143 145q-69 106 -69 230q0 132 73 235l-147 145l102 100l145 -145q99 73 235 73q134 0 235 -71l143 143l100 -100l-143 -143q72 -104 72 -237q0 -132 -74 -239l145 -134l-98 -105l-150 139q-101 -68 -230 -68q-134 0 -239 75l-143 -143zM371 693 q0 -112 72.5 -188t179.5 -76t179.5 76t72.5 188q0 113 -72.5 190t-179.5 77t-179.5 -77t-72.5 -190z" />
<glyph unicode="&#xa5;" horiz-adv-x="1209" d="M38 1365h195l373 -580l373 580h194l-458 -689h292v-128h-316v-113h316v-130h-316v-305h-168v305h-320v130h320v113h-320v128h294z" />
<glyph unicode="&#xa6;" horiz-adv-x="492" d="M179 -160v608h135v-608h-135zM179 725v608h135v-608h-135z" />
<glyph unicode="&#xa7;" horiz-adv-x="996" d="M73 -169l104 114q33 -54 109 -98.5t171 -47.5q107 -1 166 44.5t62 111.5q3 73 -47 127t-184 121l-21 12q-36 20 -56.5 32.5t-60 38.5t-63.5 47.5t-55 55t-49 65.5t-30 74t-12 86q2 85 41 154t114 109q-113 97 -113 228q2 121 89 205t248 87q100 1 190.5 -36t138.5 -83 l-100 -113q-37 38 -96 69.5t-122 32.5q-84 0 -140 -46t-58 -112q-1 -63 64 -121t222 -135q149 -76 226 -181t70 -218q-6 -171 -143 -256q108 -102 100 -247q-8 -144 -114.5 -218t-269.5 -74q-119 0 -222.5 53t-158.5 119zM254 629q-2 -77 74.5 -152.5t256.5 -175.5 q3 -1 8.5 -4.5t8.5 -4.5q121 47 128 171q3 85 -55 147.5t-221 146.5l-51 28q-67 -17 -107 -59t-42 -97z" />
<glyph unicode="&#xa8;" horiz-adv-x="714" d="M64 1222q0 44 29.5 75.5t72.5 31.5q44 0 76.5 -32t32.5 -75q0 -44 -32.5 -75t-76.5 -31q-43 0 -72.5 30.5t-29.5 75.5zM442 1222q0 44 29.5 75.5t72.5 31.5q44 0 76.5 -32t32.5 -75q0 -44 -32.5 -75t-76.5 -31q-43 0 -72.5 30.5t-29.5 75.5z" />
<glyph unicode="&#xa9;" horiz-adv-x="1608" d="M94 687q0 145 52.5 275.5t145 226t226 152t286.5 56.5q202 0 365.5 -96t254.5 -258t91 -356q0 -195 -91.5 -358t-255 -259t-364.5 -96q-153 0 -286.5 56.5t-226 152.5t-145 227t-52.5 277zM207 687q0 -123 42.5 -233t118.5 -192.5t189 -130.5t247 -48q173 0 311 82.5 t212.5 220t74.5 301.5q0 121 -43.5 230.5t-120.5 192t-190 131t-244 48.5q-133 0 -246.5 -48.5t-189.5 -131t-118.5 -192t-42.5 -230.5zM393 687q0 181 118.5 302.5t307.5 121.5q146 0 252 -74l-70 -111q-72 53 -182 53q-125 0 -202 -85t-77 -209t77 -210.5t202 -86.5 q108 0 182 54l70 -107q-107 -75 -252 -75q-189 0 -307.5 122.5t-118.5 304.5z" />
<glyph unicode="&#xaa;" horiz-adv-x="898" d="M90 1033q0 166 96 265t241 99q163 0 247 -132l17 124h118v-711h-118l-17 107q-77 -115 -247 -115q-145 0 -241 99.5t-96 263.5zM122 435v122h684v-122h-684zM245 1033q0 -99 59 -165t153 -66q103 0 166.5 66t63.5 165q0 100 -63.5 166t-166.5 66q-95 0 -153.5 -66 t-58.5 -166z" />
<glyph unicode="&#xab;" horiz-adv-x="964" d="M90 516l317 380h165l-325 -380l325 -379h-165zM393 516l317 380h167l-324 -380l324 -379h-167z" />
<glyph unicode="&#xac;" horiz-adv-x="994" d="M113 638v134h770v-388h-134v254h-636z" />
<glyph unicode="&#xad;" horiz-adv-x="744" d="M113 467v147h521v-147h-521z" />
<glyph unicode="&#xae;" horiz-adv-x="1021" d="M64 954q0 186 126 314.5t320 128.5q196 0 322 -128t126 -315q0 -188 -126 -317t-322 -129q-194 0 -320 129t-126 317zM139 954q0 -156 103 -264t268 -108q166 0 269.5 108t103.5 264q0 155 -103.5 262t-269.5 107q-165 0 -268 -107t-103 -262zM341 713v475h194 q64 0 111 -37.5t47 -105.5q0 -59 -36 -94t-90 -44l150 -194h-128l-137 189h-15v-189h-96zM437 986h75q70 0 70 53q0 58 -70 58h-75v-111z" />
<glyph unicode="&#xaf;" horiz-adv-x="714" d="M64 1382v116h587v-116h-587z" />
<glyph unicode="&#xb0;" horiz-adv-x="723" d="M64 1101q0 122 87 209t210 87q124 0 211 -87t87 -209q0 -125 -87 -212t-211 -87q-123 0 -210 87.5t-87 211.5zM192 1101q0 -74 49.5 -125.5t119.5 -51.5q71 0 121.5 52t50.5 125q0 72 -50.5 122.5t-121.5 50.5q-70 0 -119.5 -50.5t-49.5 -122.5z" />
<glyph unicode="&#xb1;" horiz-adv-x="1092" d="M113 0v145h868v-145h-868zM113 548v145h361v363h145v-363h362v-145h-362v-360h-145v360h-361z" />
<glyph unicode="&#xb2;" horiz-adv-x="750" d="M81 1427q40 64 118.5 118.5t178.5 54.5q122 0 201.5 -69.5t79.5 -184.5q0 -124 -102 -226l-226 -226h339v-126h-580v83l328 333q43 40 66.5 76t23.5 80q0 58 -34.5 96t-100.5 38q-19 0 -37 -3.5t-35 -14t-27.5 -16.5t-27 -24t-21 -23t-21.5 -27l-18 -22z" />
<glyph unicode="&#xb3;" horiz-adv-x="782" d="M73 864l83 105q26 -27 49 -45t66.5 -34.5t95.5 -16.5q77 0 121 32.5t47 88.5q4 47 -14 78t-60 54q-77 36 -196 -8l-56 92l233 243h-320v126h535v-66l-260 -271q77 3 143.5 -23t108.5 -83t40 -135q-2 -114 -87 -184t-233 -70q-91 0 -157 28t-139 89z" />
<glyph unicode="&#xb4;" horiz-adv-x="567" d="M64 1088l267 322l172 -30l-157 -168q-75 -79 -118.5 -101.5t-90.5 -22.5h-73z" />
<glyph unicode="&#xb5;" horiz-adv-x="1107" d="M141 -405v1365h166v-559q0 -128 58 -205t175 -77q100 0 174 73.5t86 232.5v535h169v-960h-148l-21 115q-54 -71 -127 -106t-150 -35q-108 0 -220 90l-17 -469h-145z" />
<glyph unicode="&#xb6;" horiz-adv-x="1024" d="M68 994q0 159 89.5 265t226.5 106h461v-1685h-128v1570h-190v-1570h-130v941h-13q-137 0 -226.5 107t-89.5 266z" />
<glyph unicode="&#xb7;" horiz-adv-x="518" d="M141 587q0 48 34.5 83.5t82.5 35.5q49 0 84.5 -35.5t35.5 -83.5t-35.5 -84t-84.5 -36q-48 0 -82.5 36t-34.5 84z" />
<glyph unicode="&#xb8;" horiz-adv-x="695" d="M113 -371l45 89q49 -32 141 -38q63 -1 92 24t29 59t-30 51t-70.5 14.5t-76.5 -18.5l-55 49l134 188h81v-32l-89 -124q30 25 102 17q63 -7 104 -46.5t41 -108.5q0 -73 -66 -122t-181 -49q-65 0 -119 14.5t-82 32.5z" />
<glyph unicode="&#xb9;" horiz-adv-x="488" d="M-21 1417l258 162h136l-2 -811h-145v653l-185 -115z" />
<glyph unicode="&#xba;" horiz-adv-x="917" d="M90 1033q0 151 104 257.5t265 106.5t265 -106.5t104 -257.5q0 -155 -103.5 -260t-265.5 -105t-265.5 105t-103.5 260zM107 435v122h704v-122h-704zM245 1033q0 -97 59.5 -165t154.5 -68t154 68t59 165t-59 164.5t-154 67.5t-154.5 -67.5t-59.5 -164.5z" />
<glyph unicode="&#xbb;" horiz-adv-x="964" d="M90 137l324 379l-324 380h164l318 -380l-318 -379h-164zM393 137l324 379l-324 380h166l316 -380l-316 -379h-166z" />
<glyph unicode="&#xbf;" horiz-adv-x="881" d="M21 -43q-1 79 23 145t63 109.5t91 76t102 48.5t101 22v248h162v-369q-74 1 -138.5 -14.5t-116.5 -46.5t-81.5 -84t-28.5 -122q1 -110 76 -179.5t189 -69.5q103 0 171.5 43.5t105.5 98.5l120 -96q-153 -194 -401 -194q-119 0 -217.5 45.5t-159 134t-61.5 204.5zM365 870 q0 48 34.5 83t82.5 35q49 0 84.5 -35t35.5 -83q0 -49 -35 -84t-85 -35q-48 0 -82.5 35t-34.5 84z" />
<glyph unicode="&#xc0;" d="M-11 0l540 1365h175l540 -1365h-188l-147 386l-587 -2l-145 -384h-188zM378 529h477l-238 632zM378 1764l172 30l267 -322h-72q-48 0 -91.5 22.5t-118.5 101.5z" />
<glyph unicode="&#xc1;" d="M-11 0l540 1365h175l540 -1365h-188l-147 386l-587 -2l-145 -384h-188zM378 529h477l-238 632zM457 1472l266 322l173 -30l-160 -168q-75 -79 -117.5 -101.5t-89.5 -22.5h-72z" />
<glyph unicode="&#xc2;" d="M-11 0l540 1365h175l540 -1365h-188l-147 386l-587 -2l-145 -384h-188zM311 1474l229 248h155l231 -248h-113q-36 0 -56.5 9.5t-46.5 35.5l-91 90l-94 -90q-28 -26 -47.5 -35.5t-52.5 -9.5h-114zM378 529h477l-238 632z" />
<glyph unicode="&#xc3;" d="M-11 0l540 1365h175l540 -1365h-188l-147 386l-587 -2l-145 -384h-188zM301 1551q1 2 14 21.5t18.5 26.5t20 24.5t26.5 25.5t30 18.5t39.5 15t45.5 4.5q49 0 90.5 -22.5t77.5 -44.5t71 -22q58 0 94 81l109 -58q-73 -145 -197 -145q-39 0 -72.5 14t-53 31t-47 31t-55.5 14 q-67 0 -111 -79zM378 529h477l-238 632z" />
<glyph unicode="&#xc4;" d="M-11 0l540 1365h175l540 -1365h-188l-147 386l-587 -2l-145 -384h-188zM322 1604q0 44 30 75.5t73 31.5t74.5 -31.5t31.5 -75.5q0 -45 -31 -75.5t-75 -30.5t-73.5 30.5t-29.5 75.5zM378 529h477l-238 632zM700 1604q0 44 29.5 75.5t72.5 31.5q44 0 75.5 -31.5t31.5 -75.5 q0 -45 -31.5 -75.5t-75.5 -30.5q-43 0 -72.5 30.5t-29.5 75.5z" />
<glyph unicode="&#xc5;" d="M-11 0l540 1365h175l540 -1365h-188l-147 386l-587 -2l-145 -384h-188zM378 529h477l-238 632zM386 1655q0 93 67.5 160t163.5 67t164 -67t68 -160t-68 -158.5t-164 -65.5t-163.5 65.5t-67.5 158.5zM497 1655q0 -47 35.5 -80t84.5 -33t83 33t34 80t-34 79t-83 32 q-50 0 -85 -32.5t-35 -78.5z" />
<glyph unicode="&#xc6;" horiz-adv-x="1651" d="M-11 0l540 1372h1007v-152h-794l133 -465h554v-145h-514l130 -459h491v-151h-636l-96 384h-488l-139 -384h-188zM367 529h399l-164 651z" />
<glyph unicode="&#xc7;" horiz-adv-x="1297" d="M94 687q0 198 88 359.5t251 256t371 94.5q241 0 421 -128l-94 -140q-137 110 -327 110q-158 0 -279.5 -75.5t-184.5 -200.5t-63 -276t63 -276.5t185 -202t279 -76.5q189 0 327 111l94 -141q-180 -128 -421 -128h-15l-62 -83q34 25 105 17q63 -7 104 -46.5t41 -108.5 q0 -73 -67 -122t-183 -49q-64 0 -117 14.5t-81 32.5l45 89q49 -32 141 -38q63 -1 92 24t29 59t-30 51t-70.5 14.5t-76.5 -18.5l-55 49l87 124q-178 24 -314 122.5t-209.5 250t-73.5 331.5z" />
<glyph unicode="&#xc8;" horiz-adv-x="1090" d="M179 0v1365h796v-151h-621v-459h514v-145h-514v-459h621v-151h-796zM333 1764l173 30l266 -322h-72q-48 0 -91 22.5t-118 101.5z" />
<glyph unicode="&#xc9;" horiz-adv-x="1090" d="M179 0v1365h796v-151h-621v-459h514v-145h-514v-459h621v-151h-796zM410 1472l266 322l173 -30l-160 -168q-75 -79 -117.5 -101.5t-89.5 -22.5h-72z" />
<glyph unicode="&#xca;" horiz-adv-x="1090" d="M179 0v1365h796v-151h-621v-459h514v-145h-514v-459h621v-151h-796zM267 1474l228 248h156l230 -248h-113q-36 0 -55.5 9t-46.5 36l-92 90l-94 -90q-28 -26 -47.5 -35.5t-52.5 -9.5h-113z" />
<glyph unicode="&#xcb;" horiz-adv-x="1090" d="M179 0v1365h796v-151h-621v-459h514v-145h-514v-459h621v-151h-796zM277 1604q0 44 30 75.5t73 31.5t74.5 -31.5t31.5 -75.5q0 -45 -31 -75.5t-75 -30.5t-73.5 30.5t-29.5 75.5zM655 1604q0 44 29.5 75.5t72.5 31.5t75 -31.5t32 -75.5q0 -45 -31.5 -75.5t-75.5 -30.5 q-43 0 -72.5 30.5t-29.5 75.5z" />
<glyph unicode="&#xcc;" horiz-adv-x="531" d="M28 1764l173 30l266 -322h-72q-48 0 -91 22.5t-118 101.5zM179 0v1365h175v-1365h-175z" />
<glyph unicode="&#xcd;" horiz-adv-x="531" d="M105 1472l266 322l173 -30l-160 -168q-75 -79 -117.5 -101.5t-89.5 -22.5h-72zM179 0v1365h175v-1365h-175z" />
<glyph unicode="&#xce;" horiz-adv-x="531" d="M-38 1474l228 248h156l230 -248h-113q-36 0 -55.5 9t-46.5 36l-92 92l-94 -92q-28 -26 -47.5 -35.5t-52.5 -9.5h-113zM179 0v1365h175v-1365h-175z" />
<glyph unicode="&#xcf;" horiz-adv-x="531" d="M-28 1604q0 44 30 75.5t73 31.5t74.5 -31.5t31.5 -75.5q0 -45 -31 -75.5t-75 -30.5t-73.5 30.5t-29.5 75.5zM179 0v1365h175v-1365h-175zM350 1604q0 44 29.5 75.5t72.5 31.5q44 0 75.5 -31.5t31.5 -75.5q0 -45 -31.5 -75.5t-75.5 -30.5q-43 0 -72.5 30.5t-29.5 75.5z " />
<glyph unicode="&#xd0;" horiz-adv-x="1380" d="M58 629v116h121v620h371q177 0 318.5 -53t232 -145.5t138 -215.5t47.5 -266q0 -144 -47.5 -267.5t-138 -217t-232 -147t-318.5 -53.5h-371v629h-121zM354 141h162q149 0 262 39.5t183.5 112t106 171t35.5 221.5q0 122 -35.5 220t-106 170t-183.5 111t-262 39h-162v-480 h290v-116h-290v-488z" />
<glyph unicode="&#xd1;" horiz-adv-x="1465" d="M179 0v1365h164l773 -1073v1073h170v-1365h-166l-770 1077v-1077h-171zM416 1551q1 2 14 21.5t18.5 26.5t20 24.5t26.5 25.5t30 18.5t39.5 15t45.5 4.5q49 0 90.5 -22.5t77.5 -44.5t71 -22q58 0 94 81l109 -58q-72 -145 -197 -145q-39 0 -72.5 14t-53 31t-47 31t-55.5 14 q-67 0 -111 -79z" />
<glyph unicode="&#xd2;" horiz-adv-x="1614" d="M94 687q0 198 88 359.5t251.5 256t372.5 94.5q158 0 292.5 -55.5t226.5 -150.5t144 -225.5t52 -278.5t-52 -279t-144 -227t-226.5 -151.5t-292.5 -55.5q-209 0 -372.5 95.5t-251.5 257.5t-88 360zM277 687q0 -113 37.5 -214t105 -176.5t168 -120t218.5 -44.5 q158 0 280.5 76t187 202t64.5 277q0 152 -64.5 277t-187 200t-280.5 75q-119 0 -219 -43.5t-167.5 -118.5t-105 -176t-37.5 -214zM570 1764l170 30l269 -322h-75q-47 0 -89.5 22.5t-117.5 101.5z" />
<glyph unicode="&#xd3;" horiz-adv-x="1614" d="M94 687q0 198 88 359.5t251.5 256t372.5 94.5q158 0 292.5 -55.5t226.5 -150.5t144 -225.5t52 -278.5t-52 -279t-144 -227t-226.5 -151.5t-292.5 -55.5q-209 0 -372.5 95.5t-251.5 257.5t-88 360zM277 687q0 -113 37.5 -214t105 -176.5t168 -120t218.5 -44.5 q158 0 280.5 76t187 202t64.5 277q0 152 -64.5 277t-187 200t-280.5 75q-119 0 -219 -43.5t-167.5 -118.5t-105 -176t-37.5 -214zM646 1472l267 322l173 -30l-160 -168q-73 -79 -116.5 -101.5t-90.5 -22.5h-73z" />
<glyph unicode="&#xd4;" horiz-adv-x="1614" d="M94 687q0 198 88 359.5t251.5 256t372.5 94.5q158 0 292.5 -55.5t226.5 -150.5t144 -225.5t52 -278.5t-52 -279t-144 -227t-226.5 -151.5t-292.5 -55.5q-209 0 -372.5 95.5t-251.5 257.5t-88 360zM277 687q0 -113 37.5 -214t105 -176.5t168 -120t218.5 -44.5 q158 0 280.5 76t187 202t64.5 277q0 152 -64.5 277t-187 200t-280.5 75q-119 0 -219 -43.5t-167.5 -118.5t-105 -176t-37.5 -214zM503 1474l229 248h155l231 -248h-113q-36 0 -56.5 9.5t-46.5 35.5l-91 92l-94 -92q-28 -26 -47.5 -35.5t-52.5 -9.5h-114z" />
<glyph unicode="&#xd5;" horiz-adv-x="1614" d="M94 687q0 198 88 359.5t251.5 256t372.5 94.5q158 0 292.5 -55.5t226.5 -150.5t144 -225.5t52 -278.5t-52 -279t-144 -227t-226.5 -151.5t-292.5 -55.5q-209 0 -372.5 95.5t-251.5 257.5t-88 360zM277 687q0 -113 37.5 -214t105 -176.5t168 -120t218.5 -44.5 q158 0 280.5 76t187 202t64.5 277q0 152 -64.5 277t-187 200t-280.5 75q-119 0 -219 -43.5t-167.5 -118.5t-105 -176t-37.5 -214zM491 1551q1 2 14 21.5t18.5 26.5t20 24.5t26.5 25.5t30 18.5t39.5 15t45.5 4.5q49 0 90.5 -22.5t77.5 -44.5t71 -22q58 0 94 81l108 -58 q-72 -145 -196 -145q-39 0 -72.5 14t-53 31t-47 31t-55.5 14q-67 0 -111 -79z" />
<glyph unicode="&#xd6;" horiz-adv-x="1614" d="M94 687q0 198 88 359.5t251.5 256t372.5 94.5q158 0 292.5 -55.5t226.5 -150.5t144 -225.5t52 -278.5t-52 -279t-144 -227t-226.5 -151.5t-292.5 -55.5q-209 0 -372.5 95.5t-251.5 257.5t-88 360zM277 687q0 -113 37.5 -214t105 -176.5t168 -120t218.5 -44.5 q158 0 280.5 76t187 202t64.5 277q0 152 -64.5 277t-187 200t-280.5 75q-119 0 -219 -43.5t-167.5 -118.5t-105 -176t-37.5 -214zM512 1604q0 44 31 75.5t74 31.5t74.5 -31.5t31.5 -75.5q0 -45 -31 -75.5t-75 -30.5t-74.5 30.5t-30.5 75.5zM890 1604q0 44 30.5 75.5 t73.5 31.5q44 0 75.5 -31.5t31.5 -75.5q0 -45 -31.5 -75.5t-75.5 -30.5t-74 30.5t-30 75.5z" />
<glyph unicode="&#xd7;" horiz-adv-x="940" d="M113 286l256 256l-254 256l103 102l256 -254l253 254l103 -102l-254 -254l256 -256l-105 -105l-256 256l-256 -256z" />
<glyph unicode="&#xd8;" horiz-adv-x="1614" d="M94 687q0 198 88 359.5t251.5 256t372.5 94.5q254 0 440 -138l153 170l88 -72l-156 -173q92 -96 141 -224t49 -273q0 -148 -52 -279t-144 -227t-226.5 -151.5t-292.5 -55.5q-258 0 -441 141l-154 -170l-85 74l156 173q-90 97 -139 224t-49 271zM277 687q0 -214 122 -365 l734 811q-140 106 -327 106q-119 0 -219 -43.5t-167.5 -118.5t-105 -176t-37.5 -214zM480 241q136 -109 326 -109q158 0 280.5 76t187 202t64.5 277q0 213 -124 367z" />
<glyph unicode="&#xd9;" horiz-adv-x="1299" d="M145 527v838h175v-817q0 -218 88.5 -317t242.5 -99q152 0 241 99.5t89 316.5v817h175v-838q0 -145 -37.5 -252.5t-106 -172.5t-159 -96.5t-202.5 -31.5q-113 0 -203.5 31.5t-159.5 96.5t-106 172.5t-37 252.5zM412 1764l173 30l266 -322h-72q-48 0 -91 22.5t-118 101.5z " />
<glyph unicode="&#xda;" horiz-adv-x="1299" d="M145 527v838h175v-817q0 -218 88.5 -317t242.5 -99q152 0 241 99.5t89 316.5v817h175v-838q0 -145 -37.5 -252.5t-106 -172.5t-159 -96.5t-202.5 -31.5q-113 0 -203.5 31.5t-159.5 96.5t-106 172.5t-37 252.5zM489 1472l266 322l173 -30l-160 -168q-75 -79 -117.5 -101.5 t-89.5 -22.5h-72z" />
<glyph unicode="&#xdb;" horiz-adv-x="1299" d="M145 527v838h175v-817q0 -218 88.5 -317t242.5 -99q152 0 241 99.5t89 316.5v817h175v-838q0 -145 -37.5 -252.5t-106 -172.5t-159 -96.5t-202.5 -31.5q-113 0 -203.5 31.5t-159.5 96.5t-106 172.5t-37 252.5zM346 1474l228 248h156l230 -248h-113q-36 0 -55.5 9 t-46.5 36l-92 92l-94 -92q-28 -26 -47.5 -35.5t-52.5 -9.5h-113z" />
<glyph unicode="&#xdc;" horiz-adv-x="1299" d="M145 527v838h175v-817q0 -218 88.5 -317t242.5 -99q152 0 241 99.5t89 316.5v817h175v-838q0 -145 -37.5 -252.5t-106 -172.5t-159 -96.5t-202.5 -31.5q-113 0 -203.5 31.5t-159.5 96.5t-106 172.5t-37 252.5zM356 1604q0 44 30 75.5t73 31.5t74.5 -31.5t31.5 -75.5 q0 -45 -31 -75.5t-75 -30.5t-73.5 30.5t-29.5 75.5zM734 1604q0 44 29.5 75.5t72.5 31.5q44 0 75.5 -31.5t31.5 -75.5q0 -45 -31.5 -75.5t-75.5 -30.5q-43 0 -72.5 30.5t-29.5 75.5z" />
<glyph unicode="&#xdd;" horiz-adv-x="1058" d="M-41 1365h205l365 -559l365 559h205l-482 -725v-640h-175v640zM369 1472l267 322l173 -30l-160 -168q-75 -79 -117.5 -101.5t-89.5 -22.5h-73z" />
<glyph unicode="&#xde;" horiz-adv-x="1066" d="M179 0v1363l175 2v-254l237 -2q69 -1 138.5 -26.5t129.5 -73t97.5 -125.5t37.5 -174t-37.5 -174t-97.5 -125.5t-129.5 -73t-138.5 -26.5l-237 -2v-309h-175zM354 452l162 -2q140 -2 218.5 67t78.5 193q0 123 -79 192.5t-218 68.5l-162 -2v-517z" />
<glyph unicode="&#xdf;" horiz-adv-x="1120" d="M169 0v956q0 132 34 229t94.5 151.5t133.5 80t160 25.5q151 0 259 -98t108 -250q0 -70 -20.5 -130t-54 -99t-68 -64.5t-70.5 -38.5q131 -29 214.5 -120t83.5 -243q0 -148 -72 -248t-195 -139.5t-281 -20.5l-26 158q184 -20 290 42t107 206q1 75 -29 131.5t-82 89.5 t-114.5 49t-132.5 16h-39v140h47q121 0 197 71t76 188q-1 98 -67.5 153.5t-147.5 55.5q-115 0 -177 -91.5t-62 -243.5v-956h-166z" />
<glyph unicode="&#xe0;" horiz-adv-x="1186" d="M90 480q0 228 129 367t321 139q219 0 341 -167l26 141h138v-960h-138l-28 143q-121 -164 -339 -164q-192 0 -321 137.5t-129 363.5zM260 480q0 -154 87 -256t227 -102q146 0 234 102t88 256q0 157 -88 260t-234 103q-140 0 -227 -103.5t-87 -259.5zM356 1425l171 30 l269 -324h-73q-49 0 -91.5 22t-117.5 101z" />
<glyph unicode="&#xe1;" horiz-adv-x="1186" d="M90 480q0 228 129 367t321 139q219 0 341 -167l26 141h138v-960h-138l-28 143q-121 -164 -339 -164q-192 0 -321 137.5t-129 363.5zM260 480q0 -154 87 -256t227 -102q146 0 234 102t88 256q0 157 -88 260t-234 103q-140 0 -227 -103.5t-87 -259.5zM433 1131l267 324 l173 -30l-160 -171q-73 -78 -116 -100.5t-91 -22.5h-73z" />
<glyph unicode="&#xe2;" horiz-adv-x="1186" d="M90 480q0 228 129 367t321 139q219 0 341 -167l26 141h138v-960h-138l-28 143q-121 -164 -339 -164q-192 0 -321 137.5t-129 363.5zM260 480q0 -154 87 -256t227 -102q146 0 234 102t88 256q0 157 -88 260t-234 103q-140 0 -227 -103.5t-87 -259.5zM290 1133l228 247h156 l231 -247h-114q-36 0 -55.5 9t-46.5 36l-92 91l-94 -91q-28 -26 -47.5 -35.5t-52.5 -9.5h-113z" />
<glyph unicode="&#xe3;" horiz-adv-x="1186" d="M90 480q0 228 129 367t321 139q219 0 341 -167l26 141h138v-960h-138l-28 143q-121 -164 -339 -164q-192 0 -321 137.5t-129 363.5zM260 480q0 -154 87 -256t227 -102q146 0 234 102t88 256q0 157 -88 260t-234 103q-140 0 -227 -103.5t-87 -259.5zM277 1212q1 2 14 21.5 t18.5 26.5t20 24.5t26.5 25.5t30 18.5t39.5 15t45.5 4.5q39 0 73.5 -14t56.5 -30.5t51 -30.5t58 -14q58 0 94 81l109 -58q-68 -147 -196 -147q-39 0 -72.5 14t-53 31t-47 31t-55.5 14q-67 0 -111 -79z" />
<glyph unicode="&#xe4;" horiz-adv-x="1186" d="M90 480q0 228 129 367t321 139q219 0 341 -167l26 141h138v-960h-138l-28 143q-121 -164 -339 -164q-192 0 -321 137.5t-129 363.5zM260 480q0 -154 87 -256t227 -102q146 0 234 102t88 256q0 157 -88 260t-234 103q-140 0 -227 -103.5t-87 -259.5zM301 1265 q0 44 29.5 74.5t72.5 30.5q44 0 75.5 -31t31.5 -74q0 -46 -31.5 -77.5t-75.5 -31.5t-73 31.5t-29 77.5zM676 1265q0 43 31 74t74 31q44 0 75 -31t31 -74q0 -46 -31 -77.5t-75 -31.5t-74.5 31.5t-30.5 77.5z" />
<glyph unicode="&#xe5;" horiz-adv-x="1186" d="M90 480q0 228 129 367t321 139q219 0 341 -167l26 141h138v-960h-138l-28 143q-121 -164 -339 -164q-192 0 -321 137.5t-129 363.5zM260 480q0 -154 87 -256t227 -102q146 0 234 102t88 256q0 157 -88 260t-234 103q-140 0 -227 -103.5t-87 -259.5zM363 1316 q0 93 67 158.5t163 65.5q97 0 165 -65.5t68 -158.5q0 -95 -68 -160.5t-165 -65.5q-96 0 -163 66t-67 160zM474 1316q0 -47 35 -80t84 -33t83 33t34 80t-34 79t-83 32q-50 0 -84.5 -32.5t-34.5 -78.5z" />
<glyph unicode="&#xe6;" horiz-adv-x="1932" d="M90 480q0 228 129 367t321 139q219 0 341 -167l26 141h138v-113q139 139 340 139q203 0 331.5 -134.5t128.5 -339.5v-62h-768q8 -145 95.5 -236.5t231.5 -91.5q175 0 271 115l121 -98q-66 -76 -168 -118t-224 -42q-218 0 -359 138v-117h-138l-28 143q-121 -164 -339 -164 q-192 0 -321 137.5t-129 363.5zM260 480q0 -154 87 -256t227 -102q146 0 234 102t88 256q0 157 -88 260t-234 103q-140 0 -227 -103.5t-87 -259.5zM1088 574h589q-16 126 -93 196.5t-199 70.5q-114 0 -193.5 -73t-103.5 -194z" />
<glyph unicode="&#xe7;" horiz-adv-x="955" d="M90 480q0 139 61.5 254t176 183.5t259.5 68.5q185 0 324 -109l-100 -118q-96 84 -224 84q-150 0 -238.5 -102.5t-88.5 -260.5q0 -157 88.5 -260t238.5 -103q128 0 224 84l100 -118q-134 -103 -305 -109l-62 -83q34 25 105 17q63 -7 104 -46.5t41 -108.5q0 -73 -67 -122 t-183 -49q-64 0 -117 14.5t-81 32.5l44 89q49 -32 141 -38q63 -1 92.5 24t29.5 59t-30 51t-70.5 14.5t-76.5 -18.5l-56 49l88 122q-188 27 -303 166.5t-115 332.5z" />
<glyph unicode="&#xe8;" horiz-adv-x="1122" d="M90 480q0 139 61 254.5t172 183.5t249 68q204 0 332.5 -134.5t128.5 -339.5v-62h-768q8 -145 95.5 -236.5t232.5 -91.5q172 0 271 115l119 -98q-64 -75 -166.5 -117.5t-223.5 -42.5q-149 0 -264.5 67.5t-177 181t-61.5 252.5zM275 574h589q-16 126 -93 196.5t-199 70.5 q-114 0 -193.5 -73t-103.5 -194zM335 1423l173 30l266 -322h-72q-49 0 -91.5 22t-117.5 101z" />
<glyph unicode="&#xe9;" horiz-adv-x="1122" d="M90 480q0 139 61 254.5t172 183.5t249 68q204 0 332.5 -134.5t128.5 -339.5v-62h-768q8 -145 95.5 -236.5t232.5 -91.5q172 0 271 115l119 -98q-64 -75 -166.5 -117.5t-223.5 -42.5q-149 0 -264.5 67.5t-177 181t-61.5 252.5zM275 574h589q-16 126 -93 196.5t-199 70.5 q-114 0 -193.5 -73t-103.5 -194zM412 1131l266 322l173 -30l-160 -169q-75 -79 -117.5 -101t-89.5 -22h-72z" />
<glyph unicode="&#xea;" horiz-adv-x="1122" d="M90 480q0 139 61 254.5t172 183.5t249 68q204 0 332.5 -134.5t128.5 -339.5v-62h-768q8 -145 95.5 -236.5t232.5 -91.5q172 0 271 115l119 -98q-64 -75 -166.5 -117.5t-223.5 -42.5q-149 0 -264.5 67.5t-177 181t-61.5 252.5zM269 1133l228 247h156l230 -247h-113 q-36 0 -55.5 9t-46.5 36l-92 91l-94 -91q-28 -26 -47.5 -35.5t-52.5 -9.5h-113zM275 574h589q-16 126 -93 196.5t-199 70.5q-114 0 -193.5 -73t-103.5 -194z" />
<glyph unicode="&#xeb;" horiz-adv-x="1122" d="M90 480q0 139 61 254.5t172 183.5t249 68q204 0 332.5 -134.5t128.5 -339.5v-62h-768q8 -145 95.5 -236.5t232.5 -91.5q172 0 271 115l119 -98q-64 -75 -166.5 -117.5t-223.5 -42.5q-149 0 -264.5 67.5t-177 181t-61.5 252.5zM275 574h589q-16 126 -93 196.5t-199 70.5 q-114 0 -193.5 -73t-103.5 -194zM279 1263q0 44 30 75.5t73 31.5q44 0 75.5 -32t31.5 -75q0 -45 -31.5 -76t-75.5 -31q-43 0 -73 31t-30 76zM657 1263q0 44 29.5 75.5t72.5 31.5t75 -32t32 -75q0 -45 -31.5 -76t-75.5 -31q-43 0 -72.5 31t-29.5 76z" />
<glyph unicode="&#xec;" horiz-adv-x="499" d="M11 1423l172 30l267 -322h-72q-49 0 -91.5 22t-117.5 101zM166 0v960h167v-960h-167z" />
<glyph unicode="&#xed;" horiz-adv-x="499" d="M87 1131l267 322l173 -30l-160 -169q-75 -79 -117.5 -101t-89.5 -22h-73zM166 0v960h167v-960h-167z" />
<glyph unicode="&#xee;" horiz-adv-x="499" d="M-55 1133l228 247h156l230 -247h-113q-36 0 -56.5 9.5t-46.5 35.5l-91 91l-94 -91q-28 -26 -47.5 -35.5t-52.5 -9.5h-113zM166 0v960h167v-960h-167z" />
<glyph unicode="&#xef;" horiz-adv-x="499" d="M-45 1263q0 44 30 75.5t73 31.5t74.5 -31.5t31.5 -75.5q0 -45 -31 -76t-75 -31q-43 0 -73 31t-30 76zM166 0v960h167v-960h-167zM333 1263q0 44 29.5 75.5t72.5 31.5t75 -32t32 -75q0 -45 -31.5 -76t-75.5 -31q-43 0 -72.5 31t-29.5 76z" />
<glyph unicode="&#xf0;" horiz-adv-x="1171" d="M90 465q0 135 61 247t175 178t259 66q79 0 140 -24q-82 102 -194 214l-217 -103l-86 83l218 103q-15 14 -61 57.5t-74 68.5l148 83l147 -135l200 94l96 -79l-213 -100q199 -206 297 -390.5t98 -362.5q0 -206 -140.5 -348.5t-356.5 -142.5q-108 0 -201.5 39t-158 105 t-101 156t-36.5 191zM260 465q0 -148 90.5 -248t236.5 -100q145 0 234.5 99.5t89.5 248.5q0 150 -89 249t-235 99q-148 0 -237.5 -99t-89.5 -249z" />
<glyph unicode="&#xf1;" horiz-adv-x="1100" d="M141 0v960h145l21 -119q45 67 122.5 106t178.5 39q53 0 102.5 -12t98 -41t83.5 -73t57 -113.5t22 -157.5v-589h-169v561q0 127 -57.5 203.5t-172.5 76.5q-51 0 -96 -14.5t-84 -46t-62 -88.5t-23 -133v-559h-166zM237 1212q1 2 14 21.5t18.5 26.5t20 24.5t26.5 25.5 t30 18.5t39.5 15t45.5 4.5q39 0 74 -14t57 -30.5t51.5 -30.5t58.5 -14q33 0 54 21.5t38 59.5l109 -58q-68 -147 -195 -147q-39 0 -72.5 14t-54 31t-48 31t-55.5 14q-67 0 -111 -79z" />
<glyph unicode="&#xf2;" horiz-adv-x="1190" d="M90 480q0 139 62.5 254t179 183.5t263.5 68.5t263.5 -68.5t179.5 -183.5t63 -254t-63 -254t-179.5 -183.5t-263.5 -68.5t-263.5 68.5t-179 183.5t-62.5 254zM265 480q0 -153 93 -257t237 -104t236.5 104t92.5 257q0 154 -92.5 257.5t-236.5 103.5t-237 -103.5t-93 -257.5 zM358 1423l173 30l267 -322h-73q-49 0 -91.5 22t-117.5 101z" />
<glyph unicode="&#xf3;" horiz-adv-x="1190" d="M90 480q0 139 62.5 254t179 183.5t263.5 68.5t263.5 -68.5t179.5 -183.5t63 -254t-63 -254t-179.5 -183.5t-263.5 -68.5t-263.5 68.5t-179 183.5t-62.5 254zM265 480q0 -153 93 -257t237 -104t236.5 104t92.5 257q0 154 -92.5 257.5t-236.5 103.5t-237 -103.5t-93 -257.5 zM435 1131l267 322l173 -30l-160 -169q-75 -79 -117.5 -101t-89.5 -22h-73z" />
<glyph unicode="&#xf4;" horiz-adv-x="1190" d="M90 480q0 139 62.5 254t179 183.5t263.5 68.5t263.5 -68.5t179.5 -183.5t63 -254t-63 -254t-179.5 -183.5t-263.5 -68.5t-263.5 68.5t-179 183.5t-62.5 254zM265 480q0 -153 93 -257t237 -104t236.5 104t92.5 257q0 154 -92.5 257.5t-236.5 103.5t-237 -103.5t-93 -257.5 zM292 1133l229 247h155l231 -247h-113q-36 0 -56.5 9.5t-46.5 35.5l-92 91l-93 -91q-27 -26 -47.5 -35.5t-53.5 -9.5h-113z" />
<glyph unicode="&#xf5;" horiz-adv-x="1190" d="M90 480q0 139 62.5 254t179 183.5t263.5 68.5t263.5 -68.5t179.5 -183.5t63 -254t-63 -254t-179.5 -183.5t-263.5 -68.5t-263.5 68.5t-179 183.5t-62.5 254zM265 480q0 -153 93 -257t237 -104t236.5 104t92.5 257q0 154 -92.5 257.5t-236.5 103.5t-237 -103.5t-93 -257.5 zM279 1210q2 3 12.5 19t15.5 22.5t17 21.5t21 23t24 19t29.5 16.5t34.5 10t41 4.5q39 0 73.5 -14t56.5 -30.5t51 -30.5t58 -14q34 0 55 21.5t38 59.5l109 -58q-12 -24 -22.5 -40.5t-34.5 -44.5t-60 -44t-79 -16q-39 0 -72.5 14t-53 31t-47 31t-55.5 14q-67 0 -111 -79z" />
<glyph unicode="&#xf6;" horiz-adv-x="1190" d="M90 480q0 139 62.5 254t179 183.5t263.5 68.5t263.5 -68.5t179.5 -183.5t63 -254t-63 -254t-179.5 -183.5t-263.5 -68.5t-263.5 68.5t-179 183.5t-62.5 254zM265 480q0 -153 93 -257t237 -104t236.5 104t92.5 257q0 154 -92.5 257.5t-236.5 103.5t-237 -103.5t-93 -257.5 zM303 1263q0 44 29.5 75.5t72.5 31.5t75 -32t32 -75q0 -45 -31.5 -76t-75.5 -31q-43 0 -72.5 31t-29.5 76zM681 1263q0 44 29.5 75.5t72.5 31.5t75 -32t32 -75q0 -45 -31.5 -76t-75.5 -31q-43 0 -72.5 31t-29.5 76z" />
<glyph unicode="&#xf7;" horiz-adv-x="1092" d="M113 467v147h868v-147h-868zM437 218q0 45 32 76.5t77 31.5t78 -31.5t33 -76.5t-33 -77t-78 -32t-77 32t-32 77zM437 866q0 45 32 77t77 32t78 -32t33 -77t-33 -77t-78 -32t-77 32t-32 77z" />
<glyph unicode="&#xf8;" horiz-adv-x="1190" d="M90 480q0 214 140 360t365 146q177 0 307 -96l111 123l69 -62l-111 -121q130 -144 130 -350q0 -214 -140.5 -360t-365.5 -146q-179 0 -309 96l-109 -119l-70 58l111 123q-128 142 -128 348zM260 480q0 -131 69 -226l469 520q-87 67 -203 67q-150 0 -242.5 -103 t-92.5 -258zM390 188q88 -69 205 -69q149 0 240 102.5t91 258.5q0 131 -66 226z" />
<glyph unicode="&#xf9;" horiz-adv-x="1088" d="M132 401v559h167v-559q0 -132 64.5 -207t180.5 -75t180.5 75t64.5 207v559h169v-559q0 -96 -24.5 -171t-64 -122.5t-94.5 -78t-111.5 -43t-119.5 -12.5t-119.5 12.5t-111 43t-94 78t-63.5 122.5t-24 171zM305 1423l173 30l267 -322h-73q-49 0 -91.5 22t-117.5 101z" />
<glyph unicode="&#xfa;" horiz-adv-x="1088" d="M132 401v559h167v-559q0 -132 64.5 -207t180.5 -75t180.5 75t64.5 207v559h169v-559q0 -96 -24.5 -171t-64 -122.5t-94.5 -78t-111.5 -43t-119.5 -12.5t-119.5 12.5t-111 43t-94 78t-63.5 122.5t-24 171zM382 1131l267 322l172 -30l-160 -169q-75 -79 -117.5 -101 t-89.5 -22h-72z" />
<glyph unicode="&#xfb;" horiz-adv-x="1088" d="M132 401v559h167v-559q0 -132 64.5 -207t180.5 -75t180.5 75t64.5 207v559h169v-559q0 -96 -24.5 -171t-64 -122.5t-94.5 -78t-111.5 -43t-119.5 -12.5t-119.5 12.5t-111 43t-94 78t-63.5 122.5t-24 171zM239 1133l228 247h156l230 -247h-113q-36 0 -55.5 9t-46.5 36 l-92 91l-94 -91q-28 -26 -47.5 -35.5t-52.5 -9.5h-113z" />
<glyph unicode="&#xfc;" horiz-adv-x="1088" d="M132 401v559h167v-559q0 -132 64.5 -207t180.5 -75t180.5 75t64.5 207v559h169v-559q0 -96 -24.5 -171t-64 -122.5t-94.5 -78t-111.5 -43t-119.5 -12.5t-119.5 12.5t-111 43t-94 78t-63.5 122.5t-24 171zM250 1263q0 44 29.5 75.5t72.5 31.5q44 0 75.5 -32t31.5 -75 q0 -45 -31.5 -76t-75.5 -31q-43 0 -72.5 31t-29.5 76zM627 1263q0 44 30 75.5t73 31.5t74.5 -31.5t31.5 -75.5q0 -45 -31 -76t-75 -31q-43 0 -73 31t-30 76z" />
<glyph unicode="&#xfd;" horiz-adv-x="1006" d="M21 960h182l300 -738l301 738h182l-596 -1408h-177l207 471zM343 1131l267 322l173 -30l-160 -169q-75 -79 -117.5 -101t-89.5 -22h-73z" />
<glyph unicode="&#xfe;" horiz-adv-x="1184" d="M141 -405v1770h166v-539q120 160 337 160q192 0 321 -139t129 -367q0 -226 -129 -363.5t-321 -137.5q-217 0 -337 160v-544h-166zM286 480q0 -154 89 -256t233 -102q141 0 227.5 102t86.5 256q0 157 -86.5 260t-227.5 103q-145 0 -233.5 -103t-88.5 -260z" />
<glyph unicode="&#xff;" horiz-adv-x="1006" d="M21 960h182l300 -738l301 738h182l-596 -1408h-177l207 471zM209 1263q0 44 29.5 75.5t72.5 31.5t75 -32t32 -75q0 -45 -31.5 -76t-75.5 -31q-43 0 -72.5 31t-29.5 76zM587 1263q0 44 29.5 75.5t72.5 31.5t75 -32t32 -75q0 -45 -31.5 -76t-75.5 -31q-43 0 -72.5 31 t-29.5 76z" />
<glyph unicode="&#x152;" horiz-adv-x="2265" d="M94 687q0 198 88 359.5t251.5 256t372.5 94.5q171 0 311.5 -63t237.5 -176v207h795v-151h-620v-459h514v-145h-514v-459h620v-151h-795v215q-97 -114 -237.5 -177.5t-311.5 -63.5q-209 0 -372.5 95.5t-251.5 257.5t-88 360zM277 687q0 -113 37.5 -214t105 -176.5 t168 -120t218.5 -44.5q158 0 280.5 76t187 202t64.5 277q0 152 -64.5 277t-187 200t-280.5 75q-119 0 -219 -43.5t-167.5 -118.5t-105 -176t-37.5 -214z" />
<glyph unicode="&#x153;" horiz-adv-x="1960" d="M90 480q0 139 62.5 254t179 183.5t263.5 68.5q134 0 242.5 -57t175.5 -157q65 100 168.5 157t230.5 57q203 0 332 -134.5t129 -339.5v-62h-768q9 -145 95 -236.5t231 -91.5q172 0 271 115l120 -98q-64 -75 -167 -117.5t-224 -42.5q-136 0 -243.5 55.5t-174.5 153.5 q-65 -99 -174.5 -156.5t-243.5 -57.5q-147 0 -263.5 68.5t-179 183.5t-62.5 254zM265 480q0 -153 93 -257t237 -104t236.5 104t92.5 257q0 154 -92.5 257.5t-236.5 103.5t-237 -103.5t-93 -257.5zM1116 574h589q-16 126 -93.5 196.5t-199.5 70.5q-115 0 -193 -73t-103 -194z " />
<glyph unicode="&#x178;" horiz-adv-x="1058" d="M-41 1365h205l365 -559l365 559h205l-482 -725v-640h-175v640zM235 1604q0 44 29.5 75.5t72.5 31.5t75 -31.5t32 -75.5q0 -45 -31.5 -75.5t-75.5 -30.5q-43 0 -72.5 30.5t-29.5 75.5zM612 1604q0 44 30 75.5t73 31.5t74.5 -31.5t31.5 -75.5q0 -45 -31 -75.5t-75 -30.5 t-73.5 30.5t-29.5 75.5z" />
<glyph unicode="&#x2c6;" horiz-adv-x="742" d="M64 1105l230 248h154l230 -248h-113q-35 0 -54 9t-48 36l-92 92l-92 -92q-27 -26 -47.5 -35.5t-54.5 -9.5h-113z" />
<glyph unicode="&#x2dc;" horiz-adv-x="763" d="M64 1274q1 2 14 21.5t18.5 26.5t20 24.5t26.5 25.5t30 18.5t39.5 15t45.5 4.5q39 0 74 -14t57 -30.5t51.5 -30.5t58.5 -14q33 0 54 21.5t38 59.5l109 -58q-72 -145 -194 -145q-49 0 -88.5 22.5t-73.5 45t-69 22.5q-67 0 -111 -79z" />
<glyph unicode="&#x2000;" horiz-adv-x="941" />
<glyph unicode="&#x2001;" horiz-adv-x="1882" />
<glyph unicode="&#x2002;" horiz-adv-x="941" />
<glyph unicode="&#x2003;" horiz-adv-x="1882" />
<glyph unicode="&#x2004;" horiz-adv-x="627" />
<glyph unicode="&#x2005;" horiz-adv-x="470" />
<glyph unicode="&#x2006;" horiz-adv-x="313" />
<glyph unicode="&#x2007;" horiz-adv-x="313" />
<glyph unicode="&#x2008;" horiz-adv-x="235" />
<glyph unicode="&#x2009;" horiz-adv-x="376" />
<glyph unicode="&#x200a;" horiz-adv-x="104" />
<glyph unicode="&#x2010;" horiz-adv-x="744" d="M113 467v147h521v-147h-521z" />
<glyph unicode="&#x2011;" horiz-adv-x="744" d="M113 467v147h521v-147h-521z" />
<glyph unicode="&#x2012;" horiz-adv-x="744" d="M113 467v147h521v-147h-521z" />
<glyph unicode="&#x2013;" horiz-adv-x="1092" d="M113 467v147h868v-147h-868z" />
<glyph unicode="&#x2014;" horiz-adv-x="1612" d="M113 467v147h1389v-147h-1389z" />
<glyph unicode="&#x2018;" horiz-adv-x="426" d="M64 1067q0 62 24 123.5t86.5 122t154.5 93.5l34 -85q-83 -39 -127 -95t-44 -119q49 18 97 -11.5t48 -90.5q0 -53 -34.5 -87.5t-93.5 -34.5q-65 0 -105 54t-40 130z" />
<glyph unicode="&#x2019;" horiz-adv-x="426" d="M64 962q83 39 127 94.5t44 118.5q-50 -18 -97.5 11.5t-47.5 91.5q0 53 34.5 87t93.5 34q65 0 105 -53.5t40 -129.5q0 -62 -24 -123.5t-86.5 -122t-154.5 -93.5z" />
<glyph unicode="&#x201a;" horiz-adv-x="567" d="M134 -220q83 39 127 95t44 119q-51 -18 -98 11t-47 91q0 53 34 87.5t92 34.5q67 0 107 -53.5t40 -130.5q0 -46 -14 -92.5t-43.5 -93.5t-83 -87.5t-123.5 -65.5z" />
<glyph unicode="&#x201c;" horiz-adv-x="774" d="M64 1067q0 62 24 123.5t86.5 122t154.5 93.5l34 -85q-83 -39 -127 -95t-44 -119q49 18 97 -11.5t48 -90.5q0 -53 -34.5 -87.5t-93.5 -34.5q-65 0 -105 54t-40 130zM412 1067q0 46 14 92.5t43.5 93.5t83 87.5t123.5 65.5l34 -85q-82 -39 -126 -95t-44 -119 q51 18 98.5 -11.5t46.5 -90.5q0 -53 -34 -87.5t-92 -34.5q-67 0 -107 53.5t-40 130.5z" />
<glyph unicode="&#x201d;" horiz-adv-x="774" d="M64 960q83 39 127 94.5t44 118.5q-49 -18 -97 12t-48 91q0 53 34.5 87t93.5 34q65 0 105 -53.5t40 -129.5q0 -62 -24 -123.5t-86.5 -122t-154.5 -93.5zM412 960q83 39 126.5 94.5t43.5 118.5q-49 -18 -97 12t-48 91q0 52 35 86.5t93 34.5q65 0 105 -53.5t40 -129.5 q0 -46 -14 -92.5t-43.5 -93.5t-82 -87.5t-122.5 -65.5z" />
<glyph unicode="&#x201e;" horiz-adv-x="915" d="M134 -230q83 39 127 94.5t44 118.5q-51 -18 -98 11.5t-47 90.5q0 53 34 87.5t92 34.5q67 0 107 -53.5t40 -130.5q0 -46 -14 -92.5t-43.5 -93.5t-83 -87.5t-123.5 -65.5zM482 -230q83 39 127 94.5t44 118.5q-49 -18 -97 11.5t-48 90.5q0 52 35 87t93 35q65 0 105 -54 t40 -130q0 -62 -24 -123.5t-86.5 -122t-154.5 -93.5z" />
<glyph unicode="&#x2022;" horiz-adv-x="669" d="M134 689q0 83 59.5 142t141.5 59t141 -59t59 -142q0 -82 -59 -141t-141 -59t-141.5 59t-59.5 141z" />
<glyph unicode="&#x2026;" horiz-adv-x="1363" d="M134 102q0 48 35.5 83t84.5 35q48 0 82.5 -35t34.5 -83q0 -49 -34.5 -84t-82.5 -35q-50 0 -85 35t-35 84zM563 102q0 48 35 83t83 35q49 0 84 -35t35 -83q0 -50 -35 -84.5t-84 -34.5q-48 0 -83 35t-35 84zM990 102q0 48 35.5 83t83.5 35t84 -35t36 -83q0 -49 -36 -84 t-84 -35t-83.5 35t-35.5 84z" />
<glyph unicode="&#x202f;" horiz-adv-x="376" />
<glyph unicode="&#x2039;" horiz-adv-x="661" d="M90 516l317 380h165l-325 -380l325 -379h-165z" />
<glyph unicode="&#x203a;" horiz-adv-x="661" d="M90 137l324 379l-324 380h164l318 -380l-318 -379h-164z" />
<glyph unicode="&#x205f;" horiz-adv-x="470" />
<glyph unicode="&#x20ac;" horiz-adv-x="1079" d="M-15 501v113h111q-2 23 -2 73q0 49 2 72h-111v111h130q52 234 228 380.5t425 146.5q141 0 239 -38l-60 -141q-70 34 -179 34q-176 0 -302 -105.5t-174 -276.5h499l-44 -111h-474q-4 -46 -4 -72q0 -27 4 -73h418l-45 -113h-352q48 -171 173.5 -276.5t300.5 -105.5 q106 0 179 35l60 -141q-94 -39 -239 -39q-248 0 -423.5 146t-229.5 381h-130z" />
<glyph unicode="&#x2122;" horiz-adv-x="1271" d="M64 1265v100h429v-100h-160v-497h-111v497h-158zM604 768v597h104l197 -303l196 303h106v-597h-106v420l-196 -286l-197 288v-422h-104z" />
<glyph unicode="&#x25fc;" horiz-adv-x="960" d="M0 0v960h960v-960h-960z" />
<glyph unicode="&#xfb03;" horiz-adv-x="1696" d="M73 819v141h123v205q0 154 73 236t196 82q98 0 184 -56l-75 -124q-49 35 -96 35q-63 0 -88 -44.5t-25 -124.5v-209h431v205q0 155 73 236.5t198 81.5q84 0 155 -41l-66 -126q-38 22 -79 22q-63 0 -88 -44.5t-25 -124.5v-209h561v-960h-164v819h-397v-819h-168v819h-431 v-819h-169v819h-123zM1327 1280q0 48 35 83.5t84 35.5q48 0 84 -35.5t36 -83.5t-36 -82.5t-84 -34.5q-49 0 -84 34.5t-35 82.5z" />
<glyph unicode="&#xfb04;" horiz-adv-x="1683" d="M73 819v141h123v183q0 154 73 236t196 82q100 0 184 -55l-75 -124q-47 34 -96 34q-63 0 -88 -44t-25 -124v-188h409v183q0 155 73 236.5t198 81.5q87 0 156 -40l-66 -126q-36 21 -79 21q-63 0 -88 -44t-25 -124v-188h205v-141h-205v-819h-169v819h-409v-819h-169v819 h-123zM1365 0v1451h169v-1451h-169z" />
</font>
</defs>
</svg>
