<?xml version="1.0" standalone="no"?>
<!DOCTYPE svg PUBLIC "-//W3C//DTD SVG 1.1//EN" "http://www.w3.org/Graphics/SVG/1.1/DTD/svg11.dtd" >
<svg xmlns="http://www.w3.org/2000/svg" xmlns:xlink="http://www.w3.org/1999/xlink" version="1.1">
<metadata></metadata>
<defs>
<font id="made_tommy_softthin" horiz-adv-x="1292" >
<font-face units-per-em="2048" ascent="1638" descent="-410" />
<missing-glyph horiz-adv-x="532" />
<glyph horiz-adv-x="0" />
<glyph horiz-adv-x="682" />
<glyph unicode=" "  horiz-adv-x="532" />
<glyph unicode="&#x09;" horiz-adv-x="532" />
<glyph unicode="&#xa0;" horiz-adv-x="532" />
<glyph unicode="!" horiz-adv-x="501" d="M182 41q0 28 20 48t48 20q27 0 46 -20t19 -48t-18.5 -47t-46.5 -19t-48 19t-20 47zM213 399v1008q0 11 8.5 19t18.5 8h18q12 0 20.5 -8t8.5 -19v-1008q0 -11 -8.5 -18.5t-20.5 -7.5h-18q-11 0 -19 8t-8 18z" />
<glyph unicode="&#x22;" horiz-adv-x="702" d="M164 1006v401q0 11 8.5 19t20.5 8h16q12 0 20.5 -8t8.5 -19v-401q0 -12 -8.5 -20.5t-20.5 -8.5h-16q-12 0 -20.5 8.5t-8.5 20.5zM465 1006v401q0 11 8.5 19t20.5 8h18q10 0 18.5 -8t8.5 -19v-401q0 -12 -8 -20.5t-19 -8.5h-18q-12 0 -20.5 8.5t-8.5 20.5z" />
<glyph unicode="#" horiz-adv-x="1329" d="M106 508l5 18q0 6 5 11.5t11 5.5h260l57 352h-256q-9 0 -14.5 6t-3.5 14l2 19q4 16 18 16h265l61 377q4 16 19 16h18q9 0 14.5 -6.5t3.5 -15.5l-61 -371h387l64 377q4 16 18 16h18q8 0 14 -6.5t5 -15.5l-62 -371h252q8 0 14 -6.5t5 -15.5l-4 -19q0 -6 -5.5 -10t-11.5 -4 h-260l-57 -352h256q9 0 14.5 -7t3.5 -16l-2 -18q-4 -15 -18 -15h-262l-64 -381q-3 -14 -18 -14h-19q-8 0 -13.5 7t-4.5 14l61 374h-387l-63 -381q0 -6 -5.5 -10t-11.5 -4h-20q-7 0 -13 6.5t-6 14.5l64 374h-254q-8 0 -14 7t-5 14zM442 543h389l58 352h-387z" />
<glyph unicode="$" horiz-adv-x="1116" d="M111 260q-4 12 0.5 22t15.5 15l18 4q10 4 20 -0.5t15 -15.5q33 -98 130.5 -167t248.5 -69q166 0 268.5 89.5t102.5 234.5q0 60 -17 105.5t-42 74t-69.5 52t-82.5 36.5t-98 31q-27 8 -41 12q-166 50 -235 87q-165 90 -183 261q-2 22 -2 45q0 156 109 265.5t263 115.5v174 q0 10 8 18.5t19 8.5h19q12 0 20 -8t8 -19v-176q115 -11 199 -71t127 -164q4 -10 -2.5 -22t-18.5 -15l-18 -4q-24 -4 -31 16q-37 93 -117.5 143t-191.5 50q-130 0 -225 -90.5t-95 -221.5q0 -62 21 -110t46.5 -77t82 -56.5t92.5 -40t112 -35.5q4 -1 7 -2l6 -2q11 -3 33 -10 q40 -12 60.5 -18.5t58 -20t58.5 -24t52 -28.5t48.5 -36t38 -44t31.5 -54.5t18.5 -66t7.5 -79.5q0 -54 -14.5 -106.5t-46 -103t-77 -90t-113.5 -66t-149 -32.5v-174q0 -11 -8 -18.5t-20 -7.5h-19q-11 0 -19 8t-8 18v174q-159 7 -269 88.5t-152 196.5z" />
<glyph unicode="%" horiz-adv-x="1773" d="M123 1081q0 127 90.5 217.5t216.5 90.5q127 0 217 -90t90 -218q0 -127 -89.5 -217t-217.5 -90q-126 0 -216.5 90t-90.5 217zM197 1081q0 -97 68 -165t165 -68t166.5 68.5t69.5 164.5q0 97 -69.5 165.5t-166.5 68.5t-165 -68.5t-68 -165.5zM389 10q-6 10 0 19l918 1388 q10 17 30 17h33q11 0 16.5 -10t-0.5 -19l-917 -1389q-10 -16 -31 -16h-32q-11 0 -17 10zM1038 352q0 127 90 217t218 90t217.5 -89.5t89.5 -217.5t-89.5 -217.5t-217.5 -89.5t-218 90t-90 217zM1110 352q0 -96 69.5 -164.5t166.5 -68.5t165 68t68 165t-68.5 166.5 t-164.5 69.5q-97 0 -166.5 -69.5t-69.5 -166.5z" />
<glyph unicode="&#x26;" horiz-adv-x="1431" d="M82 381q0 75 23.5 140t58 109t85.5 82.5t94.5 61t96.5 43.5q-114 162 -114 309q0 142 92.5 237t240.5 95q126 0 214 -83.5t88 -203.5q0 -65 -24.5 -120t-58.5 -91t-94.5 -72t-106 -55.5t-120.5 -48.5q63 -78 180 -186q113 -108 275 -252q62 124 82 238q1 10 10 17t20 5 l19 -2q11 -2 18 -11.5t4 -21.5q-29 -144 -100 -272q160 -144 307 -266q9 -9 5 -21t-17 -12h-29q-33 0 -59 23q-118 99 -246 213q-33 -49 -74.5 -91t-101 -82.5t-140 -64t-171.5 -23.5q-104 0 -192 35t-145 92t-88.5 129.5t-31.5 149.5zM160 381q0 -65 25.5 -125t72.5 -106.5 t120 -74.5t161 -28q82 0 154 22t125 58.5t90 74.5t65 81q-245 224 -285 262q-133 122 -203 211q-167 -64 -246 -153t-79 -222zM397 1126q0 -72 29 -138t84 -144q56 21 83 32t74.5 32.5t72 37.5t57.5 42t48.5 51t27.5 59.5t12 72.5q0 84 -62 149.5t-164 65.5 q-119 0 -190.5 -73.5t-71.5 -186.5z" />
<glyph unicode="'" horiz-adv-x="399" d="M164 1006v401q0 11 8.5 19t20.5 8h18q11 0 19 -8t8 -19v-401q0 -12 -8 -20.5t-19 -8.5h-18q-12 0 -20.5 8.5t-8.5 20.5z" />
<glyph unicode="(" horiz-adv-x="681" d="M184 717q0 114 17 223t41 191.5t63 170t71 144.5t77 129q6 9 18 11t23 -5l6 -4q8 -6 10 -17t-4 -20q-52 -85 -89 -157.5t-77 -177t-61 -228.5t-21 -260t21 -259.5t61 -228t77 -178t89 -157.5q6 -9 4 -20t-10 -17l-6 -4q-11 -7 -23 -5t-18 11q-45 72 -77 129t-71 144.5 t-63 170t-41 191.5t-17 223z" />
<glyph unicode=")" horiz-adv-x="681" d="M171 -126q-2 11 3 20q52 84 90 158t77.5 178t61 227.5t21.5 259.5q0 137 -21 260.5t-61.5 227.5t-78 177.5t-89.5 157.5q-5 9 -3 20t11 17l6 4q9 7 21 5t18 -11q58 -91 97.5 -166.5t83.5 -185t67 -237.5t23 -269t-23 -269t-67 -237.5t-83.5 -185t-97.5 -166.5 q-6 -9 -18 -11t-21 5l-6 4q-9 6 -11 17z" />
<glyph unicode="*" horiz-adv-x="925" d="M109 1163l10 33q7 19 24 12l299 -114l-14 321q-1 7 3.5 13t12.5 6h35q8 0 14 -6t5 -13l-17 -321l301 114q17 7 25 -12l10 -33q4 -19 -12 -22l-311 -84l202 -250q4 -6 3 -14t-7 -13l-28 -20q-6 -5 -14 -3t-11 9l-176 268l-176 -268q-10 -16 -27 -6l-27 20q-6 5 -7 13t3 14 l201 250l-309 84q-8 2 -11.5 8.5t-0.5 13.5z" />
<glyph unicode="+" horiz-adv-x="1171" d="M184 602v16q0 12 8 20.5t19 8.5h338v338q0 11 8 19t18 8h19q10 0 18.5 -8t8.5 -19v-338h337q11 0 19 -8.5t8 -20.5v-16q0 -12 -8 -20.5t-19 -8.5h-337v-337q0 -10 -8.5 -18.5t-18.5 -8.5h-19q-10 0 -18 8t-8 19v337h-338q-11 0 -19 8.5t-8 20.5z" />
<glyph unicode="," horiz-adv-x="385" d="M49 -193l144 304q15 25 38 12l27 -14q9 -6 11.5 -18t-3.5 -21l-184 -283q-7 -14 -23 -6l-2 2q-15 6 -8 24z" />
<glyph unicode="-" horiz-adv-x="1026" d="M184 602v16q0 12 8.5 20.5t20.5 8.5h602q11 0 19 -8.5t8 -20.5v-16q0 -12 -8 -20.5t-19 -8.5h-602q-12 0 -20.5 8.5t-8.5 20.5z" />
<glyph unicode="." horiz-adv-x="337" d="M102 41q0 27 19.5 46t46.5 19q28 0 48 -19t20 -46q0 -28 -20 -48t-48 -20q-26 0 -46 20t-20 48z" />
<glyph unicode="/" horiz-adv-x="913" d="M131 -174l576 1780q10 24 34 24h27q9 0 14 -6.5t2 -15.5l-575 -1780q-11 -25 -35 -25h-24q-9 0 -15.5 8t-3.5 15z" />
<glyph unicode="0" horiz-adv-x="1226" d="M102 717q0 114 17.5 219t57.5 201t98 166.5t145 112.5t194 42t194 -42t144.5 -112.5t97 -166.5t57 -201t17.5 -219q0 -115 -17.5 -220t-57 -201.5t-97 -167.5t-144.5 -113t-194 -42t-194 42t-145 113t-98 167t-57.5 201.5t-17.5 220.5zM174 717q0 -124 25 -238.5 t75.5 -213.5t138 -158.5t201.5 -59.5q91 0 166 39.5t125 105.5t84 153.5t49 180.5t15 191q0 124 -25 238.5t-75.5 213t-138 158t-200.5 59.5q-114 0 -201.5 -59.5t-138 -158t-75.5 -213t-25 -238.5z" />
<glyph unicode="1" horiz-adv-x="952" d="M195.5 1146q2.5 11 11.5 17l391 262q18 9 29 9h12q11 0 19 -8t8 -19v-1380q0 -11 -8 -19t-19 -8h-18q-12 0 -20.5 8t-8.5 19v1306l-346 -231q-9 -6 -20 -4t-17 12l-10 16q-6 9 -3.5 20z" />
<glyph unicode="2" horiz-adv-x="1101" d="M125 27v24q0 19 14 37q38 41 145.5 164.5t203 234t100.5 115.5q68 82 105.5 130.5t75.5 109.5t53.5 114t15.5 111q0 137 -89 228t-212 91q-122 0 -211 -68.5t-121 -191.5q-7 -23 -31 -20l-18 4q-12 1 -18 12t-3 23q36 146 146 230.5t256 84.5q108 0 195 -56t133 -145.5 t46 -191.5q0 -54 -13.5 -106.5t-32.5 -95t-58 -99.5t-71 -97.5t-91 -111.5q-17 -21 -184.5 -213.5t-237.5 -269.5h709q12 0 20.5 -8.5t8.5 -20.5v-18q0 -11 -8.5 -19t-20.5 -8h-778q-12 0 -20.5 8t-8.5 19z" />
<glyph unicode="3" horiz-adv-x="1142" d="M111 268q-3 12 3 22.5t17 12.5l19 4q23 3 30 -18q32 -98 141 -170t265 -72q102 0 187.5 40t140.5 122.5t55 191.5q0 67 -20.5 121t-55.5 87.5t-75 57t-87.5 34.5t-84 15.5t-71.5 4.5h-88q-7 0 -12.5 5.5t-5.5 12.5v25q0 8 5.5 13t12.5 5h95q40 0 80.5 8t84.5 29t78 53 t56 85.5t22 121.5q0 135 -93 221t-224 86q-121 0 -211.5 -66t-124.5 -161q-3 -9 -12.5 -14t-18.5 -2l-18 2q-12 3 -18.5 14t-2.5 23q40 124 150.5 201t255.5 77q167 0 278 -110t111 -271q0 -122 -67.5 -206t-184.5 -117q142 -30 229.5 -118t87.5 -237q0 -102 -38.5 -184.5 t-103 -134.5t-145 -79.5t-167.5 -27.5q-175 0 -306 83.5t-169 209.5z" />
<glyph unicode="4" horiz-adv-x="1234" d="M123 385v23q0 20 14 41l643 952q20 33 60 33h41q10 0 18 -8t8 -19v-977h178q11 0 19 -8t8 -19v-18q0 -11 -8 -19t-19 -8h-178v-331q0 -11 -8 -19t-18 -8h-19q-12 0 -20 8t-8 19v331h-682q-12 0 -20.5 8t-8.5 19zM211 430h623v924z" />
<glyph unicode="5" horiz-adv-x="1116" d="M109 268q-3 12 3.5 23t18.5 12l19 4q9 2 18 -3.5t12 -14.5q30 -98 130.5 -170t242.5 -72q159 0 274 113.5t115 298.5q0 168 -107.5 272.5t-254.5 104.5q-104 0 -191 -46.5t-139 -111.5q-20 -26 -55 -19l-15 5q-9 2 -15.5 10.5t-4.5 17.5l84 717q4 25 26 25h641 q11 0 19 -8t8 -19v-18q0 -12 -8 -20.5t-19 -8.5h-606l-72 -615q63 71 152.5 116.5t194.5 45.5q83 0 159.5 -29t138.5 -83.5t99 -141.5t37 -194q0 -92 -26.5 -171t-71 -135.5t-104 -97.5t-125.5 -60.5t-134 -19.5q-161 0 -283.5 83.5t-160.5 209.5z" />
<glyph unicode="6" horiz-adv-x="1161" d="M102 453q0 86 33.5 164t93.5 167l420 625q18 25 45 25h15q12 0 17 -10t-1 -19l-360 -533q91 58 217 58q131 0 240.5 -63.5t173 -173t63.5 -240.5q0 -132 -63.5 -242.5t-173 -174t-240.5 -63.5t-241.5 63.5t-174.5 174t-64 242.5zM176 453q0 -171 117.5 -288.5 t288.5 -117.5t288 117.5t117 288.5q0 167 -119.5 286t-285.5 119t-286 -119t-120 -286z" />
<glyph unicode="7" horiz-adv-x="1046" d="M111 1389v18q0 11 8 19t20 8h766q12 0 20.5 -8t8.5 -19v-10q0 -19 -8 -35l-553 -1346q-6 -16 -27 -16h-33q-9 0 -14.5 9t-1.5 16l551 1335h-709q-12 0 -20 8.5t-8 20.5z" />
<glyph unicode="8" horiz-adv-x="1171" d="M102 389q0 143 89.5 243t236.5 136q-113 38 -182.5 124t-69.5 200q0 160 116 263t294 103t293.5 -102.5t115.5 -263.5q0 -114 -69.5 -200t-182.5 -124q147 -36 236.5 -136t89.5 -243q0 -183 -135.5 -299.5t-347.5 -116.5t-348 116.5t-136 299.5zM176 389 q0 -153 113.5 -247.5t296.5 -94.5t296 94t113 248q0 151 -118 247.5t-291 96.5t-291.5 -96.5t-118.5 -247.5zM248 1092q0 -127 98.5 -210t239.5 -83t239.5 83t98.5 210q0 132 -95.5 213t-242.5 81t-242.5 -81t-95.5 -213z" />
<glyph unicode="9" horiz-adv-x="1161" d="M104 981q0 132 63.5 242t173.5 173.5t241 63.5t241 -63.5t174 -173.5t64 -242q0 -86 -33.5 -165t-93.5 -167l-420 -624q-18 -25 -45 -25h-14q-12 0 -17.5 10t0.5 19l361 532q-89 -57 -217 -57q-200 0 -339 139t-139 338zM176 981q0 -167 120 -286.5t286 -119.5 t285.5 119.5t119.5 286.5q0 171 -117 288t-288 117q-172 0 -289 -117t-117 -288z" />
<glyph unicode=":" horiz-adv-x="460" d="M164 41q0 28 19.5 46.5t47.5 18.5q27 0 46.5 -19t19.5 -46q0 -28 -20 -48t-46 -20q-28 0 -47.5 20t-19.5 48zM164 997q0 27 20 46.5t47 19.5q26 0 46 -20t20 -46q0 -27 -19.5 -47t-46.5 -20q-28 0 -47.5 19.5t-19.5 47.5z" />
<glyph unicode=";" horiz-adv-x="512" d="M88 -193l145 304q4 10 16 14t21 -2l27 -14q9 -6 12 -18t-4 -21l-182 -283q-10 -13 -25 -6l-2 2q-15 7 -8 24zM215 997q0 28 19 47t47 19t47.5 -19t19.5 -47t-19.5 -47.5t-47.5 -19.5t-47 19.5t-19 47.5z" />
<glyph unicode="&#x3c;" horiz-adv-x="1097" d="M184 547v35q0 22 23 32l682 322q9 4 17.5 -1.5t8.5 -14.5v-29q0 -23 -20 -33l-625 -295l625 -293q20 -10 20 -34v-27q0 -10 -8.5 -15.5t-17.5 -0.5l-682 321q-23 10 -23 33z" />
<glyph unicode="=" horiz-adv-x="1134" d="M184 436v19q0 12 8.5 20t20.5 8h711q11 0 18.5 -8t7.5 -20v-19q0 -10 -8 -18t-18 -8h-711q-12 0 -20.5 7.5t-8.5 18.5zM184 766v18q0 11 8.5 19t20.5 8h711q10 0 18 -8t8 -19v-18q0 -12 -7.5 -20.5t-18.5 -8.5h-711q-12 0 -20.5 8.5t-8.5 20.5z" />
<glyph unicode="&#x3e;" horiz-adv-x="1097" d="M182 209v27q0 24 23 34l622 293l-622 295q-23 10 -23 33v29q0 9 9 14.5t18 1.5l682 -322q22 -9 22 -32v-35q0 -24 -22 -33l-682 -321q-9 -5 -18 0.5t-9 15.5z" />
<glyph unicode="?" horiz-adv-x="864" d="M68 1178q17 54 47 101.5t74 88.5t107.5 65.5t137.5 24.5q152 0 259.5 -105.5t107.5 -254.5q0 -74 -25 -141t-53.5 -106t-75.5 -91q-33 -37 -49 -56t-43 -57.5t-40.5 -70.5t-25.5 -79.5t-14 -99.5q0 -10 -7.5 -17t-18.5 -7h-19q-12 0 -20 8t-7 20q3 73 19.5 134.5 t48.5 113.5t56 83t67 77q45 51 69 84.5t45 88.5t21 116q0 120 -86.5 204t-208.5 84q-116 0 -191 -66t-106 -165q-3 -9 -13 -14t-20 -2l-16 4q-12 1 -17.5 12t-2.5 23zM373 41q0 28 19 48t46 20q28 0 48 -20t20 -48t-20 -47t-48 -19t-46.5 19t-18.5 47z" />
<glyph unicode="@" horiz-adv-x="1888" d="M125 684q0 101 28.5 207.5t94 214t158.5 191.5t234.5 137t309.5 53q166 0 305 -45.5t231.5 -119.5t156.5 -170.5t93 -197t29 -200.5q0 -211 -85.5 -343t-223.5 -132q-53 0 -92 19.5t-61.5 55t-34 76.5t-13.5 92q-43 -106 -137.5 -169.5t-214.5 -63.5q-161 0 -269 115 t-108 280q0 164 116 280.5t280 116.5q115 0 202.5 -63t128.5 -166v190q0 12 8.5 20.5t20.5 8.5h8q11 0 19 -8.5t8 -20.5v-489q0 -49 5.5 -84.5t19.5 -68t43 -49.5t73 -17q109 0 180.5 115t71.5 305q0 74 -19 150.5t-56.5 153.5t-100.5 143.5t-144.5 118.5t-194.5 82t-245 30 q-133 0 -248 -34.5t-197.5 -93.5t-146.5 -134t-102.5 -160t-58 -167t-19.5 -159q0 -106 28 -210t89 -201t147 -171t211 -118.5t273 -44.5q256 0 434 135q4 5 12 4.5t12 -6.5l13 -15q11 -15 -4 -26q-192 -148 -467 -148q-190 0 -345.5 68.5t-253 182t-150 255.5t-52.5 295z M598 684q0 -133 87.5 -227.5t236.5 -94.5q93 0 168.5 48t115 121t39.5 153q0 129 -95 226.5t-228 97.5q-138 0 -231 -97t-93 -227z" />
<glyph unicode="A" horiz-adv-x="1271" d="M70 25l516 1384q11 25 35 25h28q24 0 35 -25l516 -1384q3 -9 -2.5 -17t-15.5 -8h-29q-11 0 -20.5 7.5t-12.5 17.5l-155 413h-662l-153 -413q-11 -25 -35 -25h-29q-9 0 -14 8t-2 17zM332 512h606l-303 813z" />
<glyph unicode="B" horiz-adv-x="1187" d="M184 27v1380q0 11 8 19t19 8h395q195 0 310.5 -100t115.5 -263q0 -110 -59.5 -194t-165.5 -125v-4q137 -35 218 -125t81 -224q0 -108 -56 -200.5t-150.5 -145.5t-203.5 -53h-485q-11 0 -19 8t-8 19zM258 72h379q115 0 202 34t140 109t53 184q0 79 -32.5 140.5t-88 98.5 t-125 56t-149.5 19h-379v-641zM258 778h348q156 0 255.5 78.5t99.5 214.5q0 133 -99 211t-256 78h-348v-582z" />
<glyph unicode="C" horiz-adv-x="1452" d="M102 717q0 205 91.5 375t253.5 269t360 99q160 0 300.5 -66t242.5 -182q8 -9 5.5 -21.5t-12.5 -19.5l-14 -10q-9 -6 -20 -4t-17 10q-91 103 -216 161t-269 58q-178 0 -323.5 -89t-227.5 -242.5t-82 -337.5t82 -337.5t227.5 -243t323.5 -89.5q144 0 269 58t216 163 q6 8 17 9t20 -5l14 -10q10 -6 12.5 -19t-5.5 -22q-102 -116 -242.5 -181t-300.5 -65q-148 0 -279.5 58t-224.5 157.5t-147 236.5t-54 290z" />
<glyph unicode="D" horiz-adv-x="1404" d="M186 27v1380q0 11 8 19t19 8h383q121 0 230.5 -35t195.5 -99.5t149.5 -152.5t97.5 -198.5t34 -231.5t-34 -231.5t-97.5 -198.5t-149.5 -152.5t-195.5 -99.5t-230.5 -35h-383q-11 0 -19 8t-8 19zM258 74h338q182 0 327.5 86t225.5 232.5t80 324.5t-80 324.5t-225.5 232.5 t-327.5 86h-338v-1286z" />
<glyph unicode="E" horiz-adv-x="1079" d="M184 27v1380q0 11 8 19t19 8h700q11 0 19 -8t8 -19v-18q0 -12 -8 -20.5t-19 -8.5h-653v-582h606q12 0 19.5 -7.5t7.5 -18.5v-19q0 -11 -7.5 -18.5t-19.5 -7.5h-606v-633h672q12 0 20 -8.5t8 -20.5v-18q0 -11 -8 -19t-20 -8h-719q-11 0 -19 8t-8 19z" />
<glyph unicode="F" horiz-adv-x="1091" d="M184 27v1380q0 11 8 19t19 8h729q12 0 20.5 -8t8.5 -19v-18q0 -12 -8.5 -20.5t-20.5 -8.5h-684v-600h625q12 0 20 -8t8 -19v-18q0 -11 -8 -19t-20 -8h-625v-661q0 -11 -8 -19t-19 -8h-18q-11 0 -19 8t-8 19z" />
<glyph unicode="G" horiz-adv-x="1572" d="M102 717q0 205 92 375t254.5 269t360.5 99q159 0 300 -66t241 -182q8 -9 5.5 -21.5t-12.5 -19.5l-14 -10q-19 -12 -37 6q-91 103 -216 161t-267 58q-178 0 -323.5 -89t-227.5 -242.5t-82 -337.5t82 -337.5t227.5 -243t323.5 -89.5q262 0 416.5 168t160.5 442v27h-522 q-10 0 -18 8t-8 19v18q0 11 8 19t18 8h568q10 0 18 -8t8 -19v-709q0 -20 -18 -20h-17q-16 0 -20 18l-14 349q-69 -184 -217.5 -288t-362.5 -104q-148 0 -280 58t-225 157.5t-147.5 236.5t-54.5 290z" />
<glyph unicode="H" horiz-adv-x="1384" d="M184 27v1380q0 11 8.5 19t20.5 8h18q11 0 19 -8t8 -19v-647h870v647q0 11 8.5 19t20.5 8h19q10 0 18 -8t8 -19v-1380q0 -11 -8 -19t-18 -8h-19q-12 0 -20.5 8t-8.5 19v659h-870v-659q0 -11 -8 -19t-19 -8h-18q-12 0 -20.5 8t-8.5 19z" />
<glyph unicode="I" horiz-adv-x="440" d="M184 27v1380q0 11 8 19t19 8h18q11 0 19 -8t8 -19v-1380q0 -11 -8 -19t-19 -8h-18q-11 0 -19 8t-8 19z" />
<glyph unicode="J" horiz-adv-x="1142" d="M86 317q-2 11 5 21.5t18 11.5l18 4q11 2 20.5 -4t10.5 -16q33 -133 129 -210t245 -77q167 0 260 107.5t93 308.5v944q0 11 8 19t20 8h17q12 0 20 -8t8 -19v-944q0 -232 -113.5 -360t-312.5 -128q-167 0 -287 89.5t-159 252.5z" />
<glyph unicode="K" horiz-adv-x="1146" d="M184 27v1380q0 11 8.5 19t20.5 8h18q11 0 19 -8t8 -19v-682l660 692q20 17 40 17h27q12 0 16.5 -11t-4.5 -20l-645 -678l703 -694q7 -7 2.5 -19t-15.5 -12h-32q-23 0 -39 16l-713 703v-692q0 -11 -8 -19t-19 -8h-18q-12 0 -20.5 8t-8.5 19z" />
<glyph unicode="L" horiz-adv-x="1044" d="M184 27v1380q0 11 8 19t19 8h18q11 0 19 -8t8 -19v-1333h657q12 0 20.5 -8.5t8.5 -20.5v-18q0 -11 -8.5 -19t-20.5 -8h-702q-11 0 -19 8t-8 19z" />
<glyph unicode="M" horiz-adv-x="1765" d="M184 27v1380q0 11 8 19t19 8h27q20 0 30 -17l615 -905l614 905q10 17 31 17h26q10 0 18.5 -8t8.5 -19v-1380q0 -11 -8.5 -19t-18.5 -8h-18q-12 0 -20.5 8t-8.5 19v1269l-602 -886q-6 -9 -16 -9h-12q-11 0 -17 9l-602 886v-1269q0 -11 -8.5 -19t-20.5 -8h-18q-11 0 -19 8 t-8 19z" />
<glyph unicode="N" horiz-adv-x="1423" d="M184 27v1380q0 11 8 19t19 8h27q20 0 30 -17l897 -1290v1280q0 11 8.5 19t18.5 8h18q10 0 18.5 -8t8.5 -19v-1380q0 -11 -8.5 -19t-18.5 -8h-26q-19 0 -29 16l-897 1291v-1280q0 -11 -8.5 -19t-20.5 -8h-18q-11 0 -19 8t-8 19z" />
<glyph unicode="O" horiz-adv-x="1617" d="M102 717q0 204 92 374t254.5 268.5t360.5 98.5t360.5 -98.5t254.5 -268.5t92 -374q0 -153 -54.5 -290.5t-147.5 -237t-225 -158t-280 -58.5t-280 58.5t-225 158t-147.5 237t-54.5 290.5zM176 717q0 -184 82 -337.5t227.5 -243t323.5 -89.5t323.5 89.5t227.5 243t82 337.5 t-82 337.5t-227.5 242.5t-323.5 89t-323.5 -89t-227.5 -242.5t-82 -337.5z" />
<glyph unicode="P" horiz-adv-x="1150" d="M186 27v1380q0 11 8 19t19 8h365q229 0 360 -122t131 -313q0 -193 -131 -314.5t-360 -121.5h-320v-536q0 -11 -8 -19t-19 -8h-18q-11 0 -19 8t-8 19zM258 637h320q192 0 304.5 99t112.5 263q0 163 -112.5 262t-304.5 99h-320v-723z" />
<glyph unicode="Q" horiz-adv-x="1617" d="M102 713q0 204 92 374t254.5 268.5t360.5 98.5t360.5 -98.5t254.5 -268.5t92 -374q0 -157 -55.5 -295.5t-155.5 -241.5l133 -133q8 -7 7.5 -19.5t-9.5 -19.5l-13 -12q-7 -8 -19 -8t-20 8l-135 135q-192 -158 -440 -158q-148 0 -280 58.5t-225 158t-147.5 237t-54.5 290.5 zM176 713q0 -184 82 -337.5t227.5 -243t323.5 -89.5q220 0 389 137l-252 254q-8 8 -8 19t8 18l12 14q9 7 20.5 7t18.5 -7l254 -256q91 92 141 217t50 267q0 184 -82 337.5t-227.5 242.5t-323.5 89t-323.5 -89t-227.5 -242.5t-82 -337.5z" />
<glyph unicode="R" horiz-adv-x="1193" d="M184 27v1380q0 11 8.5 19t20.5 8h346q232 0 362 -109.5t130 -298.5q0 -148 -81.5 -248.5t-232.5 -138.5l379 -610q6 -9 1 -19t-15 -10h-37q-21 0 -31 16l-377 609q-54 -7 -98 -7h-301v-591q0 -11 -8 -19t-19 -8h-18q-12 0 -20.5 8t-8.5 19zM258 692h301q207 0 313.5 91 t106.5 243t-106.5 243t-313.5 91h-301v-668z" />
<glyph unicode="S" horiz-adv-x="1118" d="M115 260q-7 26 18 37l17 4q10 4 20.5 -0.5t13.5 -15.5q35 -99 131.5 -167.5t247.5 -68.5q166 0 268.5 89.5t102.5 234.5q0 60 -17 105.5t-42 74t-69.5 52t-82.5 36.5t-98 31q-27 8 -41 12q-166 50 -235 87q-165 90 -183 261q-2 22 -2 45q0 162 116 272.5t277 110.5 q136 0 235 -61.5t144 -177.5q5 -11 -0.5 -22.5t-17.5 -14.5l-19 -4q-23 -3 -33 16q-37 93 -117.5 143t-191.5 50q-130 0 -224.5 -90t-94.5 -222q0 -76 24 -129.5t86 -90.5t104 -53t140 -46q8 -3 12 -4q11 -3 33 -10q40 -12 60.5 -18.5t58 -20t58.5 -24t52 -28.5t48.5 -36 t38 -44t31.5 -54.5t18.5 -66t7.5 -79.5q0 -56 -16 -111t-51 -107.5t-86 -92t-127 -63.5t-167 -24q-171 0 -288 82.5t-160 202.5z" />
<glyph unicode="T" horiz-adv-x="1103" d="M123 1389v18q0 11 8.5 19t20.5 8h800q12 0 20.5 -8t8.5 -19v-18q0 -12 -8.5 -20.5t-20.5 -8.5h-364v-1333q0 -11 -8 -19t-19 -8h-18q-11 0 -19 8t-8 19v1333h-364q-12 0 -20.5 8.5t-8.5 20.5z" />
<glyph unicode="U" horiz-adv-x="1384" d="M184 516v891q0 11 8 19t19 8h18q11 0 19 -8t8 -19v-891q0 -214 118.5 -341.5t317.5 -127.5t316.5 127.5t117.5 341.5v891q0 11 8 19t19 8h18q12 0 20.5 -8t8.5 -19v-891q0 -248 -140 -394.5t-368 -146.5q-229 0 -368.5 146.5t-139.5 394.5z" />
<glyph unicode="V" horiz-adv-x="1271" d="M72 1409q-3 9 2 17t14 8h29q24 0 35 -25l485 -1300l485 1300q3 10 12.5 17.5t20.5 7.5h29q10 0 15.5 -8t2.5 -17l-516 -1384q-11 -25 -35 -25h-30q-11 0 -20.5 7.5t-12.5 17.5z" />
<glyph unicode="W" horiz-adv-x="1988" d="M72 1409q-3 9 2 17t14 8h27q12 0 22 -7t13 -18l428 -1282l370 1280q7 27 35 27h25q27 0 34 -27l371 -1280l428 1282q3 11 13 18t22 7h27q9 0 15 -8t3 -17l-463 -1384q-3 -11 -13 -18t-22 -7h-24q-28 0 -35 27l-369 1271l-368 -1271q-7 -27 -35 -27h-25q-12 0 -22 7 t-13 18z" />
<glyph unicode="X" horiz-adv-x="1204" d="M79 10q-5 10 1 19l475 714l-438 662q-6 9 -1 19t15 10h41q19 0 29 -17l401 -602l399 602q14 17 31 17h41q10 0 15 -10t-1 -19l-438 -662l475 -714q6 -9 0.5 -19t-16.5 -10h-39q-21 0 -31 16l-436 658l-436 -658q-13 -16 -31 -16h-41q-10 0 -15 10z" />
<glyph unicode="Y" horiz-adv-x="1325" d="M79 1424q5 10 15 10h39q21 0 31 -19l500 -825l499 825q9 19 31 19h37q10 0 15.5 -9.5t0.5 -17.5l-549 -891v-489q0 -11 -8 -19t-18 -8h-19q-10 0 -18 8t-8 19v489l-547 891q-6 7 -1 17z" />
<glyph unicode="Z" horiz-adv-x="1183" d="M121 27v24q0 23 12 41l823 1268h-770q-12 0 -20 8.5t-8 20.5v18q0 11 8 19t20 8h830q10 0 18 -8t8 -19v-25q0 -24 -12 -39l-821 -1269h825q11 0 19 -8.5t8 -20.5v-18q0 -11 -8.5 -19t-18.5 -8h-884q-12 0 -20.5 8t-8.5 19z" />
<glyph unicode="[" horiz-adv-x="649" d="M184 -170v1774q0 11 8.5 18.5t20.5 7.5h246q12 0 20 -7.5t8 -18.5v-19q0 -11 -8 -18.5t-20 -7.5h-201v-1684h201q12 0 20 -8t8 -19v-18q0 -11 -8 -19t-20 -8h-246q-12 0 -20.5 8t-8.5 19z" />
<glyph unicode="\" horiz-adv-x="915" d="M131 1608q-3 9 2 15.5t14 6.5h25q28 0 35 -24l577 -1780q2 -8 -3.5 -15.5t-14.5 -7.5h-25q-27 0 -34 25z" />
<glyph unicode="]" horiz-adv-x="649" d="M164 -152q0 11 8 19t18 8h201v1684h-201q-10 0 -18 7.5t-8 18.5v19q0 10 8 18t18 8h248q11 0 19 -8t8 -18v-1774q0 -10 -8.5 -18.5t-18.5 -8.5h-248q-10 0 -18 8t-8 19v18z" />
<glyph unicode="^" horiz-adv-x="1028" d="M139 832q-6 9 0 18l320 561q13 23 41 23h30q26 0 39 -23l322 -561q5 -9 -1 -18t-16 -9h-30q-24 0 -33 19l-297 518l-297 -518q-9 -19 -31 -19h-32q-9 0 -15 9z" />
<glyph unicode="_" horiz-adv-x="870" d="M61 -254q0 12 8 20.5t19 8.5h694q11 0 19 -8.5t8 -20.5v-18q0 -10 -8.5 -18.5t-18.5 -8.5h-694q-10 0 -18.5 8.5t-8.5 18.5v18z" />
<glyph unicode="`" horiz-adv-x="585" d="M202 1471q5 10 15 10h37q23 0 33 -23l106 -229q3 -6 -0.5 -12.5t-9.5 -6.5h-14q-14 0 -25 15l-141 227q-6 9 -1 19z" />
<glyph unicode="a" d="M82 518q0 148 66.5 273t186 198.5t265.5 73.5q152 0 268 -78t176 -211v236q0 12 8.5 20t20.5 8h19q11 0 18.5 -8t7.5 -20v-983q0 -11 -8 -19t-18 -8h-19q-12 0 -20.5 8t-8.5 19v237q-60 -133 -176 -211t-268 -78q-146 0 -265.5 73.5t-186 198t-66.5 271.5zM156 518 q0 -127 56.5 -235t159 -172t228.5 -64t228.5 64t159 172t56.5 235q0 128 -56.5 236t-159 172.5t-228.5 64.5t-228.5 -64.5t-159 -172.5t-56.5 -236z" />
<glyph unicode="b" d="M174 27v1380q0 11 8.5 19t20.5 8h16q12 0 20.5 -8t8.5 -19v-633q62 133 178 211t266 78q146 0 265.5 -73.5t186 -198.5t66.5 -273q0 -147 -66.5 -271.5t-186 -198t-265.5 -73.5q-150 0 -266 78t-178 211v-237q0 -11 -8.5 -19t-20.5 -8h-16q-12 0 -20.5 8t-8.5 19z M248 518q0 -127 56.5 -235t159 -172t228.5 -64t229 64t160.5 172t57.5 235q0 128 -57.5 236t-160.5 172.5t-229 64.5t-228.5 -64.5t-159 -172.5t-56.5 -236z" />
<glyph unicode="c" horiz-adv-x="1124" d="M82 518q0 147 70.5 272.5t193 199t268.5 73.5q131 0 242.5 -58.5t185.5 -160.5q7 -11 5 -23t-13 -18l-16 -8q-8 -6 -18.5 -4t-16.5 10q-63 88 -159.5 139t-209.5 51q-192 0 -326 -139t-134 -334q0 -193 134 -332t326 -139q113 0 209.5 51.5t159.5 139.5q6 7 17 9t18 -3 l16 -8q11 -6 13 -18t-5 -23q-74 -102 -185.5 -161t-242.5 -59q-146 0 -268.5 73.5t-193 198.5t-70.5 271z" />
<glyph unicode="d" d="M82 518q0 148 67 273t186.5 198.5t264.5 73.5q152 0 268.5 -78t178.5 -211v633q0 11 8 19t18 8h19q10 0 18 -8t8 -19v-1380q0 -11 -8 -19t-18 -8h-19q-10 0 -18 8t-8 19v237q-62 -133 -178.5 -211t-268.5 -78q-145 0 -264.5 73.5t-186.5 198t-67 271.5zM156 518 q0 -127 56.5 -235t159 -172t228.5 -64t229 64t160.5 172t57.5 235q0 128 -57.5 236t-160.5 172.5t-229 64.5t-228.5 -64.5t-159 -172.5t-56.5 -236z" />
<glyph unicode="e" horiz-adv-x="1159" d="M82 518q0 148 63 272t179.5 198.5t263.5 74.5q211 0 350 -153.5t139 -389.5q0 -15 -11 -26t-26 -11h-884q14 -183 143 -309.5t311 -126.5q206 0 344 152q14 18 35 4l19 -13q10 -6 12 -18.5t-6 -21.5q-155 -175 -404 -175q-152 0 -273.5 73.5t-188 197t-66.5 272.5z M156 555h843q-9 187 -125 311.5t-286 124.5q-118 0 -215 -59.5t-153 -158.5t-64 -218z" />
<glyph unicode="f" horiz-adv-x="669" d="M72 993v17q0 12 7.5 20t18.5 8h158v37q0 54 8 101.5t30 98t57 87.5t93.5 62.5t135.5 29.5q11 0 19.5 -8.5t8.5 -18.5v-18q0 -10 -7.5 -18.5t-18.5 -10.5q-126 -5 -189 -75.5t-63 -229.5v-37h252q11 0 18.5 -8t7.5 -20v-17q0 -12 -7.5 -20t-18.5 -8h-252v-938 q0 -11 -8.5 -19t-20.5 -8h-18q-11 0 -19 8t-8 19v938h-158q-11 0 -18.5 8t-7.5 20z" />
<glyph unicode="g" d="M82 547q0 144 68 262.5t187 186t263 67.5q150 0 266.5 -72.5t177.5 -197.5v217q0 12 8 20t19 8h19q12 0 20 -8t8 -20v-901q0 -100 -34 -193t-97 -167t-163 -118.5t-222 -44.5q-268 0 -426 166q-9 9 -7 22t13 19l15 10q20 13 34 -4q136 -139 371 -139q88 0 162.5 26.5 t125 70.5t86 102t52 121.5t16.5 128.5v192q-61 -125 -177.5 -198.5t-266.5 -73.5q-144 0 -263 68t-187 187t-68 263zM154 547q0 -190 127.5 -317.5t318.5 -127.5q189 0 316.5 127.5t127.5 317.5q0 189 -127.5 316.5t-316.5 127.5q-190 0 -318 -127.5t-128 -316.5z" />
<glyph unicode="h" horiz-adv-x="1181" d="M174 27v1380q0 11 8.5 19t20.5 8h18q11 0 19 -8t8 -19v-571q53 102 145 164.5t215 62.5q78 0 144.5 -26t112.5 -69.5t79 -100t48.5 -116.5t15.5 -120v-604q0 -11 -8 -19t-19 -8h-18q-12 0 -20.5 8t-8.5 19v604q0 64 -20 126t-58.5 115t-103 86t-144.5 33 q-82 0 -152 -34.5t-114.5 -89.5t-69 -121t-24.5 -132v-587q0 -11 -8 -19t-19 -8h-18q-12 0 -20.5 8t-8.5 19z" />
<glyph unicode="i" horiz-adv-x="421" d="M152 1329q0 25 16.5 42.5t40.5 17.5q25 0 42 -17.5t17 -42.5t-17 -42t-42 -17t-41 17t-16 42zM174 27v983q0 12 8 20t19 8h18q11 0 19 -8t8 -20v-983q0 -11 -8 -19t-19 -8h-18q-11 0 -19 8t-8 19z" />
<glyph unicode="j" horiz-adv-x="421" d="M-82 -332q0 10 8 18.5t19 10.5q136 6 183.5 70.5t47.5 195.5v1047q0 12 8 20t19 8h18q12 0 20.5 -8t8.5 -20v-1047q0 -172 -72.5 -253t-230.5 -87q-11 0 -20 8.5t-9 18.5v18zM154 1329q0 25 17 42.5t42 17.5t42 -17.5t17 -42.5t-17 -42t-42 -17t-42 17t-17 42z" />
<glyph unicode="k" horiz-adv-x="983" d="M174 27v1380q0 11 8 19t19 8h18q12 0 20.5 -8t8.5 -19v-864l489 479q16 16 37 16h39q12 0 17 -11t-3 -19l-481 -473l543 -504q9 -7 4.5 -19t-16.5 -12h-39q-20 0 -37 14l-553 514v-501q0 -11 -8.5 -19t-20.5 -8h-18q-11 0 -19 8t-8 19z" />
<glyph unicode="l" horiz-adv-x="419" d="M174 27v1380q0 11 8 19t19 8h18q12 0 20.5 -8t8.5 -19v-1380q0 -11 -8.5 -19t-20.5 -8h-18q-11 0 -19 8t-8 19z" />
<glyph unicode="m" horiz-adv-x="1734" d="M174 27v983q0 12 8.5 20t20.5 8h16q12 0 20.5 -8t8.5 -20v-152q42 92 120.5 148.5t182.5 56.5q125 0 208 -62.5t120 -166.5q42 103 126 166t203 63q88 0 157 -33t111.5 -89t64.5 -125.5t22 -147.5v-641q0 -11 -8.5 -19t-20.5 -8h-16q-12 0 -20.5 8t-8.5 19v641 q0 81 -29 152.5t-94.5 121t-157.5 49.5q-75 0 -135 -33t-95.5 -85t-54 -110t-18.5 -114v-622q0 -11 -8 -19t-20 -8h-17q-12 0 -20.5 8t-8.5 19v641q0 60 -17 116t-50 103t-88.5 75.5t-124.5 28.5q-75 0 -135.5 -33t-95.5 -85t-53.5 -110t-18.5 -114v-622q0 -11 -8.5 -19 t-20.5 -8h-16q-12 0 -20.5 8t-8.5 19z" />
<glyph unicode="n" horiz-adv-x="1181" d="M174 27v983q0 12 8 20t19 8h18q12 0 20.5 -8t8.5 -20v-174q50 102 143 164.5t217 62.5q78 0 144.5 -26t112.5 -69.5t79 -100t48.5 -116.5t15.5 -120v-604q0 -11 -8.5 -19t-20.5 -8h-18q-11 0 -19 8t-8 19v604q0 64 -20 126t-58.5 115t-103 86t-144.5 33q-83 0 -153 -34.5 t-114 -89.5t-68.5 -121t-24.5 -132v-587q0 -11 -8.5 -19t-20.5 -8h-18q-11 0 -19 8t-8 19z" />
<glyph unicode="o" horiz-adv-x="1230" d="M82 518q0 147 70.5 272.5t193 199t268.5 73.5q147 0 270 -73.5t194 -199t71 -272.5t-70.5 -272t-194 -199t-270.5 -74q-146 0 -268.5 74t-193 199t-70.5 272zM154 518q0 -195 134 -333t326 -138q127 0 233 63.5t167 172t61 235.5t-61 235.5t-167 172t-233 63.5 q-192 0 -326 -138t-134 -333z" />
<glyph unicode="p" d="M174 -369v1379q0 12 8 20t19 8h18q11 0 19 -8t8 -20v-236q62 133 178.5 211t267.5 78q145 0 264.5 -73.5t186.5 -198.5t67 -273q0 -147 -67 -271.5t-186.5 -198t-264.5 -73.5q-151 0 -267.5 78t-178.5 211v-633q0 -10 -8 -18t-19 -8h-18q-11 0 -19 8t-8 18zM246 518 q0 -127 57 -235t160 -172t229 -64t228.5 64t159.5 172t57 235q0 128 -57 236t-159.5 172.5t-228.5 64.5t-229 -64.5t-160 -172.5t-57 -236z" />
<glyph unicode="q" horiz-adv-x="1294" d="M84 518q0 148 66.5 273t186 198.5t265.5 73.5q152 0 268.5 -78.5t176.5 -210.5v236q0 12 8 20t20 8h19q11 0 18.5 -8t7.5 -20v-1379q0 -11 -8 -18.5t-18 -7.5h-19q-12 0 -20 7.5t-8 18.5v633q-60 -132 -176.5 -210.5t-268.5 -78.5q-146 0 -265.5 73.5t-186 198 t-66.5 271.5zM156 518q0 -127 57 -235t160 -172t229 -64t228.5 64t159.5 172t57 235q0 128 -57 236t-159.5 172.5t-228.5 64.5t-229 -64.5t-160 -172.5t-57 -236z" />
<glyph unicode="r" horiz-adv-x="706" d="M174 27v983q0 12 8 20t19 8h18q11 0 19 -8t8 -20v-209q50 117 142.5 186t215.5 76q12 0 21.5 -8.5t9.5 -20.5v-35q0 -10 -8 -18t-19 -10q-174 -7 -268 -127t-94 -316v-501q0 -11 -8 -19t-19 -8h-18q-11 0 -19 8t-8 19z" />
<glyph unicode="s" horiz-adv-x="890" d="M102 190q-4 10 2.5 21t18.5 14l18 4q10 2 19 -3t12 -15q25 -67 97 -115.5t173 -48.5q134 0 204.5 66t70.5 161q0 42 -13 73.5t-31.5 51t-56.5 36.5t-70 26.5t-91 23.5q-41 10 -67 17t-64.5 20.5t-63 27.5t-52.5 36.5t-43.5 48.5t-26.5 62.5t-11 80.5q0 121 89 203t220 82 q102 0 180 -51t113 -140q4 -12 -1.5 -22.5t-16.5 -13.5l-19 -7q-9 -2 -19 3t-14 14q-26 69 -84.5 107t-138.5 38q-100 0 -167.5 -61t-67.5 -152q0 -42 12.5 -73.5t33 -53t57.5 -39.5t73.5 -29.5t93.5 -25.5q44 -10 66 -16t62 -19t62 -25.5t50.5 -34.5t43 -47t25.5 -61 t11 -80q0 -57 -21.5 -109t-62.5 -95t-109.5 -69t-155.5 -26q-129 0 -218.5 62.5t-121.5 152.5z" />
<glyph unicode="t" horiz-adv-x="700" d="M43 993v17q0 12 8.5 20t20.5 8h188v191q0 11 8.5 18.5t20.5 7.5h18q11 0 19 -8t8 -18v-191h233q11 0 19 -8t8 -20v-17q0 -12 -8 -20t-19 -8h-233v-686q0 -131 55 -177q47 -40 145 -40q17 0 35 1q12 1 20.5 -6.5t8.5 -19.5v-19q0 -11 -7.5 -18.5t-17.5 -7.5q-21 -3 -43 -3 q-14 -1 -30 1q-38 4 -72.5 10.5t-65 27.5t-53.5 51.5t-36 81.5t-13 118v686h-188q-12 0 -20.5 8t-8.5 20z" />
<glyph unicode="u" horiz-adv-x="1181" d="M174 406v604q0 12 8.5 20t20.5 8h16q12 0 20.5 -8t8.5 -20v-604q0 -50 12 -99.5t38.5 -96.5t63.5 -83t92 -58t119 -22q83 0 153 34.5t114.5 89.5t69 121t24.5 132v586q0 12 8.5 20t20.5 8h18q11 0 19 -8t8 -20v-983q0 -11 -8 -19t-19 -8h-18q-12 0 -20.5 8t-8.5 19v176 q-50 -102 -143.5 -165t-217.5 -63q-96 0 -174.5 40t-126 103.5t-73 138t-25.5 149.5z" />
<glyph unicode="v" horiz-adv-x="1028" d="M51 1012q-3 9 2.5 17.5t14.5 8.5h30q22 0 33 -22l383 -920l383 920q11 22 33 22h31q9 0 14 -8.5t2 -17.5l-414 -989q-10 -23 -33 -23h-32q-26 0 -33 23z" />
<glyph unicode="w" horiz-adv-x="1511" d="M49 1014q-3 9 3 16.5t16 7.5h26q25 0 35 -24l317 -901l269 899q7 26 35 26h12q28 0 35 -26l268 -899l317 901q10 24 35 24h27q10 0 15.5 -7.5t2.5 -16.5l-350 -989q-3 -11 -13 -18t-22 -7h-24q-28 0 -35 27l-262 876l-262 -876q-7 -27 -35 -27h-25q-12 0 -22 7t-13 18z " />
<glyph unicode="x" horiz-adv-x="952" d="M71 10q-5 10 1 19l356 503l-338 478q-6 9 -1 18.5t15 9.5h43q19 0 29 -16l301 -422l299 422q10 16 31 16h41q11 0 16 -9.5t-2 -18.5l-338 -478l357 -503q7 -9 1.5 -19t-16.5 -10h-43q-18 0 -28 16l-318 447l-319 -447q-10 -16 -29 -16h-43q-10 0 -15 10z" />
<glyph unicode="y" horiz-adv-x="1028" d="M53 1012q-4 9 2 17.5t15 8.5h28q26 0 33 -20l406 -862l360 860q9 22 35 22h29q9 0 14 -8.5t2 -17.5q-170 -397 -406 -967q-77 -184 -109 -243q-84 -153 -193 -186q-35 -11 -74 -11h-23q-9 2 -17 10t-8 18v17q0 12 8.5 19t20.5 7q39 0 71.5 10.5t61 36.5t50.5 54t47.5 78 t44 93.5t47.5 114.5z" />
<glyph unicode="z" horiz-adv-x="919" d="M102 27v28q0 16 11 31l598 879h-564q-11 0 -18.5 8t-7.5 20v17q0 12 7.5 20t18.5 8h625q11 0 19 -8t8 -20v-29q0 -13 -11 -31l-598 -876h598q12 0 20.5 -8.5t8.5 -20.5v-18q0 -11 -8.5 -19t-20.5 -8h-659q-11 0 -19 8t-8 19z" />
<glyph unicode="{" horiz-adv-x="849" d="M184 711v14q0 9 8.5 17t18.5 10q75 5 109 50t34 142v383q0 155 76.5 226.5t228.5 76.5q11 0 20 -8t9 -18v-19q0 -11 -8 -18.5t-18 -7.5q-130 -6 -182 -64t-52 -186v-365q0 -183 -131 -225v-4q131 -42 131 -226v-364q0 -128 52 -186t182 -62q11 -2 18.5 -10.5t7.5 -18.5 v-18q0 -10 -9 -18.5t-20 -8.5q-152 5 -228.5 76.5t-76.5 226.5v383q0 97 -34 142.5t-109 50.5q-11 2 -19 10.5t-8 18.5z" />
<glyph unicode="|" horiz-adv-x="442" d="M184 -276v1808q0 11 8.5 19t20.5 8h16q12 0 20.5 -8t8.5 -19v-1808q0 -12 -8.5 -20.5t-20.5 -8.5h-16q-12 0 -20.5 8.5t-8.5 20.5z" />
<glyph unicode="}" horiz-adv-x="851" d="M164 -152q0 10 7.5 18.5t18.5 10.5q130 4 182 62t52 186v364q0 184 131 226v4q-131 42 -131 225v365q0 128 -52 186t-182 64q-10 0 -18 7.5t-8 18.5v19q0 11 8.5 18.5t20.5 7.5q152 -5 228.5 -76.5t76.5 -226.5v-383q0 -97 33.5 -142.5t109.5 -49.5q11 -2 19 -10t8 -17 v-14q0 -10 -8 -18.5t-19 -10.5q-76 -4 -109.5 -50t-33.5 -143v-383q0 -155 -76.5 -226.5t-228.5 -76.5q-12 0 -20.5 8t-8.5 19v18z" />
<glyph unicode="~" horiz-adv-x="1173" d="M172 539q57 166 227 166q71 0 197 -58q120 -57 188 -57q109 0 148 115q3 9 13 14t20 2l18 -4q11 -3 16.5 -14t1.5 -21q-55 -164 -217 -164q-37 0 -78.5 10.5t-67.5 21t-71 30.5q-6 3 -26 11.5t-28.5 12t-26 10.5t-29.5 10t-27.5 6t-30.5 3q-61 -1 -98 -29t-59 -88 q-4 -10 -14 -14.5t-19 -1.5l-19 4q-11 3 -16.5 14t-1.5 21z" />
<glyph unicode="&#xa1;" horiz-adv-x="501" d="M186 997q0 28 19 47t47 19t47.5 -19t19.5 -47t-19.5 -47.5t-47.5 -19.5t-47 19.5t-19 47.5zM215 -369v1008q0 11 8.5 19t20.5 8h18q10 0 18.5 -8t8.5 -19v-1008q0 -10 -8 -18t-19 -8h-18q-12 0 -20.5 7.5t-8.5 18.5z" />
<glyph unicode="&#xa2;" horiz-adv-x="1183" d="M102 717q0 210 139 366.5t343 176.5v147q0 11 8 19t20 8h19q10 0 18 -8t8 -19v-145q124 -6 230 -65t176 -157q8 -9 5 -22t-13 -19l-17 -8q-8 -4 -18 -2t-16 10q-63 88 -159.5 138.5t-209.5 50.5q-127 0 -233 -63.5t-167 -172t-61 -235.5t61 -235.5t167 -172t233 -63.5 q114 0 210 50t159 138q14 20 34 8l17 -8q11 -6 13 -18t-5 -23q-71 -97 -177 -156t-229 -63v-147q0 -11 -8 -19t-18 -8h-19q-12 0 -20 8t-8 19v147q-204 20 -343 176.5t-139 366.5z" />
<glyph unicode="&#xa3;" horiz-adv-x="1136" d="M102 27v22q0 24 19 37q34 25 65 56t68 82t59.5 122t22.5 152q0 58 -25 145h-190q-7 0 -13 5.5t-6 13.5v18q0 7 5.5 12.5t13.5 5.5h174q-3 10 -14 44.5t-15.5 49t-13.5 46t-13 51.5t-9 48t-7 53.5t-2 51.5q0 172 112.5 293t278.5 121q133 0 227 -70t126 -194 q3 -10 -3.5 -20.5t-17.5 -12.5l-18 -6q-10 -3 -20.5 3.5t-12.5 17.5q-25 96 -95 152t-186 56q-97 0 -171.5 -50.5t-111 -127t-36.5 -162.5q0 -55 11.5 -107.5t37.5 -131.5t33 -105h461q6 0 11 -5.5t5 -12.5v-18q0 -7 -5 -13t-11 -6h-447q19 -71 19 -145q0 -73 -20.5 -142.5 t-54.5 -123t-67 -92t-67 -66.5h809q11 0 18.5 -8.5t7.5 -20.5v-18q0 -11 -8 -19t-18 -8h-879q-11 0 -19 8t-8 19z" />
<glyph unicode="&#xa4;" horiz-adv-x="999" d="M110 358q0 8 5 13l139 139q-76 89 -76 207t76 207l-139 139q-5 5 -5 13t5 14l12 12q6 4 14.5 4t12.5 -4l139 -139q88 75 207 75t207 -75l139 139q4 4 12 4t12 -4l15 -12q5 -6 5 -14t-5 -13l-140 -139q76 -89 76 -207t-76 -207l140 -139q5 -5 5 -13t-5 -12l-15 -14 q-4 -4 -12 -4t-12 4l-139 139q-89 -76 -207 -76t-207 76l-139 -139q-4 -4 -12.5 -4t-14.5 4l-12 14q-5 4 -5 12zM250 717q0 -103 73.5 -175.5t176.5 -72.5t175.5 72.5t72.5 175.5t-72.5 175.5t-175.5 72.5t-176.5 -72.5t-73.5 -175.5z" />
<glyph unicode="&#xa5;" horiz-adv-x="1325" d="M79 1424q5 10 15 10h39q21 0 31 -19l500 -825l499 825q9 19 31 19h37q10 0 15.5 -9.5t0.5 -17.5l-516 -840h326q7 0 12.5 -5.5t5.5 -12.5v-19q0 -8 -5.5 -13t-12.5 -5h-357v-190h357q7 0 12.5 -5.5t5.5 -13.5v-16q0 -8 -5.5 -13.5t-12.5 -5.5h-357v-241q0 -11 -8 -19 t-20 -8h-19q-10 0 -18 8t-8 19v241h-357q-7 0 -12.5 5.5t-5.5 13.5v16q0 8 5.5 13.5t12.5 5.5h357v190h-357q-8 0 -13 5t-5 13v19q0 7 5 12.5t13 5.5h326l-516 840q-6 7 -1 17z" />
<glyph unicode="&#xa6;" horiz-adv-x="442" d="M184 -276v671q0 11 8 19t19 8h18q12 0 19.5 -8t7.5 -19v-671q0 -12 -7.5 -20.5t-19.5 -8.5h-18q-11 0 -19 8.5t-8 20.5zM184 850v682q0 10 8 18.5t19 8.5h18q12 0 19.5 -8t7.5 -19v-682q0 -11 -7.5 -19t-19.5 -8h-18q-11 0 -19 8.5t-8 18.5z" />
<glyph unicode="&#xa7;" horiz-adv-x="1146" d="M164 645q0 173 198 293q-92 79 -92 203q0 99 52 173.5t129.5 110t164.5 35.5q69 0 126.5 -16.5t93.5 -40.5t63.5 -57t41 -59t22.5 -54q4 -10 -2 -21t-17 -14l-18 -4q-11 -3 -20.5 2.5t-12.5 15.5q-8 23 -19.5 44.5t-34 46t-51.5 42t-73.5 29.5t-98.5 12q-70 0 -131 -26.5 t-102 -84t-41 -134.5q0 -36 9.5 -65.5t30.5 -53t43.5 -41t59 -34.5t66.5 -28t76 -26q57 -18 99.5 -34.5t94.5 -45t85 -59.5t56 -77t23 -99q0 -174 -199 -295q93 -79 93 -203q0 -75 -30.5 -136.5t-80.5 -100.5t-111 -60t-125 -21q-68 0 -125.5 16.5t-93 40t-63.5 56.5 t-41.5 59t-22.5 54q-3 11 3 21.5t16 13.5l18 4q10 3 20 -2.5t13 -14.5q10 -30 27 -57t48 -56t83 -46t118 -17q111 0 193 65.5t82 180.5q0 36 -9.5 65.5t-30.5 53t-43.5 41t-59 34.5t-66.5 28t-76 26q-59 20 -100 35.5t-94 44.5t-85.5 59.5t-55.5 77t-23 100.5zM238 645 q0 -87 77.5 -142.5t229.5 -105.5q134 -47 188 -78q30 15 57.5 36t56.5 53t46.5 76t17.5 94q0 87 -77.5 142t-229.5 103q-134 47 -186 78q-30 -16 -57.5 -36t-57 -51.5t-47.5 -75t-18 -93.5z" />
<glyph unicode="&#xa8;" horiz-adv-x="841" d="M184 1327q0 29 20.5 49.5t49.5 20.5t50.5 -20.5t21.5 -49.5t-21.5 -50.5t-50.5 -21.5t-49.5 21.5t-20.5 50.5zM516 1327q0 29 21.5 49.5t50.5 20.5t49 -20.5t20 -49.5q0 -30 -20 -51t-49 -21t-50.5 21.5t-21.5 50.5z" />
<glyph unicode="&#xa9;" horiz-adv-x="1669" d="M123 717q0 193 95.5 356.5t260 258.5t357.5 95q192 0 355.5 -95t259 -258.5t95.5 -356.5t-95.5 -357t-259 -259t-355.5 -95q-145 0 -277 56.5t-227.5 151.5t-152 226.5t-56.5 276.5zM178 717q0 -178 88.5 -329.5t240 -240t329.5 -88.5t329.5 88.5t239.5 240t88 329.5 q0 133 -52 255t-140 210t-210 140t-255 52q-178 0 -329.5 -88t-240 -239.5t-88.5 -329.5zM485 717q0 151 101.5 259.5t249.5 108.5q163 0 266 -127q11 -15 -4 -26l-21 -12q-11 -11 -22 4q-87 100 -219 100q-126 0 -207.5 -89t-81.5 -218t81.5 -218t207.5 -89q132 0 219 100 q11 15 22 4l21 -12q6 -5 7 -13t-3 -14q-103 -127 -266 -127q-148 0 -249.5 109t-101.5 260z" />
<glyph unicode="&#xab;" horiz-adv-x="970" d="M134 514q0 18 9 31l215 315q10 17 31 17h35q10 0 15 -10t-1 -19l-227 -334l227 -334q6 -9 1 -18.5t-15 -9.5h-35q-21 0 -31 16l-215 315q-9 13 -9 31zM526 514q0 18 9 31l215 315q10 17 28 17h35q11 0 16.5 -10t-0.5 -19l-227 -334l227 -334q6 -9 0.5 -18.5t-16.5 -9.5 h-35q-18 0 -28 16l-215 315q-9 13 -9 31z" />
<glyph unicode="&#xad;" horiz-adv-x="1026" d="M184 602v16q0 12 8.5 20.5t20.5 8.5h602q11 0 19 -8.5t8 -20.5v-16q0 -12 -8 -20.5t-19 -8.5h-602q-12 0 -20.5 8.5t-8.5 20.5z" />
<glyph unicode="&#xae;" horiz-adv-x="1669" d="M123 717q0 193 95.5 356.5t259.5 258.5t356 95q193 0 357 -95t259.5 -258.5t95.5 -356.5q0 -192 -95.5 -356t-259.5 -259.5t-357 -95.5q-144 0 -275.5 56.5t-227 152t-152 227t-56.5 275.5zM178 717q0 -178 88 -329.5t239 -240t329 -88.5t329.5 88.5t239.5 240t88 329.5 q0 133 -52 255t-140 210t-210 140t-255 52q-178 0 -329 -88t-239 -239.5t-88 -329.5zM604 385v705q0 7 5.5 12.5t13.5 5.5h215q126 0 199 -61t73 -162q0 -83 -52.5 -139.5t-144.5 -73.5l220 -283q5 -6 0.5 -14t-13.5 -8h-20q-21 0 -29 14l-221 283h-12h-174v-279 q0 -7 -5.5 -12.5t-13.5 -5.5h-22q-8 0 -13.5 5.5t-5.5 12.5zM664 723h174q102 0 157.5 43t55.5 119t-56 120t-157 44h-174v-326z" />
<glyph unicode="&#xaf;" horiz-adv-x="817" d="M184 1309v18q0 12 8.5 19.5t20.5 7.5h395q11 0 19 -7.5t8 -19.5v-18q0 -11 -8.5 -19t-18.5 -8h-395q-12 0 -20.5 8t-8.5 19z" />
<glyph unicode="&#xb0;" horiz-adv-x="790" d="M102 1139q0 120 86 205.5t207 85.5t207 -85.5t86 -205.5q0 -121 -86 -207t-207 -86t-207 86t-86 207zM158 1139q0 -98 69.5 -168t167.5 -70t168 70t70 168t-70 167.5t-168 69.5t-167.5 -69.5t-69.5 -167.5z" />
<glyph unicode="&#xb1;" horiz-adv-x="1171" d="M186 27v18q0 12 8 20.5t19 8.5h748q12 0 20 -8.5t8 -20.5v-18q0 -11 -8 -19t-20 -8h-748q-11 0 -19 8t-8 19zM186 729v19q0 10 8 18t19 8h338v338q0 10 8.5 18.5t18.5 8.5h18q10 0 18.5 -8.5t8.5 -18.5v-338h338q12 0 20 -7.5t8 -18.5v-19q0 -12 -8 -20.5t-20 -8.5h-338 v-335q0 -12 -8 -20.5t-19 -8.5h-18q-11 0 -19 8.5t-8 20.5v335h-338q-11 0 -19 8.5t-8 20.5z" />
<glyph unicode="&#xb4;" horiz-adv-x="587" d="M193 1229l106 229q10 23 33 23h37q10 0 15.5 -10t0.5 -19l-143 -227q-8 -15 -23 -15h-14q-7 0 -11 6.5t-1 12.5z" />
<glyph unicode="&#xb6;" horiz-adv-x="1144" d="M102 1149q0 89 47.5 155.5t121 98t159.5 31.5h567q11 0 19 -8t8 -19v-18q0 -12 -8 -20.5t-19 -8.5h-129v-1514q0 -10 -8 -18t-18 -8h-19q-11 0 -18.5 8t-7.5 18v1514h-295v-1514q0 -10 -8 -18t-19 -8h-18q-11 0 -19 8t-8 18v1016q-135 0 -231.5 76.5t-96.5 210.5z" />
<glyph unicode="&#xb8;" horiz-adv-x="751" d="M197 -446.5q-4 12.5 2 22.5l10 16q5 9 14.5 13t18.5 0q40 -16 82.5 -18.5t79.5 8t61 41t24 77.5q0 73 -60.5 100.5t-131.5 -3.5q-19 -10 -33 8l-14 20q-10 14 -4 27l57 119q6 16 25 16h18q8 0 12.5 -6.5t1.5 -13.5l-55 -113q99 33 179.5 -11t80.5 -149q0 -63 -32 -109 t-82.5 -66.5t-113.5 -20t-124 25.5q-12 4 -16 16.5z" />
<glyph unicode="&#xbb;" horiz-adv-x="970" d="M142 161.5q-5 9.5 1 18.5l226 334l-226 334q-6 9 -1 19t16 10h35q18 0 28 -17l215 -315q9 -14 9 -31.5t-9 -30.5l-215 -315q-10 -16 -28 -16h-35q-11 0 -16 9.5zM531.5 161.5q-5.5 9.5 0.5 18.5l228 334l-228 334q-6 9 -0.5 19t17.5 10h33q20 0 30 -17l215 -315 q9 -14 9 -31.5t-9 -30.5l-215 -315q-10 -16 -30 -16h-33q-12 0 -17.5 9.5z" />
<glyph unicode="&#xbf;" horiz-adv-x="864" d="M61 -59q0 56 12 105.5t37.5 92.5t47 71t57.5 69q41 47 61 72t50 72.5t44 100.5t17 117q0 10 8 17.5t19 7.5h18q12 0 20 -8.5t7 -20.5q-3 -73 -19.5 -134.5t-48.5 -113.5t-56 -83t-67 -77q-45 -51 -69 -84t-45 -88t-21 -116q0 -120 86.5 -204.5t208.5 -84.5q116 0 191 66 t106 163q3 10 12.5 16t18.5 3l18 -4q12 -3 18 -13t3 -22q-17 -54 -47 -102t-74 -90t-108 -66.5t-138 -24.5q-152 0 -259.5 106.5t-107.5 256.5zM356 997q0 28 20 47t48 19t46.5 -19t18.5 -47t-18.5 -47.5t-46.5 -19.5t-48 19.5t-20 47.5z" />
<glyph unicode="&#xc0;" horiz-adv-x="1271" d="M70 25l516 1384q11 25 35 25h28q24 0 35 -25l516 -1384q3 -9 -2.5 -17t-15.5 -8h-29q-11 0 -20.5 7.5t-12.5 17.5l-155 413h-662l-153 -413q-11 -25 -35 -25h-29q-9 0 -14 8t-2 17zM332 512h606l-303 813zM445 1880.5q5 9.5 16 9.5h37q23 0 32 -22l107 -230 q3 -6 -0.5 -12t-9.5 -6h-15q-14 0 -24 14l-142 228q-6 9 -1 18.5z" />
<glyph unicode="&#xc1;" horiz-adv-x="1271" d="M70 25l516 1384q11 25 35 25h28q24 0 35 -25l516 -1384q3 -9 -2.5 -17t-15.5 -8h-29q-11 0 -20.5 7.5t-12.5 17.5l-155 413h-662l-153 -413q-11 -25 -35 -25h-29q-9 0 -14 8t-2 17zM332 512h606l-303 813zM637 1638l106 230q9 22 33 22h37q10 0 15.5 -9.5t0.5 -18.5 l-143 -228q-7 -14 -22 -14h-15q-7 0 -11 6t-1 12z" />
<glyph unicode="&#xc2;" horiz-adv-x="1271" d="M70 25l516 1384q11 25 35 25h28q24 0 35 -25l516 -1384q3 -9 -2.5 -17t-15.5 -8h-29q-11 0 -20.5 7.5t-12.5 17.5l-155 413h-662l-153 -413q-11 -25 -35 -25h-29q-9 0 -14 8t-2 17zM332 512h606l-303 813zM394.5 1628q-3.5 8 2.5 14l189 230q12 18 35 18h30q23 0 35 -18 l188 -230q5 -6 2 -14t-12 -8h-24q-22 0 -37 18l-168 205l-168 -205q-12 -18 -35 -18h-26q-8 0 -11.5 8z" />
<glyph unicode="&#xc3;" horiz-adv-x="1271" d="M70 25l516 1384q11 25 35 25h28q24 0 35 -25l516 -1384q3 -9 -2.5 -17t-15.5 -8h-29q-11 0 -20.5 7.5t-12.5 17.5l-155 413h-662l-153 -413q-11 -25 -35 -25h-29q-9 0 -14 8t-2 17zM332 512h606l-303 813zM367 1649q13 54 43 85.5t53.5 38.5t48.5 7q9 0 19 -1t17.5 -2.5 t17.5 -5t16 -5.5t17 -7t15 -7l16 -8t15 -7q68 -37 109 -37q57 0 75 67q1 10 10.5 16.5t20.5 4.5l17 -2q12 -1 18.5 -12t3.5 -23q-31 -125 -145 -125q-54 0 -142 45q-68 35 -100 35q-56 0 -74 -72q-7 -23 -30 -20l-19 2q-12 3 -18.5 12.5t-3.5 20.5z" />
<glyph unicode="&#xc4;" horiz-adv-x="1271" d="M70 25l516 1384q11 25 35 25h28q24 0 35 -25l516 -1384q3 -9 -2.5 -17t-15.5 -8h-29q-11 0 -20.5 7.5t-12.5 17.5l-155 413h-662l-153 -413q-11 -25 -35 -25h-29q-9 0 -14 8t-2 17zM332 512h606l-303 813zM399 1737q0 29 20.5 49t49.5 20q30 0 51 -20t21 -49t-21.5 -50.5 t-50.5 -21.5t-49.5 21.5t-20.5 50.5zM731 1737q0 29 21 49t51 20q29 0 49 -20t20 -49q0 -30 -20 -51t-49 -21t-50.5 21.5t-21.5 50.5z" />
<glyph unicode="&#xc5;" horiz-adv-x="1271" d="M70 25l516 1384q11 25 35 25h28q24 0 35 -25l516 -1384q3 -9 -2.5 -17t-15.5 -8h-29q-11 0 -20.5 7.5t-12.5 17.5l-155 413h-662l-153 -413q-11 -25 -35 -25h-29q-9 0 -14 8t-2 17zM332 512h606l-303 813zM422 1755q0 88 63 150.5t152 62.5q88 0 150.5 -62.5t62.5 -150.5 q0 -89 -62.5 -151t-150.5 -62q-89 0 -152 62t-63 151zM496 1755q0 -59 41 -100t100 -41q57 0 98 41.5t41 99.5t-41 98.5t-98 40.5q-59 0 -100 -40.5t-41 -98.5z" />
<glyph unicode="&#xc6;" horiz-adv-x="1921" d="M76 27l688 1376q17 31 49 31h938q12 0 20.5 -8t8.5 -19v-18q0 -12 -8.5 -20.5t-20.5 -8.5h-653v-582h608q11 0 19 -8t8 -18v-19q0 -10 -8 -18t-19 -8h-608v-633h674q11 0 18.5 -8.5t7.5 -20.5v-18q0 -11 -8 -19t-18 -8h-719q-12 0 -20.5 8t-8.5 19v411h-662l-208 -418 q-10 -20 -33 -20h-29q-10 0 -15.5 9t-0.5 18zM399 512h625v848h-201z" />
<glyph unicode="&#xc7;" horiz-adv-x="1452" d="M102 717q0 205 91.5 375t253.5 269t360 99q160 0 300.5 -66t242.5 -182q8 -9 5.5 -21.5t-12.5 -19.5l-16 -10q-8 -6 -18.5 -4t-16.5 10q-91 103 -216 161t-269 58q-178 0 -323.5 -89t-227.5 -242.5t-82 -337.5t82 -337.5t227.5 -243t323.5 -89.5q144 0 269 58t216 163 q6 8 16.5 9t18.5 -5l16 -10q10 -6 12.5 -19t-5.5 -22q-102 -116 -242.5 -181t-300.5 -65h-27l-53 -108q46 17 92.5 12.5t83.5 -23t60.5 -58t23.5 -91.5q0 -64 -32 -110t-82.5 -66.5t-114 -19.5t-125.5 26q-10 3 -14 15t2 22l8 18q13 20 35 13q39 -16 81.5 -19.5t80 7 t61.5 41t24 77.5q0 74 -61 101.5t-133 -5.5q-19 -7 -31 9l-16 20q-9 12 -2 29l55 115q-178 21 -320 123t-221.5 263t-79.5 351z" />
<glyph unicode="&#xc8;" horiz-adv-x="1079" d="M184 27v1380q0 11 8 19t19 8h700q11 0 19 -8t8 -19v-18q0 -12 -8 -20.5t-19 -8.5h-653v-582h606q12 0 19.5 -7.5t7.5 -18.5v-19q0 -11 -7.5 -18.5t-19.5 -7.5h-606v-633h672q12 0 20 -8.5t8 -20.5v-18q0 -11 -8 -19t-20 -8h-719q-11 0 -19 8t-8 19zM417 1880.5 q5 9.5 15 9.5h37q24 0 33 -22l106 -230q3 -6 -0.5 -12t-9.5 -6h-14q-14 0 -25 14l-141 228q-6 9 -1 18.5z" />
<glyph unicode="&#xc9;" horiz-adv-x="1079" d="M184 27v1380q0 11 8 19t19 8h700q11 0 19 -8t8 -19v-18q0 -12 -8 -20.5t-19 -8.5h-653v-582h606q12 0 19.5 -7.5t7.5 -18.5v-19q0 -11 -7.5 -18.5t-19.5 -7.5h-606v-633h672q12 0 20 -8.5t8 -20.5v-18q0 -11 -8 -19t-20 -8h-719q-11 0 -19 8t-8 19zM510 1638l106 230 q9 22 33 22h37q10 0 15.5 -9.5t0.5 -18.5l-143 -228q-7 -14 -22 -14h-15q-7 0 -11 6t-1 12z" />
<glyph unicode="&#xca;" horiz-adv-x="1079" d="M184 27v1380q0 11 8 19t19 8h700q11 0 19 -8t8 -19v-18q0 -12 -8 -20.5t-19 -8.5h-653v-582h606q12 0 19.5 -7.5t7.5 -18.5v-19q0 -11 -7.5 -18.5t-19.5 -7.5h-606v-633h672q12 0 20 -8.5t8 -20.5v-18q0 -11 -8 -19t-20 -8h-719q-11 0 -19 8t-8 19zM329 1628q-3 8 3 14 l188 230q12 18 35 18h31q23 0 35 -18l188 -230q5 -6 2 -14t-12 -8h-25q-22 0 -37 18l-168 205l-168 -205q-12 -18 -34 -18h-27q-8 0 -11 8z" />
<glyph unicode="&#xcb;" horiz-adv-x="1079" d="M184 27v1380q0 11 8 19t19 8h700q11 0 19 -8t8 -19v-18q0 -12 -8 -20.5t-19 -8.5h-653v-582h606q12 0 19.5 -7.5t7.5 -18.5v-19q0 -11 -7.5 -18.5t-19.5 -7.5h-606v-633h672q12 0 20 -8.5t8 -20.5v-18q0 -11 -8 -19t-20 -8h-719q-11 0 -19 8t-8 19zM334 1737q0 29 20 49 t49 20q30 0 51 -20t21 -49t-21.5 -50.5t-50.5 -21.5t-49 21t-20 51zM666 1737q0 29 21 49t50 20t49.5 -20t20.5 -49t-20.5 -50.5t-49.5 -21.5t-50 21.5t-21 50.5z" />
<glyph unicode="&#xcc;" horiz-adv-x="440" d="M47.5 1880.5q4.5 9.5 15.5 9.5h37q24 0 33 -22l107 -230q3 -6 -1 -12t-10 -6h-14q-15 0 -25 14l-141 228q-6 9 -1.5 18.5zM184 27v1380q0 11 8 19t19 8h18q11 0 19 -8t8 -19v-1380q0 -11 -8 -19t-19 -8h-18q-11 0 -19 8t-8 19z" />
<glyph unicode="&#xcd;" horiz-adv-x="440" d="M184 27v1380q0 11 8 19t19 8h18q11 0 19 -8t8 -19v-1380q0 -11 -8 -19t-19 -8h-18q-11 0 -19 8t-8 19zM205 1638l106 230q9 22 33 22h37q10 0 15.5 -9.5t0.5 -18.5l-143 -228q-7 -14 -23 -14h-14q-7 0 -11 6t-1 12z" />
<glyph unicode="&#xce;" horiz-adv-x="440" d="M-21 1628q-3 8 3 14l188 230q12 18 35 18h31q22 0 34 -18l189 -230q5 -6 2 -14t-12 -8h-25q-22 0 -37 18l-168 205l-168 -205q-12 -18 -35 -18h-26q-8 0 -11 8zM184 27v1380q0 11 8 19t19 8h18q11 0 19 -8t8 -19v-1380q0 -11 -8 -19t-19 -8h-18q-11 0 -19 8t-8 19z" />
<glyph unicode="&#xcf;" horiz-adv-x="440" d="M-16 1737q0 29 20 49t49 20q30 0 51 -20t21 -49t-21.5 -50.5t-50.5 -21.5t-49 21t-20 51zM184 27v1380q0 11 8 19t19 8h18q11 0 19 -8t8 -19v-1380q0 -11 -8 -19t-19 -8h-18q-11 0 -19 8t-8 19zM315 1737q0 29 21 49t51 20q29 0 49.5 -20t20.5 -49t-20.5 -50.5 t-49.5 -21.5t-50.5 21.5t-21.5 50.5z" />
<glyph unicode="&#xd0;" horiz-adv-x="1519" d="M84 709v18q0 11 8 19t19 8h190v653q0 11 8.5 19t18.5 8h385q151 0 282 -54.5t223.5 -149.5t145.5 -228t53 -285t-53 -285t-145.5 -228t-223.5 -149.5t-282 -54.5h-385q-10 0 -18.5 8t-8.5 19v653h-190q-11 0 -19 8.5t-8 20.5zM373 74h340q181 0 326.5 86t226 232.5 t80.5 324.5t-80.5 324.5t-226 232.5t-326.5 86h-340v-606h448q12 0 20.5 -8t8.5 -19v-18q0 -12 -8.5 -20.5t-20.5 -8.5h-448v-606z" />
<glyph unicode="&#xd1;" horiz-adv-x="1423" d="M184 27v1380q0 11 8 19t19 8h27q20 0 30 -17l897 -1290v1280q0 11 8.5 19t18.5 8h18q10 0 18.5 -8t8.5 -19v-1380q0 -11 -8.5 -19t-18.5 -8h-26q-19 0 -29 16l-897 1291v-1280q0 -11 -8.5 -19t-20.5 -8h-18q-11 0 -19 8t-8 19zM442 1649q10 41 29 69.5t41.5 40.5t40 16.5 t35.5 4.5q9 0 19 -1t17.5 -2.5t17.5 -5t16 -5.5t17 -7t15 -7l16 -8t15 -7q68 -37 108 -37q58 0 76 67q1 10 10.5 16.5t20.5 4.5l16 -2q12 -1 19 -12t4 -23q-10 -38 -28 -65t-40 -39t-40.5 -16.5t-37.5 -4.5q-53 0 -141 45q-68 35 -100 35q-56 0 -74 -72q-7 -23 -31 -20 l-18 2q-12 3 -19 13t-4 20z" />
<glyph unicode="&#xd2;" horiz-adv-x="1617" d="M102 717q0 204 92 374t254.5 268.5t360.5 98.5t360.5 -98.5t254.5 -268.5t92 -374q0 -153 -54.5 -290.5t-147.5 -237t-225 -158t-280 -58.5t-280 58.5t-225 158t-147.5 237t-54.5 290.5zM176 717q0 -184 82 -337.5t227.5 -243t323.5 -89.5t323.5 89.5t227.5 243t82 337.5 t-82 337.5t-227.5 242.5t-323.5 89t-323.5 -89t-227.5 -242.5t-82 -337.5zM635.5 1880.5q4.5 9.5 15.5 9.5h37q24 0 33 -22l106 -230q3 -6 -0.5 -12t-9.5 -6h-14q-15 0 -25 14l-141 228q-6 9 -1.5 18.5z" />
<glyph unicode="&#xd3;" horiz-adv-x="1617" d="M102 717q0 204 92 374t254.5 268.5t360.5 98.5t360.5 -98.5t254.5 -268.5t92 -374q0 -153 -54.5 -290.5t-147.5 -237t-225 -158t-280 -58.5t-280 58.5t-225 158t-147.5 237t-54.5 290.5zM176 717q0 -184 82 -337.5t227.5 -243t323.5 -89.5t323.5 89.5t227.5 243t82 337.5 t-82 337.5t-227.5 242.5t-323.5 89t-323.5 -89t-227.5 -242.5t-82 -337.5zM788 1638l107 230q9 22 33 22h37q10 0 15.5 -9.5t0.5 -18.5l-143 -228q-7 -14 -23 -14h-14q-7 0 -11.5 6t-1.5 12z" />
<glyph unicode="&#xd4;" horiz-adv-x="1617" d="M102 717q0 204 92 374t254.5 268.5t360.5 98.5t360.5 -98.5t254.5 -268.5t92 -374q0 -153 -54.5 -290.5t-147.5 -237t-225 -158t-280 -58.5t-280 58.5t-225 158t-147.5 237t-54.5 290.5zM176 717q0 -184 82 -337.5t227.5 -243t323.5 -89.5t323.5 89.5t227.5 243t82 337.5 t-82 337.5t-227.5 242.5t-323.5 89t-323.5 -89t-227.5 -242.5t-82 -337.5zM568.5 1628q-3.5 8 2.5 14l189 230q12 18 35 18h30q23 0 35 -18l189 -230q5 -6 1.5 -14t-12.5 -8h-24q-22 0 -37 18l-168 205l-168 -205q-12 -18 -35 -18h-26q-8 0 -11.5 8z" />
<glyph unicode="&#xd5;" horiz-adv-x="1617" d="M102 717q0 204 92 374t254.5 268.5t360.5 98.5t360.5 -98.5t254.5 -268.5t92 -374q0 -153 -54.5 -290.5t-147.5 -237t-225 -158t-280 -58.5t-280 58.5t-225 158t-147.5 237t-54.5 290.5zM176 717q0 -184 82 -337.5t227.5 -243t323.5 -89.5t323.5 89.5t227.5 243t82 337.5 t-82 337.5t-227.5 242.5t-323.5 89t-323.5 -89t-227.5 -242.5t-82 -337.5zM541 1649q13 54 43 85.5t53.5 38.5t48.5 7q9 0 19 -1t17.5 -2.5t17.5 -5t16 -5.5t17 -7t15 -7l16 -8t15 -7q68 -37 109 -37q58 0 76 67q1 10 10 16.5t20 4.5l17 -2q12 -1 18.5 -12t3.5 -23 q-31 -125 -145 -125q-54 0 -142 45q-68 35 -100 35q-56 0 -74 -72q-7 -23 -30 -20l-19 2q-12 3 -18.5 12.5t-3.5 20.5z" />
<glyph unicode="&#xd6;" horiz-adv-x="1617" d="M102 717q0 204 92 374t254.5 268.5t360.5 98.5t360.5 -98.5t254.5 -268.5t92 -374q0 -153 -54.5 -290.5t-147.5 -237t-225 -158t-280 -58.5t-280 58.5t-225 158t-147.5 237t-54.5 290.5zM176 717q0 -184 82 -337.5t227.5 -243t323.5 -89.5t323.5 89.5t227.5 243t82 337.5 t-82 337.5t-227.5 242.5t-323.5 89t-323.5 -89t-227.5 -242.5t-82 -337.5zM573 1737q0 29 20.5 49t49.5 20q30 0 51 -20t21 -49t-21.5 -50.5t-50.5 -21.5t-49.5 21.5t-20.5 50.5zM905 1737q0 29 21 49t51 20q29 0 49.5 -20t20.5 -49t-20.5 -50.5t-49.5 -21.5t-50.5 21.5 t-21.5 50.5z" />
<glyph unicode="&#xd7;" horiz-adv-x="946" d="M174 353q0 11 8 18l240 239l-240 238q-8 9 -8 20.5t8 18.5l15 14q7 7 18 7t18 -7l240 -239l238 239q9 7 20 7t19 -7l14 -14q8 -7 8 -18.5t-8 -20.5l-240 -238l240 -239q8 -7 8 -18t-8 -19l-14 -15q-8 -7 -19 -7t-20 7l-238 240l-240 -240q-7 -7 -18 -7t-18 7l-15 15 q-8 8 -8 19z" />
<glyph unicode="&#xd8;" horiz-adv-x="1617" d="M102 717q0 205 92 375t254.5 269t360.5 99q153 0 285 -59.5t227 -167.5l115 106q20 17 39 -2l12 -14q8 -7 7.5 -19.5t-9.5 -19.5l-117 -106q148 -204 148 -461q0 -153 -54.5 -290t-147.5 -236.5t-225 -157.5t-280 -58q-152 0 -284 59.5t-228 166.5l-115 -105 q-9 -8 -20.5 -8t-18.5 8l-12 15q-8 7 -7.5 19.5t9.5 19.5l117 106q-148 204 -148 461zM176 717q0 -231 129 -412l963 879q-86 96 -204.5 149t-254.5 53q-178 0 -323.5 -89t-227.5 -242.5t-82 -337.5zM350 250q87 -96 205.5 -149.5t253.5 -53.5q178 0 323.5 89.5t227.5 243 t82 337.5q0 230 -129 411z" />
<glyph unicode="&#xd9;" horiz-adv-x="1384" d="M184 516v891q0 11 8 19t19 8h18q11 0 19 -8t8 -19v-891q0 -214 118.5 -341.5t317.5 -127.5t316.5 127.5t117.5 341.5v891q0 11 8 19t19 8h18q12 0 20.5 -8t8.5 -19v-891q0 -248 -140 -394.5t-368 -146.5q-229 0 -368.5 146.5t-139.5 394.5zM539.5 1880.5 q4.5 9.5 15.5 9.5h37q24 0 33 -22l106 -230q3 -6 -0.5 -12t-9.5 -6h-14q-15 0 -25 14l-141 228q-6 9 -1.5 18.5z" />
<glyph unicode="&#xda;" horiz-adv-x="1384" d="M184 516v891q0 11 8 19t19 8h18q11 0 19 -8t8 -19v-891q0 -214 118.5 -341.5t317.5 -127.5t316.5 127.5t117.5 341.5v891q0 11 8 19t19 8h18q12 0 20.5 -8t8.5 -19v-891q0 -248 -140 -394.5t-368 -146.5q-229 0 -368.5 146.5t-139.5 394.5zM672 1638l106 230q9 22 33 22 h37q10 0 15.5 -9.5t0.5 -18.5l-143 -228q-7 -14 -23 -14h-14q-7 0 -11 6t-1 12z" />
<glyph unicode="&#xdb;" horiz-adv-x="1384" d="M184 516v891q0 11 8 19t19 8h18q11 0 19 -8t8 -19v-891q0 -214 118.5 -341.5t317.5 -127.5t316.5 127.5t117.5 341.5v891q0 11 8 19t19 8h18q12 0 20.5 -8t8.5 -19v-891q0 -248 -140 -394.5t-368 -146.5q-229 0 -368.5 146.5t-139.5 394.5zM452 1628q-3 8 3 14l188 230 q12 18 35 18h31q22 0 34 -18l189 -230q5 -6 2 -14t-12 -8h-25q-22 0 -37 18l-168 205l-168 -205q-12 -18 -35 -18h-26q-8 0 -11 8z" />
<glyph unicode="&#xdc;" horiz-adv-x="1384" d="M184 516v891q0 11 8 19t19 8h18q11 0 19 -8t8 -19v-891q0 -214 118.5 -341.5t317.5 -127.5t316.5 127.5t117.5 341.5v891q0 11 8 19t19 8h18q12 0 20.5 -8t8.5 -19v-891q0 -248 -140 -394.5t-368 -146.5q-229 0 -368.5 146.5t-139.5 394.5zM457 1737q0 29 20 49t49 20 q30 0 51 -20t21 -49t-21.5 -50.5t-50.5 -21.5t-49 21t-20 51zM788 1737q0 29 21 49t51 20q29 0 49.5 -20t20.5 -49t-20.5 -50.5t-49.5 -21.5t-50.5 21.5t-21.5 50.5z" />
<glyph unicode="&#xdd;" horiz-adv-x="1325" d="M79 1424q5 10 15 10h39q21 0 31 -19l500 -825l499 825q9 19 31 19h37q10 0 15.5 -9.5t0.5 -17.5l-549 -891v-489q0 -11 -8 -19t-18 -8h-19q-10 0 -18 8t-8 19v489l-547 891q-6 7 -1 17zM643 1638l107 230q9 22 32 22h37q10 0 16 -9.5t1 -18.5l-144 -228q-7 -14 -22 -14 h-15q-7 0 -11 6t-1 12z" />
<glyph unicode="&#xde;" horiz-adv-x="1150" d="M184 27v1380q0 11 8 19t19 8h18q11 0 19 -8t8 -19v-256h322q228 0 358.5 -121t130.5 -313q0 -191 -130.5 -312.5t-358.5 -121.5h-322v-256q0 -11 -8 -19t-19 -8h-18q-11 0 -19 8t-8 19zM256 354h322q190 0 303.5 100t113.5 263t-113 262.5t-304 99.5h-322v-725z" />
<glyph unicode="&#xdf;" horiz-adv-x="1144" d="M174 27v1003q0 170 111.5 290t285.5 120q113 0 200.5 -55.5t131 -139t43.5 -174.5q0 -109 -57.5 -195t-157.5 -122q147 -27 239.5 -117.5t92.5 -243.5q0 -196 -136 -309t-343 -88q-10 1 -17.5 9.5t-7.5 19.5v16q0 12 9.5 20.5t21.5 6.5q176 -23 286.5 68.5t110.5 256.5 q0 79 -28 139t-68.5 93.5t-95.5 54t-99.5 27t-89.5 6.5h-28q-8 0 -13.5 5.5t-5.5 12.5v29q0 7 5.5 12.5t13.5 5.5h14q131 0 205.5 79t74.5 214q0 120 -84 207.5t-217 87.5q-146 0 -234.5 -94t-88.5 -242v-1003q0 -11 -8.5 -19t-20.5 -8h-16q-12 0 -20.5 8t-8.5 19z" />
<glyph unicode="&#xe0;" d="M82 518q0 148 66.5 273t186 198.5t265.5 73.5q152 0 268 -78t176 -211v236q0 12 8.5 20t20.5 8h19q11 0 18.5 -8t7.5 -20v-983q0 -11 -8 -19t-18 -8h-19q-12 0 -20.5 8t-8.5 19v237q-60 -133 -176 -211t-268 -78q-146 0 -265.5 73.5t-186 198t-66.5 271.5zM156 518 q0 -127 56.5 -235t159 -172t228.5 -64t228.5 64t159 172t56.5 235q0 128 -56.5 236t-159 172.5t-228.5 64.5t-228.5 -64.5t-159 -172.5t-56.5 -236zM476 1471q5 10 16 10h36q23 0 33 -23l107 -229q3 -6 -1 -12.5t-10 -6.5h-14q-14 0 -25 15l-141 227q-6 9 -1 19z" />
<glyph unicode="&#xe1;" d="M82 518q0 148 66.5 273t186 198.5t265.5 73.5q152 0 268 -78t176 -211v236q0 12 8.5 20t20.5 8h19q11 0 18.5 -8t7.5 -20v-983q0 -11 -8 -19t-18 -8h-19q-12 0 -20.5 8t-8.5 19v237q-60 -133 -176 -211t-268 -78q-146 0 -265.5 73.5t-186 198t-66.5 271.5zM156 518 q0 -127 56.5 -235t159 -172t228.5 -64t228.5 64t159 172t56.5 235q0 128 -56.5 236t-159 172.5t-228.5 64.5t-228.5 -64.5t-159 -172.5t-56.5 -236zM588 1229l106 229q10 23 33 23h37q10 0 15.5 -10t0.5 -19l-143 -227q-7 -15 -23 -15h-14q-7 0 -11 6.5t-1 12.5z" />
<glyph unicode="&#xe2;" d="M82 518q0 148 66.5 273t186 198.5t265.5 73.5q152 0 268 -78t176 -211v236q0 12 8.5 20t20.5 8h19q11 0 18.5 -8t7.5 -20v-983q0 -11 -8 -19t-18 -8h-19q-12 0 -20.5 8t-8.5 19v237q-60 -133 -176 -211t-268 -78q-146 0 -265.5 73.5t-186 198t-66.5 271.5zM156 518 q0 -127 56.5 -235t159 -172t228.5 -64t228.5 64t159 172t56.5 235q0 128 -56.5 236t-159 172.5t-228.5 64.5t-228.5 -64.5t-159 -172.5t-56.5 -236zM388 1218.5q-3 8.5 3 14.5l189 229q13 19 34 19h31q22 0 35 -19l188 -229q5 -6 2 -14.5t-12 -8.5h-24q-21 0 -37 19 l-168 205l-168 -205q-13 -19 -35 -19h-27q-8 0 -11 8.5z" />
<glyph unicode="&#xe3;" d="M82 518q0 148 66.5 273t186 198.5t265.5 73.5q152 0 268 -78t176 -211v236q0 12 8.5 20t20.5 8h19q11 0 18.5 -8t7.5 -20v-983q0 -11 -8 -19t-18 -8h-19q-12 0 -20.5 8t-8.5 19v237q-60 -133 -176 -211t-268 -78q-146 0 -265.5 73.5t-186 198t-66.5 271.5zM156 518 q0 -127 56.5 -235t159 -172t228.5 -64t228.5 64t159 172t56.5 235q0 128 -56.5 236t-159 172.5t-228.5 64.5t-228.5 -64.5t-159 -172.5t-56.5 -236zM381 1239q13 54 43 85.5t53.5 38.5t48.5 7q9 0 19 -1t17.5 -2.5t17.5 -5t16 -5.5t17 -7t15 -7l16 -8t15 -7q68 -37 109 -37 q58 0 76 68q1 10 10 16t20 4l17 -2q12 -1 18.5 -12t3.5 -23q-31 -124 -145 -124q-53 0 -141 45q-66 34 -101 34q-55 0 -73 -71q-7 -24 -31 -21l-19 2q-12 3 -18.5 12.5t-3.5 20.5z" />
<glyph unicode="&#xe4;" d="M82 518q0 148 66.5 273t186 198.5t265.5 73.5q152 0 268 -78t176 -211v236q0 12 8.5 20t20.5 8h19q11 0 18.5 -8t7.5 -20v-983q0 -11 -8 -19t-18 -8h-19q-12 0 -20.5 8t-8.5 19v237q-60 -133 -176 -211t-268 -78q-146 0 -265.5 73.5t-186 198t-66.5 271.5zM156 518 q0 -127 56.5 -235t159 -172t228.5 -64t228.5 64t159 172t56.5 235q0 128 -56.5 236t-159 172.5t-228.5 64.5t-228.5 -64.5t-159 -172.5t-56.5 -236zM391 1327q0 29 20.5 49.5t49.5 20.5t50 -20.5t21 -49.5t-21 -50.5t-50 -21.5t-49.5 21.5t-20.5 50.5zM723 1327 q0 29 21.5 49.5t50.5 20.5t49 -20.5t20 -49.5q0 -30 -20 -51t-49 -21t-50.5 21.5t-21.5 50.5z" />
<glyph unicode="&#xe5;" d="M82 518q0 148 66.5 273t186 198.5t265.5 73.5q152 0 268 -78t176 -211v236q0 12 8.5 20t20.5 8h19q11 0 18.5 -8t7.5 -20v-983q0 -11 -8 -19t-18 -8h-19q-12 0 -20.5 8t-8.5 19v237q-60 -133 -176 -211t-268 -78q-146 0 -265.5 73.5t-186 198t-66.5 271.5zM156 518 q0 -127 56.5 -235t159 -172t228.5 -64t228.5 64t159 172t56.5 235q0 128 -56.5 236t-159 172.5t-228.5 64.5t-228.5 -64.5t-159 -172.5t-56.5 -236zM434 1386q0 88 63 150.5t152 62.5q88 0 150.5 -62.5t62.5 -150.5q0 -89 -62.5 -150.5t-150.5 -61.5q-90 0 -152.5 61.5 t-62.5 150.5zM508 1386q0 -58 41 -99.5t100 -41.5q57 0 98 41.5t41 99.5t-41 99t-98 41q-59 0 -100 -41t-41 -99z" />
<glyph unicode="&#xe6;" horiz-adv-x="2121" d="M82 518q0 148 66.5 273t186 198.5t265.5 73.5q152 0 268 -78t176 -211v236q0 12 8.5 20t20.5 8h19q11 0 18.5 -8t7.5 -20v-203q66 119 178.5 187.5t255.5 68.5q211 0 350.5 -153.5t139.5 -389.5q0 -15 -11 -26t-26 -11h-885q12 -182 141.5 -309t311.5 -127q209 0 344 152 q18 18 35 4l20 -13q10 -6 12 -18.5t-6 -21.5q-155 -175 -405 -175q-149 0 -268 70.5t-187 190.5v-209q0 -11 -8 -19t-18 -8h-19q-12 0 -20.5 8t-8.5 19v237q-60 -133 -176 -211t-268 -78q-146 0 -265.5 73.5t-186 198t-66.5 271.5zM154 518q0 -127 57 -235t160 -172t229 -64 t228.5 64t159 172t56.5 235q0 128 -56.5 236t-159 172.5t-228.5 64.5t-229 -64.5t-160 -172.5t-57 -236zM1120 555h844q-9 187 -125 311.5t-287 124.5q-118 0 -215 -59.5t-153 -158.5t-64 -218z" />
<glyph unicode="&#xe7;" horiz-adv-x="1124" d="M82 518q0 147 70.5 272.5t193 199t268.5 73.5q131 0 244 -58.5t186 -160.5q8 -10 5 -22.5t-15 -18.5l-14 -8q-20 -13 -35 6q-65 88 -161.5 139t-209.5 51q-126 0 -231.5 -64t-166 -173t-60.5 -236q0 -126 60.5 -234.5t166.5 -172.5t231 -64q113 0 209.5 51t161.5 140 q13 17 35 6l14 -8q12 -6 15 -18.5t-5 -22.5q-74 -102 -186.5 -161t-243.5 -59q-29 0 -43 2l-53 -110q99 33 179.5 -11t80.5 -149q0 -64 -32 -110t-82.5 -66.5t-114 -19.5t-125.5 26q-10 3 -14 15t2 22l8 18q13 20 35 13q39 -16 81.5 -19.5t80 7t61.5 41t24 77.5 q0 74 -61 101.5t-133 -5.5q-19 -7 -31 9l-16 20q-10 13 -2 29l57 119q-188 35 -311 186.5t-123 347.5z" />
<glyph unicode="&#xe8;" horiz-adv-x="1159" d="M82 518q0 148 63 272t179.5 198.5t263.5 74.5q211 0 350 -153.5t139 -389.5q0 -15 -11 -26t-26 -11h-884q14 -183 143 -309.5t311 -126.5q206 0 344 152q14 18 35 4l19 -13q10 -6 12 -18.5t-6 -21.5q-155 -175 -404 -175q-152 0 -273.5 73.5t-188 197t-66.5 272.5z M156 555h843q-9 187 -125 311.5t-286 124.5q-118 0 -215 -59.5t-153 -158.5t-64 -218zM427 1471q5 10 15 10h37q23 0 33 -23l106 -229q3 -6 -0.5 -12.5t-9.5 -6.5h-14q-14 0 -25 15l-141 227q-6 9 -1 19z" />
<glyph unicode="&#xe9;" horiz-adv-x="1159" d="M82 518q0 148 63 272t179.5 198.5t263.5 74.5q211 0 350 -153.5t139 -389.5q0 -15 -11 -26t-26 -11h-884q14 -183 143 -309.5t311 -126.5q206 0 344 152q14 18 35 4l19 -13q10 -6 12 -18.5t-6 -21.5q-155 -175 -404 -175q-152 0 -273.5 73.5t-188 197t-66.5 272.5z M156 555h843q-9 187 -125 311.5t-286 124.5q-118 0 -215 -59.5t-153 -158.5t-64 -218zM539 1229l106 229q10 23 33 23h37q10 0 15.5 -10t0.5 -19l-143 -227q-8 -15 -23 -15h-14q-7 0 -11 6.5t-1 12.5z" />
<glyph unicode="&#xea;" horiz-adv-x="1159" d="M82 518q0 148 63 272t179.5 198.5t263.5 74.5q211 0 350 -153.5t139 -389.5q0 -15 -11 -26t-26 -11h-884q14 -183 143 -309.5t311 -126.5q206 0 344 152q14 18 35 4l19 -13q10 -6 12 -18.5t-6 -21.5q-155 -175 -404 -175q-152 0 -273.5 73.5t-188 197t-66.5 272.5z M156 555h843q-9 187 -125 311.5t-286 124.5q-118 0 -215 -59.5t-153 -158.5t-64 -218zM359.5 1218.5q-3.5 8.5 2.5 14.5l189 229q13 19 35 19h30q22 0 35 -19l189 -229q5 -6 1.5 -14.5t-12.5 -8.5h-24q-21 0 -37 19l-168 205l-168 -205q-13 -19 -35 -19h-26q-8 0 -11.5 8.5z " />
<glyph unicode="&#xeb;" horiz-adv-x="1159" d="M82 518q0 148 63 272t179.5 198.5t263.5 74.5q211 0 350 -153.5t139 -389.5q0 -15 -11 -26t-26 -11h-884q14 -183 143 -309.5t311 -126.5q206 0 344 152q14 18 35 4l19 -13q10 -6 12 -18.5t-6 -21.5q-155 -175 -404 -175q-152 0 -273.5 73.5t-188 197t-66.5 272.5z M156 555h843q-9 187 -125 311.5t-286 124.5q-118 0 -215 -59.5t-153 -158.5t-64 -218zM362 1327q0 29 20.5 49.5t49.5 20.5t50.5 -20.5t21.5 -49.5t-21.5 -50.5t-50.5 -21.5t-49.5 21.5t-20.5 50.5zM694 1327q0 29 21.5 49.5t50.5 20.5t49.5 -20.5t20.5 -49.5t-20.5 -50.5 t-49.5 -21.5t-50.5 21.5t-21.5 50.5z" />
<glyph unicode="&#xec;" horiz-adv-x="421" d="M36 1471q5 10 15 10h37q23 0 33 -23l106 -229q3 -6 -0.5 -12.5t-9.5 -6.5h-14q-14 0 -25 15l-141 227q-6 9 -1 19zM174 27v983q0 12 8 20t19 8h18q11 0 19 -8t8 -20v-983q0 -11 -8 -19t-19 -8h-18q-11 0 -19 8t-8 19z" />
<glyph unicode="&#xed;" horiz-adv-x="421" d="M174 27v983q0 12 8 20t19 8h18q11 0 19 -8t8 -20v-983q0 -11 -8 -19t-19 -8h-18q-11 0 -19 8t-8 19zM203 1229l106 229q10 23 33 23h37q10 0 15.5 -10t0.5 -19l-143 -227q-8 -15 -23 -15h-14q-7 0 -11 6.5t-1 12.5z" />
<glyph unicode="&#xee;" horiz-adv-x="421" d="M-29.5 1218.5q-3.5 8.5 2.5 14.5l189 229q13 19 35 19h30q22 0 35 -19l189 -229q5 -6 1.5 -14.5t-12.5 -8.5h-24q-21 0 -37 19l-168 205l-168 -205q-13 -19 -35 -19h-26q-8 0 -11.5 8.5zM174 27v983q0 12 8 20t19 8h18q11 0 19 -8t8 -20v-983q0 -11 -8 -19t-19 -8h-18 q-11 0 -19 8t-8 19z" />
<glyph unicode="&#xef;" horiz-adv-x="421" d="M-25 1327q0 29 20.5 49.5t49.5 20.5t50.5 -20.5t21.5 -49.5t-21.5 -50.5t-50.5 -21.5t-49.5 21.5t-20.5 50.5zM174 27v983q0 12 8 20t19 8h18q11 0 19 -8t8 -20v-983q0 -11 -8 -19t-19 -8h-18q-11 0 -19 8t-8 19zM307 1327q0 29 21.5 49.5t50.5 20.5t49.5 -20.5 t20.5 -49.5t-20.5 -50.5t-49.5 -21.5t-50.5 21.5t-21.5 50.5z" />
<glyph unicode="&#xf0;" horiz-adv-x="1167" d="M82 471q0 135 66.5 249t181 180.5t250.5 66.5q121 0 222 -53t167 -146l2 2q-88 259 -309 457l-269 -131q-11 -4 -21.5 -0.5t-15.5 12.5l-8 16q-4 11 -0.5 21.5t12.5 15.5l240 117q-115 92 -235 143q-10 4 -12 15.5t7 15.5l25 18q20 12 35 3q135 -60 254 -158l190 92 q11 6 21.5 2.5t15.5 -14.5l8 -17q4 -9 0.5 -20t-12.5 -17l-164 -77q162 -150 257 -348t95 -429q0 -219 -144.5 -365.5t-360.5 -146.5q-136 0 -250.5 66t-181 180t-66.5 250zM156 471q0 -111 48 -206t146.5 -156.5t229.5 -61.5t230.5 61.5t148.5 156.5t49 206q0 81 -30.5 157 t-84.5 135t-136 94.5t-177 35.5t-176 -35.5t-134.5 -95t-83.5 -135t-30 -156.5z" />
<glyph unicode="&#xf1;" horiz-adv-x="1181" d="M174 27v983q0 12 8 20t19 8h18q12 0 20.5 -8t8.5 -20v-174q50 102 143 164.5t217 62.5q78 0 144.5 -26t112.5 -69.5t79 -100t48.5 -116.5t15.5 -120v-604q0 -11 -8.5 -19t-20.5 -8h-18q-11 0 -19 8t-8 19v604q0 64 -20 126t-58.5 115t-103 86t-144.5 33q-83 0 -153 -34.5 t-114 -89.5t-68.5 -121t-24.5 -132v-587q0 -11 -8.5 -19t-20.5 -8h-18q-11 0 -19 8t-8 19zM322 1239q13 54 43 85.5t53.5 38.5t48.5 7q9 0 19 -1t17.5 -2.5t17.5 -5t16 -5.5t17 -7t15 -7l16 -8t15 -7q68 -37 109 -37q57 0 75 68q1 10 10.5 16t20.5 4l16 -2q12 -1 19 -12 t4 -23q-31 -124 -145 -124q-54 0 -142 45q-66 34 -100 34q-56 0 -74 -71q-7 -24 -31 -21l-18 2q-12 3 -18.5 12.5t-3.5 20.5z" />
<glyph unicode="&#xf2;" horiz-adv-x="1230" d="M82 518q0 147 70.5 272.5t193 199t268.5 73.5q147 0 270 -73.5t194 -199t71 -272.5t-70.5 -272t-194 -199t-270.5 -74q-146 0 -268.5 74t-193 199t-70.5 272zM154 518q0 -195 134 -333t326 -138q127 0 233 63.5t167 172t61 235.5t-61 235.5t-167 172t-233 63.5 q-192 0 -326 -138t-134 -333zM462 1471q5 10 15 10h37q23 0 33 -23l106 -229q3 -6 -0.5 -12.5t-9.5 -6.5h-14q-14 0 -25 15l-141 227q-6 9 -1 19z" />
<glyph unicode="&#xf3;" horiz-adv-x="1230" d="M82 518q0 147 70.5 272.5t193 199t268.5 73.5q147 0 270 -73.5t194 -199t71 -272.5t-70.5 -272t-194 -199t-270.5 -74q-146 0 -268.5 74t-193 199t-70.5 272zM154 518q0 -195 134 -333t326 -138q127 0 233 63.5t167 172t61 235.5t-61 235.5t-167 172t-233 63.5 q-192 0 -326 -138t-134 -333zM592 1229l106 229q10 23 33 23h37q10 0 15.5 -10t0.5 -19l-143 -227q-7 -15 -23 -15h-14q-7 0 -11 6.5t-1 12.5z" />
<glyph unicode="&#xf4;" horiz-adv-x="1230" d="M82 518q0 147 70.5 272.5t193 199t268.5 73.5q147 0 270 -73.5t194 -199t71 -272.5t-70.5 -272t-194 -199t-270.5 -74q-146 0 -268.5 74t-193 199t-70.5 272zM154 518q0 -195 134 -333t326 -138q127 0 233 63.5t167 172t61 235.5t-61 235.5t-167 172t-233 63.5 q-192 0 -326 -138t-134 -333zM374 1218.5q-3 8.5 3 14.5l188 229q13 19 35 19h31q22 0 35 -19l188 -229q5 -6 2 -14.5t-12 -8.5h-25q-21 0 -37 19l-168 205l-168 -205q-13 -19 -34 -19h-27q-8 0 -11 8.5z" />
<glyph unicode="&#xf5;" horiz-adv-x="1230" d="M82 518q0 147 70.5 272.5t193 199t268.5 73.5q147 0 270 -73.5t194 -199t71 -272.5t-70.5 -272t-194 -199t-270.5 -74q-146 0 -268.5 74t-193 199t-70.5 272zM154 518q0 -195 134 -333t326 -138q127 0 233 63.5t167 172t61 235.5t-61 235.5t-167 172t-233 63.5 q-192 0 -326 -138t-134 -333zM346 1239q10 41 29 69.5t41.5 40.5t40 16.5t35.5 4.5q9 0 19 -1t17.5 -2.5t17.5 -5t16 -5.5t17 -7t15 -7l16 -8t15 -7q68 -37 108 -37q58 0 76 68q1 10 10.5 16t20.5 4l16 -2q12 -1 19 -12t4 -23q-31 -124 -146 -124q-53 0 -141 45 q-66 34 -100 34q-56 0 -74 -71q-7 -24 -31 -21l-18 2q-12 3 -19 13t-4 20z" />
<glyph unicode="&#xf6;" horiz-adv-x="1230" d="M82 518q0 147 70.5 272.5t193 199t268.5 73.5q147 0 270 -73.5t194 -199t71 -272.5t-70.5 -272t-194 -199t-270.5 -74q-146 0 -268.5 74t-193 199t-70.5 272zM154 518q0 -195 134 -333t326 -138q127 0 233 63.5t167 172t61 235.5t-61 235.5t-167 172t-233 63.5 q-192 0 -326 -138t-134 -333zM379 1327q0 29 20.5 49.5t49.5 20.5t50 -20.5t21 -49.5t-21 -50.5t-50 -21.5t-49.5 21.5t-20.5 50.5zM711 1327q0 29 21 49.5t50 20.5t49.5 -20.5t20.5 -49.5t-20.5 -50.5t-49.5 -21.5t-50 21.5t-21 50.5z" />
<glyph unicode="&#xf7;" horiz-adv-x="1171" d="M184 602v16q0 12 7.5 20.5t19.5 8.5h747q11 0 19 -8.5t8 -20.5v-16q0 -12 -8 -20.5t-19 -8.5h-747q-12 0 -19.5 8.5t-7.5 20.5zM518 223q0 28 19 48t47 20t47.5 -20t19.5 -48t-19.5 -46.5t-47.5 -18.5t-47 18.5t-19 46.5zM518 997q0 28 19 47t47 19t47.5 -19t19.5 -47 t-19.5 -47.5t-47.5 -19.5t-47 19.5t-19 47.5z" />
<glyph unicode="&#xf8;" horiz-adv-x="1230" d="M82 518q0 148 70.5 273t193.5 198.5t270 73.5q106 0 202.5 -41t170.5 -113l88 80q17 17 37 -2l12 -14q8 -7 8 -19t-8 -20l-90 -80q113 -148 113 -336q0 -146 -70.5 -271t-193.5 -198.5t-269 -73.5q-108 0 -204 41t-168 113l-88 -80q-20 -17 -39 2l-13 15q-8 7 -7.5 19 t9.5 19l89 80q-113 149 -113 334zM156 518q0 -158 94 -285l684 627q-134 131 -318 131q-192 0 -326 -139t-134 -334zM297 178q134 -131 319 -131q126 0 232 64t166.5 172.5t60.5 234.5q0 158 -92 287z" />
<glyph unicode="&#xf9;" horiz-adv-x="1181" d="M174 406v604q0 12 8.5 20t20.5 8h16q12 0 20.5 -8t8.5 -20v-604q0 -50 12 -99.5t38.5 -96.5t63.5 -83t92 -58t119 -22q83 0 153 34.5t114.5 89.5t69 121t24.5 132v586q0 12 8.5 20t20.5 8h18q11 0 19 -8t8 -20v-983q0 -11 -8 -19t-19 -8h-18q-12 0 -20.5 8t-8.5 19v176 q-50 -102 -143.5 -165t-217.5 -63q-96 0 -174.5 40t-126 103.5t-73 138t-25.5 149.5zM458 1471q5 10 15 10h37q23 0 33 -23l106 -229q3 -6 -0.5 -12.5t-9.5 -6.5h-14q-14 0 -25 15l-141 227q-6 9 -1 19z" />
<glyph unicode="&#xfa;" horiz-adv-x="1181" d="M174 406v604q0 12 8.5 20t20.5 8h16q12 0 20.5 -8t8.5 -20v-604q0 -50 12 -99.5t38.5 -96.5t63.5 -83t92 -58t119 -22q83 0 153 34.5t114.5 89.5t69 121t24.5 132v586q0 12 8.5 20t20.5 8h18q11 0 19 -8t8 -20v-983q0 -11 -8 -19t-19 -8h-18q-12 0 -20.5 8t-8.5 19v176 q-50 -102 -143.5 -165t-217.5 -63q-96 0 -174.5 40t-126 103.5t-73 138t-25.5 149.5zM571 1229l107 229q10 23 33 23h37q10 0 15.5 -10t0.5 -19l-143 -227q-7 -15 -23 -15h-14q-7 0 -11.5 6.5t-1.5 12.5z" />
<glyph unicode="&#xfb;" horiz-adv-x="1181" d="M174 406v604q0 12 8.5 20t20.5 8h16q12 0 20.5 -8t8.5 -20v-604q0 -50 12 -99.5t38.5 -96.5t63.5 -83t92 -58t119 -22q83 0 153 34.5t114.5 89.5t69 121t24.5 132v586q0 12 8.5 20t20.5 8h18q11 0 19 -8t8 -20v-983q0 -11 -8 -19t-19 -8h-18q-12 0 -20.5 8t-8.5 19v176 q-50 -102 -143.5 -165t-217.5 -63q-96 0 -174.5 40t-126 103.5t-73 138t-25.5 149.5zM349 1218.5q-3 8.5 3 14.5l189 229q13 19 34 19h31q22 0 35 -19l188 -229q5 -6 2 -14.5t-12 -8.5h-24q-21 0 -37 19l-168 205l-168 -205q-13 -19 -35 -19h-27q-8 0 -11 8.5z" />
<glyph unicode="&#xfc;" horiz-adv-x="1181" d="M174 406v604q0 12 8.5 20t20.5 8h16q12 0 20.5 -8t8.5 -20v-604q0 -50 12 -99.5t38.5 -96.5t63.5 -83t92 -58t119 -22q83 0 153 34.5t114.5 89.5t69 121t24.5 132v586q0 12 8.5 20t20.5 8h18q11 0 19 -8t8 -20v-983q0 -11 -8 -19t-19 -8h-18q-12 0 -20.5 8t-8.5 19v176 q-50 -102 -143.5 -165t-217.5 -63q-96 0 -174.5 40t-126 103.5t-73 138t-25.5 149.5zM354 1327q0 29 20.5 49.5t49.5 20.5t50.5 -20.5t21.5 -49.5t-21.5 -50.5t-50.5 -21.5t-49.5 21.5t-20.5 50.5zM686 1327q0 29 21.5 49.5t50.5 20.5t49 -20.5t20 -49.5q0 -30 -20 -51 t-49 -21t-50.5 21.5t-21.5 50.5z" />
<glyph unicode="&#xfd;" horiz-adv-x="1028" d="M53 1012q-4 9 2 17.5t15 8.5h28q26 0 33 -20l406 -862l360 860q9 22 35 22h29q9 0 14 -8.5t2 -17.5q-170 -397 -406 -967q-77 -184 -109 -243q-84 -153 -193 -186q-35 -11 -74 -11h-23q-9 2 -17 10t-8 18v17q0 12 8.5 19t20.5 7q39 0 71.5 10.5t61 36.5t50.5 54t47.5 78 t44 93.5t47.5 114.5zM496 1229l106 229q10 23 33 23h37q10 0 15.5 -10t0.5 -19l-143 -227q-7 -15 -23 -15h-14q-7 0 -11 6.5t-1 12.5z" />
<glyph unicode="&#xfe;" d="M174 -369v1776q0 11 8.5 19t20.5 8h16q12 0 20.5 -8t8.5 -19v-633q60 132 177 210.5t267 78.5q146 0 265.5 -73.5t186 -198.5t66.5 -273q0 -147 -66.5 -271.5t-186 -198t-265.5 -73.5q-150 0 -267 78.5t-177 210.5v-633q0 -11 -8.5 -18.5t-20.5 -7.5h-16q-12 0 -20.5 7.5 t-8.5 18.5zM248 518q0 -127 56.5 -235t159 -172t228.5 -64t229 64t160.5 172t57.5 235q0 128 -57.5 236t-160.5 172.5t-229 64.5t-228.5 -64.5t-159 -172.5t-56.5 -236z" />
<glyph unicode="&#xff;" horiz-adv-x="1028" d="M53 1012q-4 9 2 17.5t15 8.5h28q26 0 33 -20l406 -862l360 860q9 22 35 22h29q9 0 14 -8.5t2 -17.5q-170 -397 -406 -967q-77 -184 -109 -243q-84 -153 -193 -186q-35 -11 -74 -11h-23q-9 2 -17 10t-8 18v17q0 12 8.5 19t20.5 7q39 0 71.5 10.5t61 36.5t50.5 54t47.5 78 t44 93.5t47.5 114.5zM276 1327q0 29 20.5 49.5t49.5 20.5t50.5 -20.5t21.5 -49.5t-21.5 -50.5t-50.5 -21.5t-49.5 21.5t-20.5 50.5zM608 1327q0 29 21.5 49.5t50.5 20.5t49.5 -20.5t20.5 -49.5t-20.5 -50.5t-49.5 -21.5t-50.5 21.5t-21.5 50.5z" />
<glyph unicode="&#x152;" horiz-adv-x="1933" d="M102 717q0 121 34 231.5t97.5 198.5t149.5 152.5t195.5 99.5t230.5 35h954q12 0 20.5 -8t8.5 -19v-18q0 -12 -8.5 -20.5t-20.5 -8.5h-653v-582h608q11 0 19 -8t8 -18v-19q0 -10 -8 -18t-19 -8h-608v-633h674q11 0 18.5 -8.5t7.5 -20.5v-18q0 -11 -8 -19t-18 -8h-975 q-121 0 -230.5 35t-195.5 99.5t-149.5 152.5t-97.5 198.5t-34 231.5zM176 717q0 -178 80 -324.5t225.5 -232.5t327.5 -86h227v1286h-227q-182 0 -327.5 -86t-225.5 -232.5t-80 -324.5z" />
<glyph unicode="&#x153;" horiz-adv-x="2084" d="M82 518q0 148 66 273t184.5 198.5t263.5 73.5q165 0 292.5 -92t184.5 -242q53 151 173 242.5t284 91.5q210 0 342.5 -153t130.5 -392q0 -14 -11 -24.5t-26 -10.5h-852q12 -184 133.5 -310t302.5 -126q110 0 187 39t141 113q6 8 16.5 9t18.5 -5l20 -13q10 -6 12 -18.5 t-6 -21.5q-152 -175 -389 -175q-170 0 -295.5 92t-179.5 244q-58 -151 -186 -243.5t-293 -92.5q-145 0 -263.5 73.5t-184.5 198t-66 271.5zM156 518q0 -195 125.5 -333t314.5 -138q190 0 316 138t126 333q0 128 -56 236t-158 172.5t-228 64.5q-125 0 -226.5 -64.5 t-157.5 -172.5t-56 -236zM1114 555h811q-8 189 -117 312.5t-278 123.5q-118 0 -211.5 -59.5t-145.5 -158t-59 -218.5z" />
<glyph unicode="&#x178;" horiz-adv-x="1325" d="M79 1424q5 10 15 10h39q21 0 31 -19l500 -825l499 825q9 19 31 19h37q10 0 15.5 -9.5t0.5 -17.5l-549 -891v-489q0 -11 -8 -19t-18 -8h-19q-10 0 -18 8t-8 19v489l-547 891q-6 7 -1 17zM426 1737q0 29 20.5 49t49.5 20t50 -20t21 -49t-21 -50.5t-50 -21.5t-49.5 21.5 t-20.5 50.5zM758 1737q0 29 21 49t50 20t49.5 -20t20.5 -49t-20.5 -50.5t-49.5 -21.5t-50 21.5t-21 50.5z" />
<glyph unicode="&#x2c6;" horiz-adv-x="880" d="M200 1218.5q-3 8.5 3 14.5l188 229q13 19 35 19h31q22 0 35 -19l188 -229q5 -6 2 -14.5t-12 -8.5h-25q-21 0 -37 19l-168 205l-168 -205q-13 -19 -34 -19h-27q-8 0 -11 8.5z" />
<glyph unicode="&#x2dc;" horiz-adv-x="913" d="M188 1239q10 41 29 69.5t41.5 40.5t40 16.5t35.5 4.5q9 0 19 -1t17.5 -2.5t17.5 -5t16 -5.5t17 -7t15 -7l16 -8t15 -7q68 -37 108 -37q58 0 76 68q1 10 10.5 16t20.5 4l16 -2q12 -1 19 -12t4 -23q-31 -124 -146 -124q-53 0 -141 45q-66 34 -100 34q-56 0 -74 -71 q-7 -24 -31 -21l-18 2q-12 3 -19 13t-4 20z" />
<glyph unicode="&#x2000;" horiz-adv-x="984" />
<glyph unicode="&#x2001;" horiz-adv-x="1968" />
<glyph unicode="&#x2002;" horiz-adv-x="984" />
<glyph unicode="&#x2003;" horiz-adv-x="1968" />
<glyph unicode="&#x2004;" horiz-adv-x="656" />
<glyph unicode="&#x2005;" horiz-adv-x="492" />
<glyph unicode="&#x2006;" horiz-adv-x="328" />
<glyph unicode="&#x2007;" horiz-adv-x="328" />
<glyph unicode="&#x2008;" horiz-adv-x="246" />
<glyph unicode="&#x2009;" horiz-adv-x="393" />
<glyph unicode="&#x200a;" horiz-adv-x="109" />
<glyph unicode="&#x2010;" horiz-adv-x="1026" d="M184 602v16q0 12 8.5 20.5t20.5 8.5h602q11 0 19 -8.5t8 -20.5v-16q0 -12 -8 -20.5t-19 -8.5h-602q-12 0 -20.5 8.5t-8.5 20.5z" />
<glyph unicode="&#x2011;" horiz-adv-x="1026" d="M184 602v16q0 12 8.5 20.5t20.5 8.5h602q11 0 19 -8.5t8 -20.5v-16q0 -12 -8 -20.5t-19 -8.5h-602q-12 0 -20.5 8.5t-8.5 20.5z" />
<glyph unicode="&#x2012;" horiz-adv-x="1026" d="M184 602v16q0 12 8.5 20.5t20.5 8.5h602q11 0 19 -8.5t8 -20.5v-16q0 -12 -8 -20.5t-19 -8.5h-602q-12 0 -20.5 8.5t-8.5 20.5z" />
<glyph unicode="&#x2013;" horiz-adv-x="1134" d="M184 602v16q0 12 8 20.5t19 8.5h713q11 0 18.5 -8.5t7.5 -20.5v-16q0 -12 -7.5 -20.5t-18.5 -8.5h-713q-11 0 -19 8.5t-8 20.5z" />
<glyph unicode="&#x2014;" horiz-adv-x="1245" d="M184 602v16q0 12 8.5 20.5t20.5 8.5h819q12 0 20.5 -8.5t8.5 -20.5v-16q0 -12 -8.5 -20.5t-20.5 -8.5h-819q-12 0 -20.5 8.5t-8.5 20.5z" />
<glyph unicode="&#x2018;" horiz-adv-x="462" d="M113.5 1093q-2.5 12 3.5 21l194 311q3 6 10 8.5t15 -1.5l8 -5q15 -11 8 -24l-151 -336q-6 -11 -17 -14.5t-22 2.5l-37 20q-9 6 -11.5 18z" />
<glyph unicode="&#x2019;" horiz-adv-x="462" d="M111 1077l153 336q4 10 16 14t21 -2l37 -20q9 -4 11.5 -16t-3.5 -21l-194 -313q-7 -13 -25 -6l-8 6q-15 8 -8 22z" />
<glyph unicode="&#x201a;" horiz-adv-x="421" d="M70 -193l153 334q4 12 16 15.5t21 -2.5l37 -19q9 -6 11.5 -18t-3.5 -21l-192 -313q-10 -13 -25 -6l-10 6q-15 7 -8 24z" />
<glyph unicode="&#x201c;" horiz-adv-x="782" d="M113.5 1093q-2.5 12 3.5 21l194 311q3 6 10 8.5t15 -1.5l8 -5q15 -11 8 -24l-151 -336q-6 -11 -17 -14.5t-22 2.5l-37 20q-9 6 -11.5 18zM432.5 1093q-2.5 12 3.5 21l195 311q9 17 22 7l11 -5q15 -11 8 -24l-154 -336q-4 -10 -16 -14t-21 2l-37 20q-9 6 -11.5 18z" />
<glyph unicode="&#x201d;" horiz-adv-x="782" d="M111 1077l153 336q4 10 16 14t21 -2l37 -20q9 -4 11.5 -16t-3.5 -21l-194 -313q-7 -13 -25 -6l-8 6q-15 8 -8 22zM430 1077l152 336q6 11 17 14.5t22 -2.5l34 -20q10 -4 13.5 -16t-2.5 -21l-195 -313q-7 -13 -25 -6l-8 6q-15 8 -8 22z" />
<glyph unicode="&#x201e;" horiz-adv-x="741" d="M70 -193l153 334q4 12 16 15.5t21 -2.5l37 -19q9 -6 11.5 -18t-3.5 -21l-192 -313q-10 -13 -25 -6l-10 6q-15 7 -8 24zM389 -193l154 334q4 12 16 15.5t21 -2.5l36 -19q9 -6 12 -18t-3 -21l-195 -313q-6 -13 -24 -6l-9 6q-15 7 -8 24z" />
<glyph unicode="&#x2022;" horiz-adv-x="591" d="M164 645q0 55 38.5 94t92.5 39q55 0 94 -39t39 -94q0 -54 -39 -92.5t-94 -38.5q-54 0 -92.5 38.5t-38.5 92.5z" />
<glyph unicode="&#x2026;" horiz-adv-x="1013" d="M102 41q0 27 19.5 46t46.5 19q28 0 48 -19t20 -46q0 -28 -20 -48t-48 -20q-26 0 -46 20t-20 48zM440 41q0 27 19.5 46t46.5 19q28 0 47.5 -18.5t19.5 -46.5t-19.5 -48t-47.5 -20q-26 0 -46 20t-20 48zM778 41q0 27 19.5 46t46.5 19q28 0 47.5 -18.5t19.5 -46.5t-19.5 -48 t-47.5 -20q-26 0 -46 20t-20 48z" />
<glyph unicode="&#x202f;" horiz-adv-x="393" />
<glyph unicode="&#x2039;" horiz-adv-x="581" d="M134 514q0 18 9 31l215 315q10 17 31 17h35q10 0 15 -10t-1 -19l-227 -334l227 -334q6 -9 1 -18.5t-15 -9.5h-35q-21 0 -31 16l-215 315q-9 13 -9 31z" />
<glyph unicode="&#x203a;" horiz-adv-x="579" d="M142 161.5q-5 9.5 1 18.5l226 334l-226 334q-6 9 -1 19t16 10h35q18 0 28 -17l215 -315q9 -14 9 -31.5t-9 -30.5l-215 -315q-10 -16 -28 -16h-35q-11 0 -16 9.5z" />
<glyph unicode="&#x205f;" horiz-adv-x="492" />
<glyph unicode="&#x20ac;" horiz-adv-x="1558" d="M61 575v19q0 18 17 18h137q-6 52 -6 105q0 51 6 104h-137q-7 0 -12 5.5t-5 13.5v18q0 8 5 13.5t12 5.5h145q52 256 241.5 419.5t448.5 163.5q160 0 300.5 -66t242.5 -182q8 -9 6 -21.5t-12 -19.5l-16 -10q-8 -6 -18.5 -4t-16.5 10q-91 103 -216.5 161t-269.5 58 q-229 0 -397.5 -142.5t-216.5 -366.5h694q7 0 13 -5.5t6 -13.5v-18q0 -8 -6 -13.5t-13 -5.5h-704q-8 -47 -8 -104q0 -58 8 -105h704q8 0 13.5 -5.5t5.5 -12.5v-19q0 -7 -5.5 -12.5t-13.5 -5.5h-694q48 -223 217 -366.5t397 -143.5q144 0 269.5 58t216.5 163q6 8 16.5 9 t18.5 -5l16 -10q10 -6 12 -19t-6 -22q-102 -116 -242.5 -181t-300.5 -65q-259 0 -448.5 163t-241.5 419h-145q-17 0 -17 18z" />
<glyph unicode="&#x25fc;" horiz-adv-x="1034" d="M0 0v1034h1034v-1034h-1034z" />
</font>
</defs>
</svg>
